<svg width="24" height="24" viewBox="0 0 24 24" fill="none" xmlns="http://www.w3.org/2000/svg">
<path d="M20.4864 4.26249L11.0251 1.08904C10.1298 0.788753 9.15731 1.27281 8.85707 2.16798L8.73226 2.54007C8.67059 2.7239 7.94873 5.50098 7.94873 6.05098C8.73226 6.29505 9.33636 2.94728 9.39808 2.76336L9.52289 2.39126C9.70001 1.86315 10.2736 1.5776 10.8018 1.75477L20.2632 4.92817C20.7913 5.10534 21.0768 5.67902 20.8997 6.20709L16.4976 19.3317C16.4359 19.5155 16.535 19.7145 16.7189 19.7762C16.7559 19.7886 16.7935 19.7945 16.8306 19.7945C16.9773 19.7945 17.1142 19.7018 17.1634 19.555L21.5655 6.43046C21.8657 5.53535 21.3817 4.56273 20.4864 4.26249Z" fill="#1C3048" stroke="#1C3048" stroke-width="0.7"/>
<path d="M14.6918 5.73047H4.71241C3.76819 5.73047 3 6.49862 3 7.44283V21.286C3 22.2302 3.76819 22.9984 4.71241 22.9984H14.6918C15.636 22.9984 16.4042 22.2302 16.4042 21.286V7.44283C16.4042 6.49862 15.636 5.73047 14.6918 5.73047ZM15.7019 21.286C15.7019 21.843 15.2487 22.2961 14.6918 22.2961H4.71241C4.15539 22.2961 3.70225 21.8429 3.70225 21.286V7.44283C3.70225 6.88581 4.15543 6.43268 4.71241 6.43268H14.6918C15.2488 6.43268 15.702 6.88586 15.702 7.44283V21.286H15.7019Z" fill="#1C3048" stroke="#1C3048" stroke-width="0.7"/>
<path d="M14.8747 15.4219H4.52984C4.33592 15.4219 4.17871 15.5791 4.17871 15.773C4.17871 15.9669 4.33592 16.1241 4.52984 16.1241H14.8747C15.0687 16.1241 15.2259 15.9669 15.2259 15.773C15.2258 15.5791 15.0686 15.4219 14.8747 15.4219Z" fill="#1C3048" stroke="#1C3048" stroke-width="0.7"/>
<path d="M13.2391 17.5508H8.89117C8.69725 17.5508 8.54004 17.708 8.54004 17.9019C8.54004 18.0958 8.69725 18.253 8.89117 18.253H13.2391C13.4331 18.253 13.5903 18.0958 13.5903 17.9019C13.5903 17.708 13.4331 17.5508 13.2391 17.5508Z" fill="#1C3048" stroke="#1C3048" stroke-width="0.7"/>
<path d="M13.2368 19.9023H6.16558C5.97166 19.9023 5.81445 20.0596 5.81445 20.2535C5.81445 20.4474 5.97166 20.6046 6.16558 20.6046H13.2368C13.4307 20.6046 13.5879 20.4474 13.5879 20.2535C13.5879 20.0596 13.4307 19.9023 13.2368 19.9023Z" fill="#1C3048" stroke="#1C3048" stroke-width="0.7"/>
<path d="M13.5626 9.80383C13.5213 9.67672 13.4114 9.58408 13.2792 9.5649L11.026 9.23749L10.0184 7.19575C9.95916 7.0759 9.83715 7 9.70348 7C9.56986 7 9.4478 7.0759 9.3886 7.19575L8.38093 9.23749L6.12774 9.5649C5.99549 9.58408 5.88559 9.67672 5.84434 9.80383C5.80304 9.93094 5.8375 10.0704 5.93318 10.1637L7.56363 11.753L7.17873 13.9971C7.15616 14.1288 7.2103 14.2619 7.31841 14.3405C7.37958 14.3849 7.45204 14.4075 7.52481 14.4075C7.58066 14.4075 7.63678 14.3942 7.68817 14.3672L9.70348 13.3077L11.7188 14.3672C11.8371 14.4294 11.9804 14.419 12.0885 14.3405C12.1967 14.2619 12.2508 14.1288 12.2282 13.9971L11.8433 11.753L13.4737 10.1637C13.5694 10.0704 13.6039 9.93094 13.5626 9.80383ZM11.221 11.379C11.1382 11.4597 11.1005 11.5759 11.12 11.6898L11.4158 13.4146L9.86684 12.6002C9.76451 12.5465 9.64231 12.5465 9.54008 12.6002L7.99107 13.4146L8.2869 11.6898C8.3064 11.5759 8.26869 11.4597 8.18591 11.379L6.93278 10.1575L8.6646 9.90579C8.77895 9.88918 8.87779 9.81737 8.92895 9.71371L9.70343 8.14437L10.4779 9.71371C10.529 9.81732 10.6279 9.88918 10.7423 9.90579L12.4741 10.1575L11.221 11.379Z" fill="#1C3048" stroke="#1C3048" stroke-width="0.3"/>
</svg>
