<svg width="24" height="24" viewBox="0 0 24 24" fill="none" xmlns="http://www.w3.org/2000/svg">
<mask id="path-1-inside-1_86_483" fill="white">
<rect x="2.04102" y="13.2344" width="8.17021" height="8.17021" rx="1"/>
</mask>
<rect x="2.04102" y="13.2344" width="8.17021" height="8.17021" rx="1" stroke="#1C3048" stroke-width="2.8" mask="url(#path-1-inside-1_86_483)"/>
<path d="M17.6173 13.633L21.5612 19.9387C21.6862 20.1385 21.5426 20.3977 21.3069 20.3977H13.4189C13.1833 20.3977 13.0396 20.1385 13.1646 19.9387L17.1086 13.633C17.2261 13.4451 17.4997 13.4451 17.6173 13.633Z" stroke="#1C3048" stroke-width="1.4"/>
<circle cx="16.8507" cy="6.08511" r="4.08511" stroke="#1C3048" stroke-width="1.4"/>
<path d="M6.08511 10.6462C5.96879 10.6462 5.85665 10.5988 5.76926 10.5127C5.4392 10.188 5.12099 9.88291 4.84024 9.61377L4.83881 9.61237C4.01569 8.82324 3.3049 8.14176 2.81034 7.47045C2.2575 6.71997 2 6.00841 2 5.23106C2 4.47581 2.2302 3.77905 2.64815 3.26902C3.07108 2.75297 3.65141 2.46875 4.28241 2.46875C4.75403 2.46875 5.18594 2.63649 5.56612 2.96727C5.75798 3.13424 5.93189 3.33859 6.08511 3.57694C6.23839 3.33859 6.41224 3.13424 6.60416 2.96727C6.98433 2.63649 7.41625 2.46875 7.88786 2.46875C8.51881 2.46875 9.0992 2.75297 9.52213 3.26902C9.94008 3.77905 10.1702 4.47581 10.1702 5.23106C10.1702 6.00841 9.91278 6.71997 9.35994 7.47038C8.86538 8.14176 8.15465 8.82317 7.33166 9.61223C7.05041 9.88179 6.7317 10.1874 6.40089 10.5128C6.31356 10.5988 6.20136 10.6462 6.08511 10.6462ZM4.28241 3.00717C3.78667 3.00717 3.33126 3.22975 2.99996 3.63396C2.66373 4.04426 2.47854 4.61144 2.47854 5.23106C2.47854 5.88484 2.69452 6.46955 3.17879 7.12691C3.64686 7.76232 4.34306 8.42977 5.14917 9.20262L5.15066 9.20403C5.43247 9.47422 5.75193 9.78053 6.08442 10.1076C6.4189 9.7799 6.73886 9.4731 7.02124 9.20248C7.82727 8.42963 8.52342 7.76232 8.99148 7.12691C9.47569 6.46955 9.69168 5.88484 9.69168 5.23106C9.69168 4.61144 9.50648 4.04426 9.17026 3.63396C8.83901 3.22975 8.38354 3.00717 7.88786 3.00717C7.52471 3.00717 7.19128 3.13705 6.89688 3.39314C6.63452 3.62147 6.45175 3.91011 6.3446 4.11207C6.2895 4.21593 6.19251 4.5113 6.08511 4.5113C5.97771 4.5113 5.88071 4.21593 5.82561 4.11207C5.71852 3.91011 5.53576 3.62147 5.27333 3.39314C4.97893 3.13705 4.64551 3.00717 4.28241 3.00717Z" fill="#1C3048" stroke="#1C3048" stroke-width="0.75"/>
</svg>
