<svg width="320" height="10" viewBox="0 0 320 10" fill="none" xmlns="http://www.w3.org/2000/svg">
<circle cx="5" cy="5" r="5" fill="#1C3048"/>
<circle cx="21.2998" cy="5" r="5" fill="#1C3048"/>
<circle cx="37.6001" cy="5" r="5" fill="#1C3048"/>
<circle cx="53.8999" cy="5" r="5" fill="#1C3048"/>
<circle cx="70.2002" cy="5" r="5" fill="#1C3048"/>
<circle cx="86.5" cy="5" r="5" fill="#1C3048"/>
<circle cx="102.8" cy="5" r="5" fill="#1C3048"/>
<circle cx="119.1" cy="5" r="5" fill="#1C3048"/>
<circle cx="135.4" cy="5" r="5" fill="#1C3048"/>
<circle cx="151.7" cy="5" r="5" fill="#1C3048"/>
<circle cx="168" cy="5" r="5" fill="#1C3048"/>
<circle cx="184.3" cy="5" r="5" fill="#1C3048"/>
<circle cx="200.6" cy="5" r="5" fill="#1C3048"/>
<circle cx="216.9" cy="5" r="5" fill="#1C3048"/>
<circle cx="233.2" cy="5" r="5" fill="#1C3048"/>
<circle cx="249.5" cy="5" r="5" fill="#1C3048"/>
<circle cx="265.8" cy="5" r="5" fill="#1C3048"/>
<circle cx="282.1" cy="5" r="5" fill="#1C3048"/>
<circle cx="298.4" cy="5" r="5" fill="#1C3048"/>
<circle cx="314.7" cy="5" r="5" fill="#1C3048"/>
</svg>
