<svg width="24" height="24" viewBox="0 0 24 24" fill="none" xmlns="http://www.w3.org/2000/svg">
<path d="M20.4869 4.26249L11.0256 1.08904C10.1303 0.788753 9.1578 1.27281 8.85756 2.16798L8.73275 2.54007C8.67107 2.7239 7.94922 5.50098 7.94922 6.05098C8.73275 6.29505 9.33685 2.94728 9.39857 2.76336L9.52338 2.39126C9.7005 1.86315 10.2741 1.5776 10.8023 1.75477L20.2637 4.92817C20.7918 5.10534 21.0773 5.67902 20.9002 6.20709L16.4981 19.3317C16.4364 19.5155 16.5355 19.7145 16.7194 19.7762C16.7564 19.7886 16.794 19.7945 16.8311 19.7945C16.9778 19.7945 17.1146 19.7018 17.1639 19.555L21.566 6.43046C21.8662 5.53535 21.3822 4.56273 20.4869 4.26249Z" fill="url(#paint0_linear_100_1991)" stroke="url(#paint1_linear_100_1991)" stroke-width="0.7"/>
<path d="M14.6918 5.73047H4.71241C3.76819 5.73047 3 6.49862 3 7.44283V21.286C3 22.2302 3.76819 22.9984 4.71241 22.9984H14.6918C15.636 22.9984 16.4042 22.2302 16.4042 21.286V7.44283C16.4042 6.49862 15.636 5.73047 14.6918 5.73047ZM15.7019 21.286C15.7019 21.843 15.2487 22.2961 14.6918 22.2961H4.71241C4.15539 22.2961 3.70225 21.8429 3.70225 21.286V7.44283C3.70225 6.88581 4.15543 6.43268 4.71241 6.43268H14.6918C15.2488 6.43268 15.702 6.88586 15.702 7.44283V21.286H15.7019Z" fill="url(#paint2_linear_100_1991)" stroke="url(#paint3_linear_100_1991)" stroke-width="0.7"/>
<path d="M14.8757 15.4219H4.53081C4.3369 15.4219 4.17969 15.5791 4.17969 15.773C4.17969 15.9669 4.3369 16.1241 4.53081 16.1241H14.8757C15.0696 16.1241 15.2268 15.9669 15.2268 15.773C15.2268 15.5791 15.0696 15.4219 14.8757 15.4219Z" fill="url(#paint4_linear_100_1991)" stroke="url(#paint5_linear_100_1991)" stroke-width="0.7"/>
<path d="M13.2382 17.5508H8.89019C8.69627 17.5508 8.53906 17.708 8.53906 17.9019C8.53906 18.0958 8.69627 18.253 8.89019 18.253H13.2382C13.4321 18.253 13.5893 18.0958 13.5893 17.9019C13.5893 17.708 13.4321 17.5508 13.2382 17.5508Z" fill="url(#paint6_linear_100_1991)" stroke="url(#paint7_linear_100_1991)" stroke-width="0.7"/>
<path d="M13.2368 19.9023H6.16558C5.97166 19.9023 5.81445 20.0596 5.81445 20.2535C5.81445 20.4474 5.97166 20.6046 6.16558 20.6046H13.2368C13.4307 20.6046 13.5879 20.4474 13.5879 20.2535C13.5879 20.0596 13.4307 19.9023 13.2368 19.9023Z" fill="url(#paint8_linear_100_1991)" stroke="url(#paint9_linear_100_1991)" stroke-width="0.7"/>
<path d="M13.5635 9.80383C13.5223 9.67672 13.4124 9.58408 13.2802 9.5649L11.027 9.23749L10.0193 7.19575C9.96014 7.0759 9.83812 7 9.70446 7C9.57083 7 9.44877 7.0759 9.38958 7.19575L8.3819 9.23749L6.12871 9.5649C5.99647 9.58408 5.88657 9.67672 5.84532 9.80383C5.80402 9.93094 5.83848 10.0704 5.93415 10.1637L7.56461 11.753L7.17971 13.9971C7.15713 14.1288 7.21128 14.2619 7.31939 14.3405C7.38056 14.3849 7.45301 14.4075 7.52579 14.4075C7.58163 14.4075 7.63775 14.3942 7.68915 14.3672L9.70446 13.3077L11.7198 14.3672C11.8381 14.4294 11.9814 14.419 12.0895 14.3405C12.1977 14.2619 12.2518 14.1288 12.2292 13.9971L11.8443 11.753L13.4747 10.1637C13.5704 10.0704 13.6048 9.93094 13.5635 9.80383ZM11.222 11.379C11.1392 11.4597 11.1014 11.5759 11.121 11.6898L11.4168 13.4146L9.86781 12.6002C9.76549 12.5465 9.64329 12.5465 9.54105 12.6002L7.99205 13.4146L8.28788 11.6898C8.30738 11.5759 8.26966 11.4597 8.18688 11.379L6.93376 10.1575L8.66558 9.90579C8.77993 9.88918 8.87877 9.81737 8.92993 9.71371L9.70441 8.14437L10.4789 9.71371C10.53 9.81732 10.6289 9.88918 10.7432 9.90579L12.4751 10.1575L11.222 11.379Z" fill="url(#paint10_linear_100_1991)" stroke="url(#paint11_linear_100_1991)" stroke-width="0.3"/>
<defs>
<linearGradient id="paint0_linear_100_1991" x1="21.7485" y1="1" x2="7.48672" y2="1.35777" gradientUnits="userSpaceOnUse">
<stop stop-color="#5765F6"/>
<stop offset="1" stop-color="#30A9D9"/>
</linearGradient>
<linearGradient id="paint1_linear_100_1991" x1="21.7485" y1="1" x2="7.48672" y2="1.35777" gradientUnits="userSpaceOnUse">
<stop stop-color="#5765F6"/>
<stop offset="1" stop-color="#30A9D9"/>
</linearGradient>
<linearGradient id="paint2_linear_100_1991" x1="16.4957" y1="5.73047" x2="2.54884" y2="6.10289" gradientUnits="userSpaceOnUse">
<stop stop-color="#5765F6"/>
<stop offset="1" stop-color="#30A9D9"/>
</linearGradient>
<linearGradient id="paint3_linear_100_1991" x1="16.4957" y1="5.73047" x2="2.54884" y2="6.10289" gradientUnits="userSpaceOnUse">
<stop stop-color="#5765F6"/>
<stop offset="1" stop-color="#30A9D9"/>
</linearGradient>
<linearGradient id="paint4_linear_100_1991" x1="15.3022" y1="15.4219" x2="6.40509" y2="20.2365" gradientUnits="userSpaceOnUse">
<stop stop-color="#5765F6"/>
<stop offset="1" stop-color="#30A9D9"/>
</linearGradient>
<linearGradient id="paint5_linear_100_1991" x1="15.3022" y1="15.4219" x2="6.40509" y2="20.2365" gradientUnits="userSpaceOnUse">
<stop stop-color="#5765F6"/>
<stop offset="1" stop-color="#30A9D9"/>
</linearGradient>
<linearGradient id="paint6_linear_100_1991" x1="13.6238" y1="17.5508" x2="8.66859" y2="18.7766" gradientUnits="userSpaceOnUse">
<stop stop-color="#5765F6"/>
<stop offset="1" stop-color="#30A9D9"/>
</linearGradient>
<linearGradient id="paint7_linear_100_1991" x1="13.6238" y1="17.5508" x2="8.66859" y2="18.7766" gradientUnits="userSpaceOnUse">
<stop stop-color="#5765F6"/>
<stop offset="1" stop-color="#30A9D9"/>
</linearGradient>
<linearGradient id="paint8_linear_100_1991" x1="13.6409" y1="19.9023" x2="6.57201" y2="22.5941" gradientUnits="userSpaceOnUse">
<stop stop-color="#5765F6"/>
<stop offset="1" stop-color="#30A9D9"/>
</linearGradient>
<linearGradient id="paint9_linear_100_1991" x1="13.6409" y1="19.9023" x2="6.57201" y2="22.5941" gradientUnits="userSpaceOnUse">
<stop stop-color="#5765F6"/>
<stop offset="1" stop-color="#30A9D9"/>
</linearGradient>
<linearGradient id="paint10_linear_100_1991" x1="13.6336" y1="7" x2="5.57188" y2="7.29024" gradientUnits="userSpaceOnUse">
<stop stop-color="#5765F6"/>
<stop offset="1" stop-color="#30A9D9"/>
</linearGradient>
<linearGradient id="paint11_linear_100_1991" x1="13.6336" y1="7" x2="5.57188" y2="7.29024" gradientUnits="userSpaceOnUse">
<stop stop-color="#5765F6"/>
<stop offset="1" stop-color="#30A9D9"/>
</linearGradient>
</defs>
</svg>
