<svg width="24" height="24" viewBox="0 0 24 24" fill="none" xmlns="http://www.w3.org/2000/svg">
<path d="M22.3663 18.1344H16.3372C14.9957 18.1344 13.9045 19.2256 13.9045 20.5671C13.9045 21.2087 13.3824 21.7307 12.7409 21.7307H3.43288C2.79117 21.7307 2.26931 21.2087 2.26931 20.5671V19.72C2.26931 19.0788 2.791 18.5569 3.43221 18.5566L5.10957 18.5557C5.11008 18.5557 5.11075 18.5556 5.11125 18.5556C5.13039 18.5556 5.14952 18.5544 5.16883 18.5527C5.17672 18.552 5.18444 18.5507 5.19233 18.5497C5.20055 18.5485 5.20894 18.5478 5.21717 18.5465L9.69636 17.7739C9.69871 17.7734 9.70089 17.7729 9.70307 17.7723C9.71012 17.771 9.717 17.7695 9.72389 17.768C9.73513 17.7655 9.74621 17.7629 9.75712 17.7598C9.76484 17.7577 9.77256 17.7554 9.78029 17.753C9.79052 17.7497 9.80076 17.7462 9.811 17.7423C9.81839 17.7394 9.82594 17.7369 9.83333 17.7339C9.84911 17.7272 9.86455 17.7201 9.87982 17.7123C9.88587 17.7091 9.89191 17.7054 9.89795 17.702C9.90869 17.696 9.91927 17.6899 9.92968 17.6832C9.93605 17.6792 9.94243 17.6748 9.94881 17.6705C9.95888 17.6634 9.96895 17.656 9.97869 17.6483C9.98389 17.6443 9.98926 17.6402 9.99447 17.6359C10.0092 17.6236 10.0237 17.6109 10.0373 17.5971L21.35 6.28457C22.2572 5.37732 22.2572 3.90105 21.35 2.99363L20.0367 1.6805C19.1294 0.773082 17.653 0.77325 16.7457 1.6805L5.4332 12.993C5.41943 13.0066 5.40668 13.0212 5.39426 13.036C5.39006 13.041 5.38603 13.0462 5.382 13.0514C5.37428 13.0614 5.36689 13.0714 5.35985 13.0817C5.35548 13.0879 5.35112 13.0943 5.34709 13.1006C5.34054 13.1109 5.3345 13.1213 5.32862 13.1319C5.32476 13.1387 5.32073 13.1456 5.31704 13.1525C5.30966 13.1671 5.30294 13.1817 5.29656 13.1968C5.29338 13.2044 5.29069 13.2123 5.28767 13.22C5.28414 13.2297 5.28062 13.2396 5.27743 13.2495C5.27491 13.2576 5.27256 13.2656 5.27038 13.2737C5.26753 13.2841 5.26501 13.2947 5.26266 13.3054C5.26098 13.3128 5.2593 13.3202 5.25796 13.3276C5.25745 13.3298 5.25695 13.3318 5.25661 13.3338L4.57462 17.2867L3.43154 17.2873C2.09072 17.2879 1 18.3793 1 19.72V20.5671C1 21.9086 2.09139 23 3.43288 23H12.7409C14.0824 23 15.1738 21.9086 15.1738 20.5671C15.1738 19.9256 15.6956 19.4036 16.3372 19.4036H22.3663C22.7168 19.4036 23.001 19.1195 23.001 18.7691C23.001 18.4184 22.7168 18.1344 22.3663 18.1344ZM6.29916 14.7565L8.27379 16.7311L5.88758 17.1427L6.29916 14.7565ZM15.7656 4.45547L16.7214 5.41123L7.73515 14.3975L6.77939 13.4417L15.7656 4.45547ZM9.58843 16.2508L8.63267 15.295L17.6191 6.30875L18.5748 7.26451L9.58843 16.2508ZM17.6432 2.57785C18.0557 2.1656 18.7266 2.1656 19.1392 2.57785L20.4523 3.89114C20.8647 4.30356 20.8647 4.97464 20.4523 5.38706L19.4722 6.36716C19.4722 6.36699 19.4724 6.36716 19.4724 6.36716C19.4724 6.36716 19.4724 6.36716 19.4722 6.36716L16.6631 3.55795L17.6432 2.57785Z" fill="url(#paint0_linear_100_2053)"/>
<path d="M19.4722 6.36716L20.4523 5.38706C20.8647 4.97464 20.8647 4.30356 20.4523 3.89114L19.1392 2.57785C18.7266 2.1656 18.0557 2.1656 17.6432 2.57785L16.6631 3.55795L19.4722 6.36716ZM19.4722 6.36716C19.4722 6.36699 19.4724 6.36716 19.4724 6.36716C19.4724 6.36716 19.4724 6.36716 19.4722 6.36716ZM22.3663 18.1344H16.3372C14.9957 18.1344 13.9045 19.2256 13.9045 20.5671C13.9045 21.2087 13.3824 21.7307 12.7409 21.7307H3.43288C2.79117 21.7307 2.26931 21.2087 2.26931 20.5671V19.72C2.26931 19.0788 2.791 18.5569 3.43221 18.5566L5.10957 18.5557C5.11008 18.5557 5.11075 18.5556 5.11125 18.5556C5.13039 18.5556 5.14952 18.5544 5.16883 18.5527C5.17672 18.552 5.18444 18.5507 5.19233 18.5497C5.20055 18.5485 5.20894 18.5478 5.21717 18.5465L9.69636 17.7739C9.69871 17.7734 9.70089 17.7729 9.70307 17.7723C9.71012 17.771 9.717 17.7695 9.72389 17.768C9.73513 17.7655 9.74621 17.7629 9.75712 17.7598C9.76484 17.7577 9.77256 17.7554 9.78029 17.753C9.79052 17.7497 9.80076 17.7462 9.811 17.7423C9.81839 17.7394 9.82594 17.7369 9.83333 17.7339C9.84911 17.7272 9.86455 17.7201 9.87982 17.7123C9.88587 17.7091 9.89191 17.7054 9.89795 17.702C9.90869 17.696 9.91927 17.6899 9.92968 17.6832C9.93605 17.6792 9.94243 17.6748 9.94881 17.6705C9.95888 17.6634 9.96895 17.656 9.97869 17.6483C9.98389 17.6443 9.98926 17.6402 9.99447 17.6359C10.0092 17.6236 10.0237 17.6109 10.0373 17.5971L21.35 6.28457C22.2572 5.37732 22.2572 3.90105 21.35 2.99363L20.0367 1.6805C19.1294 0.773082 17.653 0.77325 16.7457 1.6805L5.4332 12.993C5.41943 13.0066 5.40668 13.0212 5.39426 13.036C5.39006 13.041 5.38603 13.0462 5.382 13.0514C5.37428 13.0614 5.36689 13.0714 5.35985 13.0817C5.35548 13.0879 5.35112 13.0943 5.34709 13.1006C5.34054 13.1109 5.3345 13.1213 5.32862 13.1319C5.32476 13.1387 5.32074 13.1456 5.31704 13.1525C5.30966 13.1671 5.30294 13.1817 5.29656 13.1968C5.29337 13.2044 5.29069 13.2123 5.28767 13.22C5.28414 13.2297 5.28062 13.2396 5.27743 13.2495C5.27491 13.2576 5.27256 13.2656 5.27038 13.2737C5.26753 13.2841 5.26501 13.2947 5.26266 13.3054C5.26098 13.3128 5.2593 13.3202 5.25796 13.3276C5.25745 13.3298 5.25695 13.3318 5.25661 13.3338L4.57462 17.2867L3.43154 17.2873C2.09072 17.2879 1 18.3793 1 19.72V20.5671C1 21.9086 2.09139 23 3.43288 23H12.7409C14.0824 23 15.1738 21.9086 15.1738 20.5671C15.1738 19.9256 15.6956 19.4036 16.3372 19.4036H22.3663C22.7168 19.4036 23.001 19.1195 23.001 18.7691C23.001 18.4184 22.7168 18.1344 22.3663 18.1344ZM6.29916 14.7565L8.27379 16.7311L5.88758 17.1427L6.29916 14.7565ZM15.7656 4.45547L16.7214 5.41123L7.73515 14.3975L6.77939 13.4417L15.7656 4.45547ZM9.58843 16.2508L8.63267 15.295L17.6191 6.30875L18.5748 7.26451L9.58843 16.2508Z" stroke="url(#paint1_linear_100_2053)" stroke-width="0.2"/>
<defs>
<linearGradient id="paint0_linear_100_2053" x1="23.1511" y1="1" x2="0.270246" y2="1.78714" gradientUnits="userSpaceOnUse">
<stop stop-color="#5765F6"/>
<stop offset="1" stop-color="#30A9D9"/>
</linearGradient>
<linearGradient id="paint1_linear_100_2053" x1="23.1511" y1="1" x2="0.270246" y2="1.78714" gradientUnits="userSpaceOnUse">
<stop stop-color="#5765F6"/>
<stop offset="1" stop-color="#30A9D9"/>
</linearGradient>
</defs>
</svg>
