<svg width="24" height="24" viewBox="0 0 24 24" fill="none" xmlns="http://www.w3.org/2000/svg">
<path fill-rule="evenodd" clip-rule="evenodd" d="M16.8507 2.25C14.7327 2.25 13.0156 3.96704 13.0156 6.08511C13.0156 8.20318 14.7327 9.92021 16.8507 9.92021C18.9688 9.92021 20.6858 8.20318 20.6858 6.08511C20.6858 3.96704 18.9688 2.25 16.8507 2.25ZM12.5156 6.08511C12.5156 3.69089 14.4565 1.75 16.8507 1.75C19.2449 1.75 21.1858 3.69089 21.1858 6.08511C21.1858 8.47932 19.2449 10.4202 16.8507 10.4202C14.4565 10.4202 12.5156 8.47932 12.5156 6.08511ZM17.7868 13.5269L21.7308 19.8326C21.9391 20.1656 21.6997 20.5977 21.3069 20.5977H13.4189C13.0261 20.5977 12.7867 20.1656 12.995 19.8326L16.939 13.5269C17.1349 13.2138 17.591 13.2138 17.7868 13.5269ZM16.5151 13.2618C16.9068 12.6355 17.819 12.6355 18.2107 13.2618L22.1547 19.5675C22.5713 20.2335 22.0925 21.0977 21.3069 21.0977H13.4189C12.6333 21.0977 12.1545 20.2335 12.5711 19.5675L16.5151 13.2618ZM3.04102 13.7344H9.21123C9.48737 13.7344 9.71123 13.9582 9.71123 14.2344V20.4046C9.71123 20.6807 9.48737 20.9046 9.21123 20.9046H3.04102C2.76487 20.9046 2.54102 20.6807 2.54102 20.4046V14.2344C2.54102 13.9582 2.76487 13.7344 3.04102 13.7344ZM2.04102 14.2344C2.04102 13.6821 2.48873 13.2344 3.04102 13.2344H9.21123C9.76351 13.2344 10.2112 13.6821 10.2112 14.2344V20.4046C10.2112 20.9569 9.76351 21.4046 9.21123 21.4046H3.04102C2.48873 21.4046 2.04102 20.9569 2.04102 20.4046V14.2344ZM5.76926 10.5127C5.85665 10.5988 5.96879 10.6462 6.08511 10.6462C6.20136 10.6462 6.31356 10.5988 6.40089 10.5128C6.7317 10.1874 7.05041 9.88179 7.33166 9.61223L7.33176 9.61213C8.15471 8.82312 8.8654 8.14174 9.35994 7.47038C9.91278 6.71997 10.1702 6.00841 10.1702 5.23106C10.1702 4.47581 9.94008 3.77905 9.52213 3.26902C9.0992 2.75297 8.51881 2.46875 7.88786 2.46875C7.41625 2.46875 6.98433 2.63649 6.60416 2.96727C6.41224 3.13424 6.23839 3.33859 6.08511 3.57694C5.93189 3.33859 5.75798 3.13424 5.56612 2.96727C5.18594 2.63649 4.75403 2.46875 4.28241 2.46875C3.65141 2.46875 3.07108 2.75297 2.64815 3.26902C2.2302 3.77905 2 4.47581 2 5.23106C2 6.00841 2.2575 6.71997 2.81034 7.47045C3.3049 8.14176 4.01569 8.82324 4.83881 9.61237L4.84024 9.61377C5.12099 9.88291 5.4392 10.188 5.76926 10.5127ZM2.99996 3.63396C3.33126 3.22975 3.78667 3.00717 4.28241 3.00717C4.64551 3.00717 4.97893 3.13705 5.27333 3.39314C5.53576 3.62147 5.71852 3.91011 5.82561 4.11207C5.83833 4.13604 5.85328 4.17021 5.87007 4.2086C5.92604 4.33654 6.00249 4.5113 6.08511 4.5113C6.16772 4.5113 6.24417 4.33654 6.30014 4.2086C6.31694 4.17021 6.33188 4.13604 6.3446 4.11207C6.45175 3.91011 6.63452 3.62147 6.89688 3.39314C7.19128 3.13705 7.52471 3.00717 7.88786 3.00717C8.38354 3.00717 8.83901 3.22975 9.17026 3.63396C9.50648 4.04426 9.69168 4.61144 9.69168 5.23106C9.69168 5.88484 9.47569 6.46955 8.99148 7.12691C8.52384 7.76174 7.82854 8.42842 7.02343 9.20038L7.02124 9.20248C6.73886 9.4731 6.4189 9.7799 6.08442 10.1076C5.75193 9.78053 5.43247 9.47422 5.15066 9.20403L5.14917 9.20262L5.14869 9.20217C4.34279 8.42951 3.64677 7.76219 3.17879 7.12691C2.69452 6.46955 2.47854 5.88484 2.47854 5.23106C2.47854 4.61144 2.66373 4.04426 2.99996 3.63396Z" fill="url(#paint0_linear_100_1984)"/>
<path d="M21.7308 19.8326L21.4129 20.0315L21.7308 19.8326ZM17.7868 13.5269L18.1048 13.328L17.7868 13.5269ZM12.995 19.8326L12.6771 19.6337H12.6771L12.995 19.8326ZM16.939 13.5269L17.2569 13.7258L17.2569 13.7258L16.939 13.5269ZM18.2107 13.2618L18.5287 13.0629L18.5287 13.0629L18.2107 13.2618ZM16.5151 13.2618L16.1972 13.0629L16.5151 13.2618ZM22.1547 19.5675L22.4726 19.3686L22.1547 19.5675ZM12.5711 19.5675L12.2532 19.3686H12.2532L12.5711 19.5675ZM5.76926 10.5127L6.03247 10.2456L6.03224 10.2454L5.76926 10.5127ZM6.40089 10.5128L6.1379 10.2455L6.13781 10.2456L6.40089 10.5128ZM7.33166 9.61223L7.07395 9.33979L7.07218 9.3415L7.33166 9.61223ZM7.33176 9.61213L7.58947 9.88456L7.59129 9.88281L7.33176 9.61213ZM9.35994 7.47038L9.05802 7.24796L9.05801 7.24798L9.35994 7.47038ZM9.52213 3.26902L9.81218 3.03133L9.81217 3.03132L9.52213 3.26902ZM6.60416 2.96727L6.85029 3.25019L6.85031 3.25018L6.60416 2.96727ZM6.08511 3.57694L5.76966 3.77972L6.08504 4.27036L6.40052 3.77977L6.08511 3.57694ZM5.56612 2.96727L5.81229 2.68439L5.81227 2.68437L5.56612 2.96727ZM2.64815 3.26902L2.35811 3.03132L2.3581 3.03133L2.64815 3.26902ZM2.81034 7.47045L2.50841 7.69286L2.50842 7.69288L2.81034 7.47045ZM4.83881 9.61237L5.10107 9.34431L5.09832 9.34167L4.83881 9.61237ZM4.84024 9.61377L4.57797 9.88183L4.58073 9.88447L4.84024 9.61377ZM2.99996 3.63396L2.70993 3.39624L2.70991 3.39627L2.99996 3.63396ZM5.27333 3.39314L5.51948 3.11024L5.51945 3.11021L5.27333 3.39314ZM5.82561 4.11207L5.49431 4.28775L5.49435 4.28783L5.82561 4.11207ZM5.87007 4.2086L6.21364 4.0583L6.21364 4.0583L5.87007 4.2086ZM6.30014 4.2086L5.95658 4.05831L5.95658 4.05831L6.30014 4.2086ZM6.3446 4.11207L6.67586 4.28783L6.67587 4.28782L6.3446 4.11207ZM6.89688 3.39314L6.65076 3.11021L6.6507 3.11027L6.89688 3.39314ZM9.17026 3.63396L9.46031 3.39627L9.4603 3.39626L9.17026 3.63396ZM8.99148 7.12691L9.29341 7.34932L9.29341 7.34931L8.99148 7.12691ZM7.02343 9.20038L6.76389 8.9297L6.76389 8.92971L7.02343 9.20038ZM7.02124 9.20248L7.2807 9.47323L7.28078 9.47316L7.02124 9.20248ZM6.08442 10.1076L5.82145 10.3749L6.08389 10.6331L6.34686 10.3755L6.08442 10.1076ZM5.15066 9.20403L5.41021 8.93332L5.40712 8.93043L5.15066 9.20403ZM5.14917 9.20262L4.88963 9.47334L4.89271 9.47622L5.14917 9.20262ZM5.14869 9.20217L4.88917 9.47286L4.88917 9.47286L5.14869 9.20217ZM3.17879 7.12691L3.48072 6.9045L3.48071 6.90449L3.17879 7.12691ZM13.3906 6.08511C13.3906 4.17414 14.9398 2.625 16.8507 2.625V1.875C14.5256 1.875 12.6406 3.75993 12.6406 6.08511H13.3906ZM16.8507 9.54521C14.9398 9.54521 13.3906 7.99607 13.3906 6.08511H12.6406C12.6406 8.41028 14.5256 10.2952 16.8507 10.2952V9.54521ZM20.3108 6.08511C20.3108 7.99607 18.7617 9.54521 16.8507 9.54521V10.2952C19.1759 10.2952 21.0608 8.41028 21.0608 6.08511H20.3108ZM16.8507 2.625C18.7617 2.625 20.3108 4.17414 20.3108 6.08511H21.0608C21.0608 3.75993 19.1759 1.875 16.8507 1.875V2.625ZM16.8507 1.375C14.2494 1.375 12.1406 3.48379 12.1406 6.08511H12.8906C12.8906 3.898 14.6636 2.125 16.8507 2.125V1.375ZM21.5608 6.08511C21.5608 3.48379 19.4521 1.375 16.8507 1.375V2.125C19.0378 2.125 20.8108 3.898 20.8108 6.08511H21.5608ZM16.8507 10.7952C19.4521 10.7952 21.5608 8.68643 21.5608 6.08511H20.8108C20.8108 8.27221 19.0378 10.0452 16.8507 10.0452V10.7952ZM12.1406 6.08511C12.1406 8.68643 14.2494 10.7952 16.8507 10.7952V10.0452C14.6636 10.0452 12.8906 8.27221 12.8906 6.08511H12.1406ZM22.0487 19.6337L18.1048 13.328L17.4689 13.7258L21.4129 20.0315L22.0487 19.6337ZM21.3069 20.9727C21.9943 20.9727 22.4132 20.2165 22.0487 19.6337L21.4129 20.0315C21.4649 20.1147 21.4051 20.2227 21.3069 20.2227V20.9727ZM13.4189 20.9727H21.3069V20.2227H13.4189V20.9727ZM12.6771 19.6337C12.3126 20.2165 12.7315 20.9727 13.4189 20.9727V20.2227C13.3207 20.2227 13.2609 20.1147 13.313 20.0315L12.6771 19.6337ZM16.6211 13.328L12.6771 19.6337L13.313 20.0315L17.2569 13.7258L16.6211 13.328ZM18.1048 13.328C17.762 12.78 16.9638 12.78 16.6211 13.328L17.2569 13.7258C17.3059 13.6475 17.4199 13.6475 17.4689 13.7258L18.1048 13.328ZM18.5287 13.0629C17.99 12.2018 16.7358 12.2018 16.1972 13.0629L16.833 13.4606C17.0778 13.0692 17.648 13.0692 17.8928 13.4606L18.5287 13.0629ZM22.4726 19.3686L18.5287 13.0629L17.8928 13.4606L21.8368 19.7663L22.4726 19.3686ZM21.3069 21.4727C22.3871 21.4727 23.0454 20.2844 22.4726 19.3686L21.8368 19.7663C22.0971 20.1826 21.7979 20.7227 21.3069 20.7227V21.4727ZM13.4189 21.4727H21.3069V20.7227H13.4189V21.4727ZM12.2532 19.3686C11.6804 20.2844 12.3388 21.4727 13.4189 21.4727V20.7227C12.9279 20.7227 12.6287 20.1826 12.889 19.7663L12.2532 19.3686ZM16.1972 13.0629L12.2532 19.3686L12.889 19.7663L16.833 13.4606L16.1972 13.0629ZM9.21123 13.3594H3.04102V14.1094H9.21123V13.3594ZM10.0862 14.2344C10.0862 13.7511 9.69448 13.3594 9.21123 13.3594V14.1094C9.28027 14.1094 9.33623 14.1653 9.33623 14.2344H10.0862ZM10.0862 20.4046V14.2344H9.33623V20.4046H10.0862ZM9.21123 21.2796C9.69448 21.2796 10.0862 20.8878 10.0862 20.4046H9.33623C9.33623 20.4736 9.28027 20.5296 9.21123 20.5296V21.2796ZM3.04102 21.2796H9.21123V20.5296H3.04102V21.2796ZM2.16602 20.4046C2.16602 20.8878 2.55777 21.2796 3.04102 21.2796V20.5296C2.97198 20.5296 2.91602 20.4736 2.91602 20.4046H2.16602ZM2.16602 14.2344V20.4046H2.91602V14.2344H2.16602ZM3.04102 13.3594C2.55777 13.3594 2.16602 13.7511 2.16602 14.2344H2.91602C2.91602 14.1653 2.97198 14.1094 3.04102 14.1094V13.3594ZM3.04102 12.8594C2.28162 12.8594 1.66602 13.475 1.66602 14.2344H2.41602C2.41602 13.8892 2.69584 13.6094 3.04102 13.6094V12.8594ZM9.21123 12.8594H3.04102V13.6094H9.21123V12.8594ZM10.5862 14.2344C10.5862 13.475 9.97062 12.8594 9.21123 12.8594V13.6094C9.55641 13.6094 9.83623 13.8892 9.83623 14.2344H10.5862ZM10.5862 20.4046V14.2344H9.83623V20.4046H10.5862ZM9.21123 21.7796C9.97062 21.7796 10.5862 21.164 10.5862 20.4046H9.83623C9.83623 20.7498 9.55641 21.0296 9.21123 21.0296V21.7796ZM3.04102 21.7796H9.21123V21.0296H3.04102V21.7796ZM1.66602 20.4046C1.66602 21.164 2.28162 21.7796 3.04102 21.7796V21.0296C2.69584 21.0296 2.41602 20.7498 2.41602 20.4046H1.66602ZM1.66602 14.2344V20.4046H2.41602V14.2344H1.66602ZM6.08511 10.2712C6.07312 10.2712 6.05396 10.2668 6.03247 10.2456L5.50606 10.7798C5.65934 10.9309 5.86446 11.0212 6.08511 11.0212V10.2712ZM6.13781 10.2456C6.11638 10.2667 6.09712 10.2712 6.08511 10.2712V11.0212C6.3056 11.0212 6.51074 10.9309 6.66397 10.7801L6.13781 10.2456ZM7.07218 9.3415C6.79104 9.61095 6.47067 9.91814 6.1379 10.2455L6.66388 10.7802C6.99272 10.4567 7.30977 10.1526 7.59114 9.88296L7.07218 9.3415ZM7.07406 9.3397L7.07396 9.3398L7.58936 9.88465L7.58946 9.88455L7.07406 9.3397ZM9.05801 7.24798C8.5867 7.8878 7.90283 8.5451 7.07224 9.34144L7.59129 9.88281C8.40659 9.10113 9.1441 8.39567 9.66186 7.69279L9.05801 7.24798ZM9.79521 5.23106C9.79521 5.91344 9.57308 6.54883 9.05802 7.24796L9.66185 7.69281C10.2525 6.89111 10.5452 6.10337 10.5452 5.23106H9.79521ZM9.23208 3.50671C9.58722 3.94009 9.79521 4.54918 9.79521 5.23106H10.5452C10.5452 4.40245 10.2929 3.618 9.81218 3.03133L9.23208 3.50671ZM7.88786 2.84375C8.39922 2.84375 8.87568 3.07184 9.23209 3.50673L9.81217 3.03132C9.32272 2.4341 8.63839 2.09375 7.88786 2.09375V2.84375ZM6.85031 3.25018C7.16731 2.97436 7.51323 2.84375 7.88786 2.84375V2.09375C7.31926 2.09375 6.80136 2.29862 6.35801 2.68437L6.85031 3.25018ZM6.40052 3.77977C6.53684 3.56778 6.68808 3.39131 6.85029 3.25019L6.35803 2.68435C6.13639 2.87717 5.93993 3.10939 5.7697 3.37411L6.40052 3.77977ZM5.31994 3.25015C5.48215 3.39132 5.63344 3.56781 5.76966 3.77972L6.40056 3.37417C6.23034 3.10937 6.03381 2.87716 5.81229 2.68439L5.31994 3.25015ZM4.28241 2.84375C4.65705 2.84375 5.00297 2.97436 5.31997 3.25018L5.81227 2.68437C5.36892 2.29862 4.85102 2.09375 4.28241 2.09375V2.84375ZM2.93819 3.50673C3.29461 3.07183 3.771 2.84375 4.28241 2.84375V2.09375C3.53181 2.09375 2.84756 2.43411 2.35811 3.03132L2.93819 3.50673ZM2.375 5.23106C2.375 4.5492 2.58304 3.94011 2.9382 3.50671L2.3581 3.03133C1.87735 3.61799 1.625 4.40242 1.625 5.23106H2.375ZM3.11226 7.24804C2.59719 6.54882 2.375 5.91342 2.375 5.23106H1.625C1.625 6.10339 1.91781 6.89112 2.50841 7.69286L3.11226 7.24804ZM5.09832 9.34167C4.26757 8.54523 3.58359 7.88782 3.11226 7.24803L2.50842 7.69288C3.0262 8.39571 3.76381 9.10126 4.57929 9.88306L5.09832 9.34167ZM5.10249 9.34572L5.10106 9.34432L4.57655 9.88041L4.57799 9.88182L5.10249 9.34572ZM6.03224 10.2454C5.70022 9.91877 5.38035 9.61207 5.09975 9.34307L4.58073 9.88447C4.86163 10.1538 5.17819 10.4573 5.50628 10.78L6.03224 10.2454ZM4.28241 2.63217C3.66749 2.63217 3.10802 2.91055 2.70993 3.39624L3.28998 3.87167C3.5545 3.54895 3.90586 3.38217 4.28241 3.38217V2.63217ZM5.51945 3.11021C5.16232 2.79955 4.74303 2.63217 4.28241 2.63217V3.38217C4.54799 3.38217 4.79554 3.47455 5.02721 3.67608L5.51945 3.11021ZM6.15692 3.9364C6.03908 3.71416 5.83059 3.38093 5.51948 3.11024L5.02719 3.67605C5.24093 3.86202 5.39797 4.10606 5.49431 4.28775L6.15692 3.9364ZM6.21364 4.0583C6.19923 4.02538 6.1778 3.97576 6.15687 3.93631L5.49435 4.28783C5.49886 4.29632 5.50732 4.31505 5.52651 4.3589L6.21364 4.0583ZM6.08511 4.1363C6.2006 4.1363 6.26814 4.19639 6.28065 4.20809C6.29655 4.22295 6.29806 4.22955 6.28767 4.21253C6.27902 4.19836 6.26796 4.17753 6.25439 4.14897C6.24096 4.1207 6.22797 4.09107 6.21364 4.0583L5.52651 4.3589C5.55191 4.41697 5.59525 4.51769 5.64753 4.60333C5.67357 4.64599 5.71319 4.70428 5.7684 4.7559C5.82023 4.80437 5.9283 4.8863 6.08511 4.8863V4.1363ZM5.95658 4.05831C5.94224 4.09107 5.92925 4.1207 5.91582 4.14897C5.90226 4.17753 5.8912 4.19836 5.88255 4.21253C5.87215 4.22955 5.87367 4.22295 5.88956 4.20809C5.90208 4.19639 5.96961 4.1363 6.08511 4.1363V4.8863C6.24191 4.8863 6.34998 4.80437 6.40181 4.7559C6.45703 4.70428 6.49664 4.64599 6.52269 4.60333C6.57497 4.51769 6.6183 4.41697 6.6437 4.3589L5.95658 4.05831ZM6.01334 3.93631C5.99241 3.97576 5.97098 4.02538 5.95658 4.05831L6.6437 4.3589C6.66289 4.31505 6.67136 4.29633 6.67586 4.28783L6.01334 3.93631ZM6.6507 3.11027C6.33967 3.38094 6.13121 3.71416 6.01334 3.93632L6.67587 4.28782C6.7723 4.10606 6.92936 3.862 7.14306 3.67602L6.6507 3.11027ZM7.88786 2.63217C7.4272 2.63217 7.0079 2.79954 6.65076 3.11021L7.143 3.67608C7.37467 3.47455 7.62222 3.38217 7.88786 3.38217V2.63217ZM9.4603 3.39626C9.06226 2.91054 8.50271 2.63217 7.88786 2.63217V3.38217C8.26437 3.38217 8.61577 3.54896 8.88021 3.87165L9.4603 3.39626ZM10.0667 5.23106C10.0667 4.54003 9.86042 3.88453 9.46031 3.39627L8.8802 3.87164C9.15255 4.20399 9.31668 4.68284 9.31668 5.23106H10.0667ZM9.29341 7.34931C9.81311 6.64378 10.0667 5.98295 10.0667 5.23106H9.31668C9.31668 5.78674 9.13827 6.29533 8.68955 6.90451L9.29341 7.34931ZM7.28296 9.47106C8.07988 8.70695 8.80243 8.01583 9.29341 7.34932L8.68956 6.9045C8.24526 7.50765 7.57719 8.14989 6.76389 8.9297L7.28296 9.47106ZM7.28078 9.47316L7.28297 9.47106L6.76389 8.92971L6.7617 8.93181L7.28078 9.47316ZM6.34686 10.3755C6.67968 10.0494 6.99826 9.74391 7.2807 9.47323L6.76177 8.93174C6.47947 9.20229 6.15813 9.5104 5.82199 9.83972L6.34686 10.3755ZM4.89113 9.47471C5.17311 9.74506 5.49091 10.0498 5.82145 10.3749L6.3474 9.84026C6.01295 9.51127 5.69184 9.20338 5.41019 8.93334L4.89113 9.47471ZM4.89271 9.47622L4.8942 9.47762L5.40712 8.93043L5.40562 8.92903L4.89271 9.47622ZM4.88917 9.47286L4.88965 9.47332L5.40868 8.93193L5.40821 8.93148L4.88917 9.47286ZM2.87687 7.34932C3.36819 8.01629 4.09147 8.70806 4.88917 9.47286L5.40822 8.93148C4.59412 8.15096 3.92535 7.50809 3.48072 6.9045L2.87687 7.34932ZM2.10354 5.23106C2.10354 5.98296 2.35711 6.64379 2.87688 7.34933L3.48071 6.90449C3.03194 6.29532 2.85354 5.78673 2.85354 5.23106H2.10354ZM2.70991 3.39627C2.3098 3.88453 2.10354 4.54003 2.10354 5.23106H2.85354C2.85354 4.68284 3.01766 4.20399 3.29001 3.87164L2.70991 3.39627Z" fill="url(#paint1_linear_100_1984)"/>
<defs>
<linearGradient id="paint0_linear_100_1984" x1="22.4471" y1="1.75" x2="1.32807" y2="2.50067" gradientUnits="userSpaceOnUse">
<stop stop-color="#5765F6"/>
<stop offset="1" stop-color="#30A9D9"/>
</linearGradient>
<linearGradient id="paint1_linear_100_1984" x1="22.4471" y1="1.75" x2="1.32807" y2="2.50067" gradientUnits="userSpaceOnUse">
<stop stop-color="#5765F6"/>
<stop offset="1" stop-color="#30A9D9"/>
</linearGradient>
</defs>
</svg>
