<svg width="24" height="24" viewBox="0 0 24 24" fill="none" xmlns="http://www.w3.org/2000/svg">
<path d="M12 14.3461C11.0929 14.3462 10.1862 14.1244 9.35931 13.6809L3.39712 10.4829C2.53256 10.0192 1.99731 9.12242 2.00012 8.14262C2.00297 7.16282 2.54342 6.26922 3.41065 5.81047L9.38785 2.64885C11.0235 1.78372 12.9764 1.78372 14.6121 2.64885L20.5893 5.81047C21.4565 6.26918 21.9969 7.16278 21.9998 8.14262C22.0026 9.12242 21.4674 10.0192 20.6028 10.4829L14.6406 13.6809C13.814 14.1244 12.9068 14.3461 12 14.3461ZM12 3.56264C11.3537 3.56264 10.7075 3.71844 10.1184 4.03004L4.14129 7.1917C3.78017 7.38271 3.56383 7.73994 3.56267 8.14719C3.5615 8.55443 3.77571 8.91289 4.13575 9.10601L10.098 12.304C11.2891 12.9429 12.7111 12.9429 13.9021 12.304L19.8644 9.10601C20.2244 8.91289 20.4386 8.55446 20.4375 8.14719C20.4363 7.73991 20.22 7.38271 19.8588 7.1917L13.8815 4.03004C13.2924 3.71848 12.6462 3.56264 12 3.56264ZM14.6406 20.7511L21.5879 17.0249C21.9681 16.8209 22.111 16.3473 21.9071 15.9671C21.7031 15.5869 21.2296 15.444 20.8494 15.6479L13.902 19.3742C12.7111 20.0131 11.289 20.0131 10.0949 19.3726L3.14763 15.6854C2.76643 15.4831 2.29355 15.6281 2.09134 16.0092C1.88905 16.3903 2.03402 16.8632 2.41515 17.0655L9.35935 20.7511C10.1862 21.1946 11.0929 21.4163 12 21.4163C12.9068 21.4163 13.814 21.1946 14.6406 20.7511ZM14.6406 17.2356L21.5879 13.5093C21.9681 13.3054 22.111 12.8318 21.9071 12.4516C21.7031 12.0713 21.2296 11.9285 20.8494 12.1324L13.902 15.8587C12.7111 16.4976 11.289 16.4975 10.0949 15.857L3.14763 12.1699C2.76643 11.9676 2.29355 12.1126 2.09134 12.4937C1.88905 12.8748 2.03402 13.3477 2.41515 13.55L9.35935 17.2355C10.1862 17.6791 11.0929 17.9007 12 17.9007C12.9068 17.9007 13.814 17.679 14.6406 17.2356Z" fill="url(#paint0_linear_100_2061)"/>
<defs>
<linearGradient id="paint0_linear_100_2061" x1="22.1365" y1="2" x2="1.33811" y2="2.73698" gradientUnits="userSpaceOnUse">
<stop stop-color="#5765F6"/>
<stop offset="1" stop-color="#30A9D9"/>
</linearGradient>
</defs>
</svg>
