<svg width="24" height="24" viewBox="0 0 24 24" fill="none" xmlns="http://www.w3.org/2000/svg">
<path fill-rule="evenodd" clip-rule="evenodd" d="M1.75 3.50795C1.75 3.16306 2.08811 2.75 2.67885 2.75H8.45694C9.04774 2.75 9.38583 3.16307 9.38583 3.50795V7.19069C9.38583 7.53559 9.04772 7.94864 8.45698 7.94864H2.67885C2.08811 7.94864 1.75 7.53559 1.75 7.19069V3.50795ZM2.67885 1.25C1.4152 1.25 0.25 2.18722 0.25 3.50795V7.19069C0.25 8.51142 1.4152 9.44864 2.67885 9.44864H8.45698C9.72063 9.44864 10.8858 8.51142 10.8858 7.19069V3.50795C10.8858 2.18721 9.72061 1.25 8.45694 1.25H2.67885ZM14.4277 3.50795C14.4277 3.16306 14.7658 2.75 15.3566 2.75H21.3211C21.9119 2.75 22.25 3.16307 22.25 3.50795V11.8797C22.25 12.2246 21.9119 12.6377 21.3212 12.6377H15.3566C14.7658 12.6377 14.4277 12.2246 14.4277 11.8797V3.50795ZM15.3566 1.25C14.0929 1.25 12.9277 2.18722 12.9277 3.50795V11.8797C12.9277 13.2005 14.0929 14.1377 15.3566 14.1377H21.3212C22.5848 14.1377 23.75 13.2005 23.75 11.8797V3.50795C23.75 2.18721 22.5848 1.25 21.3211 1.25H15.3566ZM15.3566 17.4863C14.7659 17.4863 14.4277 17.8994 14.4277 18.2443V20.2524C14.4277 20.5973 14.7658 21.0103 15.3566 21.0103H21.3212C21.9119 21.0103 22.25 20.5973 22.25 20.2524V18.2443C22.25 17.8994 21.9119 17.4863 21.3211 17.4863H15.3566ZM12.9277 18.2443C12.9277 16.9236 14.0929 15.9863 15.3566 15.9863H21.3211C22.5848 15.9863 23.75 16.9235 23.75 18.2443V20.2524C23.75 21.5731 22.5848 22.5103 21.3212 22.5103H15.3566C14.0929 22.5103 12.9277 21.5731 12.9277 20.2524V18.2443ZM1.75 13.3888C1.75 13.0439 2.08811 12.6309 2.67885 12.6309H8.45694C9.04774 12.6309 9.38583 13.0439 9.38583 13.3888V20.2534C9.38583 20.5983 9.04772 21.0114 8.45698 21.0114H2.67885C2.08811 21.0114 1.75 20.5983 1.75 20.2534V13.3888ZM2.67885 11.1309C1.4152 11.1309 0.25 12.0681 0.25 13.3888V20.2534C0.25 21.5741 1.4152 22.5114 2.67885 22.5114H8.45698C9.72063 22.5114 10.8858 21.5741 10.8858 20.2534V13.3888C10.8858 12.0681 9.72061 11.1309 8.45694 11.1309H2.67885Z" fill="url(#paint0_linear_102_2300)"/>
<defs>
<linearGradient id="paint0_linear_102_2300" x1="23.9104" y1="1.25" x2="-0.523077" y2="2.17901" gradientUnits="userSpaceOnUse">
<stop stop-color="#5765F6"/>
<stop offset="1" stop-color="#30A9D9"/>
</linearGradient>
</defs>
</svg>
