<svg width="24" height="24" viewBox="0 0 24 24" fill="none" xmlns="http://www.w3.org/2000/svg">
<path fill-rule="evenodd" clip-rule="evenodd" d="M7.11133 9.13281V9.70031H8.61133V9.13281C8.61133 8.99474 8.72326 8.88281 8.86133 8.88281H11.25V15.2277H10.3984V16.7277H13.6012V15.2277H12.75V8.88281H15.1387C15.2767 8.88281 15.3887 8.99474 15.3887 9.13281V9.70031H16.8887V9.13281C16.8887 8.16631 16.1052 7.38281 15.1387 7.38281H8.86133C7.89483 7.38281 7.11133 8.16631 7.11133 9.13281Z" fill="url(#paint0_linear_100_2015)"/>
<mask id="mask0_100_2015" style="mask-type:luminance" maskUnits="userSpaceOnUse" x="1" y="1" width="22" height="22">
<path d="M1 1H23V23H1V1Z" fill="white"/>
</mask>
<g mask="url(#mask0_100_2015)">
<path fill-rule="evenodd" clip-rule="evenodd" d="M4.25262 22.1641C2.91793 22.1641 1.83594 21.0821 1.83594 19.7474C1.83594 18.7772 2.40759 17.9406 3.23242 17.556V6.44466C2.40759 6.06001 1.83594 5.22338 1.83594 4.25324C1.83594 2.91856 2.91793 1.83656 4.25262 1.83656C5.22248 1.83656 6.05892 2.40793 6.4437 3.23242H17.5556C17.9404 2.40793 18.7769 1.83656 19.7467 1.83656C21.0814 1.83656 22.1634 2.91856 22.1634 4.25324C22.1634 5.22312 21.5921 6.05956 20.7676 6.44435V17.5563C21.5921 17.9411 22.1634 18.7775 22.1634 19.7474C22.1634 21.0821 21.0814 22.1641 19.7467 22.1641C18.7766 22.1641 17.94 21.5924 17.5553 20.7676H6.444C6.05935 21.5924 5.22273 22.1641 4.25262 22.1641ZM17.3777 19.2676H6.62163C6.43032 18.3178 5.68216 17.5697 4.73242 17.3783V6.62229C5.68237 6.43093 6.43064 5.68247 6.62175 4.73242H17.3776C17.5687 5.68269 18.3173 6.43128 19.2676 6.62242V17.3782C18.3175 17.5693 17.5691 18.3176 17.3777 19.2676ZM3.33594 19.7474C3.33594 20.2536 3.74636 20.6641 4.25262 20.6641C4.75882 20.6641 5.16926 20.2536 5.16926 19.7474C5.16926 19.2411 4.75882 18.8307 4.25262 18.8307C3.74636 18.8307 3.33594 19.2411 3.33594 19.7474ZM4.25262 5.16992C3.74636 5.16992 3.33594 4.7595 3.33594 4.25324C3.33594 3.74699 3.74636 3.33656 4.25262 3.33656C4.75882 3.33656 5.16926 3.74697 5.16926 4.25324C5.16926 4.75951 4.75882 5.16992 4.25262 5.16992ZM19.7467 5.16992C19.2405 5.16992 18.8301 4.75951 18.8301 4.25324C18.8301 3.74697 19.2405 3.33656 19.7467 3.33656C20.253 3.33656 20.6634 3.74699 20.6634 4.25324C20.6634 4.7595 20.253 5.16992 19.7467 5.16992ZM18.8301 19.7474C18.8301 20.2536 19.2405 20.6641 19.7467 20.6641C20.253 20.6641 20.6634 20.2536 20.6634 19.7474C20.6634 19.2411 20.253 18.8307 19.7467 18.8307C19.2405 18.8307 18.8301 19.2411 18.8301 19.7474Z" fill="url(#paint1_linear_100_2015)"/>
</g>
<defs>
<linearGradient id="paint0_linear_100_2015" x1="16.9554" y1="7.38281" x2="6.78816" y2="7.74875" gradientUnits="userSpaceOnUse">
<stop stop-color="#5765F6"/>
<stop offset="1" stop-color="#30A9D9"/>
</linearGradient>
<linearGradient id="paint1_linear_100_2015" x1="22.3021" y1="22.1641" x2="1.16169" y2="21.4368" gradientUnits="userSpaceOnUse">
<stop stop-color="#5765F6"/>
<stop offset="1" stop-color="#30A9D9"/>
</linearGradient>
</defs>
</svg>
