<svg width="24" height="24" viewBox="0 0 24 24" fill="none" xmlns="http://www.w3.org/2000/svg">
<path d="M21.7886 6.34131C21.5592 6.2015 21.2966 6.12553 21.028 6.12123C20.7594 6.11694 20.4945 6.18449 20.2607 6.31689L16.5 9.02411V8C16.4992 7.3372 16.2356 6.70176 15.7669 6.23309C15.2982 5.76442 14.6628 5.50078 14 5.5H4C3.3372 5.50078 2.70176 5.76442 2.23309 6.23309C1.76442 6.70176 1.50078 7.3372 1.5 8V16C1.50078 16.6628 1.76442 17.2982 2.23309 17.7669C2.70176 18.2356 3.3372 18.4992 4 18.5H14C14.6628 18.4992 15.2982 18.2356 15.7669 17.7669C16.2356 17.2982 16.4992 16.6628 16.5 16V14.9742L20.3296 17.7231C20.5583 17.8373 20.8124 17.8912 21.0677 17.8796C21.3231 17.868 21.5712 17.7914 21.7887 17.657C22.0061 17.5226 22.1856 17.3348 22.31 17.1116C22.4345 16.8883 22.4999 16.637 22.5 16.3813V7.61719C22.5008 7.36135 22.4358 7.1096 22.3112 6.88616C22.1866 6.66271 22.0067 6.47508 21.7886 6.34131ZM15.5 16C15.4996 16.3977 15.3414 16.779 15.0602 17.0602C14.779 17.3414 14.3977 17.4996 14 17.5H4C3.60231 17.4996 3.22103 17.3414 2.93982 17.0602C2.65861 16.779 2.50043 16.3977 2.5 16V8C2.50043 7.60231 2.65861 7.22103 2.93982 6.93982C3.22103 6.65861 3.60231 6.50043 4 6.5H14C14.3977 6.50043 14.779 6.65861 15.0602 6.93982C15.3414 7.22103 15.4996 7.60231 15.5 8V16ZM21.5 16.3813C21.4986 16.4603 21.4791 16.5378 21.4431 16.608C21.4071 16.6782 21.3555 16.7393 21.2923 16.7865C21.229 16.8336 21.1558 16.8657 21.0782 16.8802C21.0006 16.8947 20.9208 16.8913 20.8447 16.8701L16.5 13.7437V10.2559L20.7764 7.16992C20.8526 7.13185 20.9373 7.11389 21.0224 7.11774C21.1076 7.1216 21.1903 7.14714 21.2628 7.19195C21.3353 7.23675 21.3951 7.29933 21.4366 7.37375C21.4782 7.44818 21.5 7.53197 21.5 7.61719V16.3813Z" fill="url(#paint0_linear_100_2042)" stroke="url(#paint1_linear_100_2042)" stroke-width="0.5"/>
<defs>
<linearGradient id="paint0_linear_100_2042" x1="22.6433" y1="5.5" x2="0.844913" y2="6.71132" gradientUnits="userSpaceOnUse">
<stop stop-color="#5765F6"/>
<stop offset="1" stop-color="#30A9D9"/>
</linearGradient>
<linearGradient id="paint1_linear_100_2042" x1="22.6433" y1="5.5" x2="0.844913" y2="6.71132" gradientUnits="userSpaceOnUse">
<stop stop-color="#5765F6"/>
<stop offset="1" stop-color="#30A9D9"/>
</linearGradient>
</defs>
</svg>
