<svg width="24" height="24" viewBox="0 0 24 24" fill="none" xmlns="http://www.w3.org/2000/svg">
<path d="M12.3633 16.203C13.6377 16.203 14.8325 15.7738 15.7087 14.951C16.5849 14.164 17.0628 13.1266 17.0229 12.0177V5.18531C17.0229 2.86013 14.9122 1 12.3633 1C9.77463 1 7.70368 2.8959 7.70368 5.18531V11.9819C7.66385 14.3071 9.77463 16.203 12.3633 16.203ZM9.05776 5.18531C9.05776 3.57557 10.5313 2.25201 12.3235 2.25201C14.1156 2.25201 15.5892 3.57557 15.5892 5.18531V12.0177C15.5892 12.8047 15.2706 13.5201 14.6732 14.0925C14.036 14.6648 13.1997 14.9868 12.3235 14.9868C10.5313 14.9868 9.05776 13.6632 9.05776 12.0535V5.18531Z" fill="#1C3048" stroke="#1C3048" stroke-width="0.2"/>
<path d="M20.6074 11.804C20.6074 11.4463 20.2888 11.1602 19.8905 11.1602C19.4923 11.1602 19.1737 11.4463 19.1737 11.804C19.1737 15.2024 16.1071 17.9568 12.2838 17.9568C8.50032 17.9568 5.43373 15.2024 5.43373 11.804C5.43373 11.4463 5.11512 11.1602 4.71687 11.1602C4.31861 11.1602 4 11.4463 4 11.804C4 15.6674 7.30555 18.8511 11.5271 19.173V21.7128H8.73928C8.34102 21.7128 8.02241 21.999 8.02241 22.3567C8.02241 22.7144 8.34102 23.0006 8.73928 23.0006H15.7088C16.1071 23.0006 16.4257 22.7144 16.4257 22.3567C16.4257 21.999 16.1071 21.7128 15.7088 21.7128H12.921V19.173C17.262 18.8869 20.6074 15.7032 20.6074 11.804Z" fill="#1C3048" stroke="#1C3048" stroke-width="0.2"/>
</svg>
