<svg width="22" height="22" viewBox="0 0 22 22" fill="none" xmlns="http://www.w3.org/2000/svg">
<path d="M18.0297 11.605V16.4455C18.0297 18.9574 15.9871 21 13.4752 21H5.55446C3.04257 21 1 18.9574 1 16.4455V8.52475C1 6.01287 3.04257 3.9703 5.55446 3.9703H10.3951C10.7238 3.9703 10.9891 4.23663 10.9891 4.56436C10.9891 4.89208 10.7228 5.15842 10.3951 5.15842H5.55446C3.69802 5.15842 2.18812 6.66832 2.18812 8.52475V16.4455C2.18812 18.302 3.69802 19.8119 5.55446 19.8119H13.4752C15.3317 19.8119 16.8416 18.302 16.8416 16.4455V11.605C16.8416 11.2762 17.1079 11.0109 17.4356 11.0109C17.7634 11.0109 18.0297 11.2772 18.0297 11.605ZM20.4059 3.9703H18.0297V1.59406C18.0297 1.26535 17.7634 1 17.4356 1C17.1079 1 16.8416 1.26634 16.8416 1.59406V3.9703H14.4653C14.1366 3.9703 13.8713 4.23663 13.8713 4.56436C13.8713 4.89208 14.1376 5.15842 14.4653 5.15842H16.8416V7.53465C16.8416 7.86337 17.1079 8.12871 17.4356 8.12871C17.7634 8.12871 18.0297 7.86238 18.0297 7.53465V5.15842H20.4059C20.7347 5.15842 21 4.89208 21 4.56436C21 4.23663 20.7337 3.9703 20.4059 3.9703Z" fill="#1C3048" stroke="#1C3048" stroke-width="0.4"/>
</svg>
