<svg width="16" height="24" viewBox="0 0 16 24" fill="none" xmlns="http://www.w3.org/2000/svg">
<path fill-rule="evenodd" clip-rule="evenodd" d="M7.56196 1.18145C7.77364 0.969758 8.10042 0.943299 8.34085 1.10206C8.37523 1.12474 8.40782 1.15121 8.43805 1.18145L12.8186 5.56197C13.0605 5.80388 13.0605 6.19615 12.8186 6.43806C12.5766 6.67998 12.1844 6.67998 11.9425 6.43806L8.6195 3.11509V12.7634C8.6195 13.1056 8.34215 13.3829 8 13.3829C7.65785 13.3829 7.38051 13.1056 7.38051 12.7634V3.11509L4.05755 6.43806C3.81562 6.67998 3.42337 6.67998 3.18145 6.43806C2.93952 6.19615 2.93952 5.80388 3.18145 5.56197L7.56196 1.18145Z" fill="#1C3048" stroke="#1C3048" stroke-width="0.5"/>
<path fill-rule="evenodd" clip-rule="evenodd" d="M7.56196 23.2014C7.77364 23.4131 8.10042 23.4395 8.34085 23.2807C8.37523 23.2581 8.40782 23.2316 8.43805 23.2014L12.8186 18.8208C13.0605 18.5789 13.0605 18.1867 12.8186 17.9448C12.5766 17.7028 12.1844 17.7028 11.9425 17.9448L8.6195 21.2677V11.6194C8.6195 11.2772 8.34215 10.9999 8 10.9999C7.65785 10.9999 7.38051 11.2772 7.38051 11.6194V21.2677L4.05755 17.9448C3.81562 17.7028 3.42337 17.7028 3.18145 17.9448C2.93952 18.1867 2.93952 18.5789 3.18145 18.8208L7.56196 23.2014Z" fill="#1C3048" stroke="#1C3048" stroke-width="0.5"/>
<rect y="11" width="16" height="2" rx="1" fill="#1C3048"/>
</svg>
