<svg width="16" height="17" viewBox="0 0 16 17" fill="none" xmlns="http://www.w3.org/2000/svg">
<path fill-rule="evenodd" clip-rule="evenodd" d="M7.52298 1.21967C7.77926 0.963387 8.17488 0.931354 8.46596 1.12356C8.50758 1.15102 8.54703 1.18306 8.58363 1.21967L13.887 6.523C14.1798 6.81588 14.1798 7.29078 13.887 7.58365C13.594 7.87653 13.1192 7.87653 12.8263 7.58365L8.80331 3.56066V15.2415C8.80331 15.6558 8.46753 15.9915 8.05331 15.9915C7.63908 15.9915 7.30331 15.6558 7.30331 15.2415V3.56066L3.28033 7.58365C2.98744 7.87653 2.51256 7.87653 2.21967 7.58365C1.92678 7.29078 1.92678 6.81588 2.21967 6.523L7.52298 1.21967Z" fill="#1C3048" stroke="#1C3048" stroke-width="0.5"/>
<rect y="14.5" width="16" height="2" rx="1" fill="#1C3048"/>
</svg>
