<svg width="16" height="17" viewBox="0 0 16 17" fill="none" xmlns="http://www.w3.org/2000/svg">
<path fill-rule="evenodd" clip-rule="evenodd" d="M7.52298 15.7803C7.77926 16.0366 8.17488 16.0686 8.46596 15.8764C8.50758 15.849 8.54703 15.8169 8.58363 15.7803L13.887 10.477C14.1798 10.1841 14.1798 9.70922 13.887 9.41635C13.594 9.12347 13.1192 9.12347 12.8263 9.41635L8.80331 13.4393V1.75847C8.80331 1.34425 8.46753 1.00847 8.05331 1.00847C7.63908 1.00847 7.30331 1.34425 7.30331 1.75847V13.4393L3.28033 9.41635C2.98744 9.12347 2.51256 9.12347 2.21967 9.41635C1.92678 9.70922 1.92678 10.1841 2.21967 10.477L7.52298 15.7803Z" fill="#1C3048" stroke="#1C3048" stroke-width="0.5"/>
<rect width="16" height="2" rx="1" transform="matrix(1 0 0 -1 0 2.5)" fill="#1C3048"/>
</svg>
