<svg width="18" height="16" viewBox="0 0 18 16" fill="none" xmlns="http://www.w3.org/2000/svg">
<path d="M6.80759 3.21328H14.0316L13.299 2.12459C13.2013 1.98057 13.1447 1.81265 13.1352 1.63887C13.1257 1.46508 13.1638 1.29201 13.2453 1.13823C13.3268 0.984447 13.4487 0.855778 13.5978 0.766043C13.7469 0.676308 13.9177 0.628898 14.0917 0.628906H14.0937C14.2503 0.628895 14.4048 0.6641 14.5459 0.731912C14.687 0.799725 14.811 0.898409 14.9088 1.02066L17.1629 3.83866C17.2338 3.92731 17.2725 4.03747 17.2725 4.151C17.2725 4.26453 17.2338 4.37469 17.1629 4.46334L14.9086 7.28116C14.8108 7.40341 14.6868 7.50211 14.5457 7.56993C14.4046 7.63776 14.25 7.67297 14.0935 7.67297H14.0917C13.9177 7.67297 13.7469 7.62556 13.5978 7.53583C13.4487 7.44609 13.3269 7.31743 13.2454 7.16366C13.1639 7.00989 13.1258 6.83683 13.1352 6.66305C13.1447 6.48928 13.2013 6.32136 13.299 6.17734L14.0318 5.08828H6.80759C5.69235 5.08828 4.62279 5.53131 3.8342 6.3199C3.04561 7.10849 2.60259 8.17805 2.60259 9.29328C2.60259 10.4085 3.04561 11.4781 3.8342 12.2667C4.62279 13.0553 5.69235 13.4983 6.80759 13.4983H8.85227C9.10091 13.4983 9.33937 13.5971 9.51519 13.7729C9.691 13.9487 9.78977 14.1871 9.78977 14.4358C9.78977 14.6844 9.691 14.9229 9.51519 15.0987C9.33937 15.2745 9.10091 15.3733 8.85227 15.3733H6.80759C5.19507 15.3733 3.6486 14.7327 2.50838 13.5925C1.36815 12.4523 0.727587 10.9058 0.727587 9.29328C0.727587 7.68077 1.36815 6.13429 2.50838 4.99407C3.6486 3.85385 5.19507 3.21328 6.80759 3.21328Z" fill="#1C3048"/>
</svg>
