<svg width="18" height="16" viewBox="0 0 18 16" fill="none" xmlns="http://www.w3.org/2000/svg">
<path d="M11.1924 3.21328H3.96835L4.70098 2.12459C4.79869 1.98057 4.85533 1.81265 4.86479 1.63887C4.87426 1.46508 4.83619 1.29201 4.75469 1.13823C4.67319 0.984447 4.55133 0.855778 4.40221 0.766043C4.25309 0.676308 4.08233 0.628898 3.90829 0.628906H3.90629C3.74974 0.628895 3.59519 0.6641 3.45409 0.731912C3.31299 0.799725 3.18896 0.898409 3.09116 1.02066L0.837102 3.83866C0.766178 3.92731 0.727539 4.03747 0.727539 4.151C0.727539 4.26453 0.766178 4.37469 0.837102 4.46334L3.09141 7.28116C3.1892 7.40341 3.31324 7.50211 3.45433 7.56993C3.59543 7.63776 3.74998 7.67297 3.90654 7.67297H3.90829C4.08232 7.67297 4.25306 7.62556 4.40218 7.53583C4.55129 7.44609 4.67314 7.31743 4.75464 7.16366C4.83614 7.00989 4.87421 6.83683 4.86475 6.66305C4.8553 6.48928 4.79868 6.32136 4.70098 6.17734L3.96816 5.08828H11.1924C12.3076 5.08828 13.3772 5.53131 14.1658 6.3199C14.9544 7.10849 15.3974 8.17805 15.3974 9.29328C15.3974 10.4085 14.9544 11.4781 14.1658 12.2667C13.3772 13.0553 12.3076 13.4983 11.1924 13.4983H9.14773C8.89909 13.4983 8.66063 13.5971 8.48481 13.7729C8.309 13.9487 8.21023 14.1871 8.21023 14.4358C8.21023 14.6844 8.309 14.9229 8.48481 15.0987C8.66063 15.2745 8.89909 15.3733 9.14773 15.3733H11.1924C12.8049 15.3733 14.3514 14.7327 15.4916 13.5925C16.6318 12.4523 17.2724 10.9058 17.2724 9.29328C17.2724 7.68077 16.6318 6.13429 15.4916 4.99407C14.3514 3.85385 12.8049 3.21328 11.1924 3.21328Z" fill="#1C3048"/>
</svg>
