<svg width="24" height="24" viewBox="0 0 24 24" fill="none" xmlns="http://www.w3.org/2000/svg">
<path fill-rule="evenodd" clip-rule="evenodd" d="M22.9992 10.0431C22.9992 8.64703 21.7396 7.51562 20.1852 7.51562H9.95264C8.39831 7.51562 7.13867 8.64703 7.13867 10.0431V19.2341C7.13867 20.6302 8.39831 21.7616 9.95264 21.7616H20.1852C21.7396 21.7616 22.9992 20.6302 22.9992 19.2341V10.0431ZM21.4643 10.0431V19.2341C21.4643 19.8683 20.8913 20.383 20.1852 20.383H9.95264C9.24659 20.383 8.67356 19.8683 8.67356 19.2341V10.0431C8.67356 9.40896 9.24659 8.89427 9.95264 8.89427H20.1852C20.8913 8.89427 21.4643 9.40896 21.4643 10.0431Z" fill="#1C3048"/>
<path fill-rule="evenodd" clip-rule="evenodd" d="M6.1163 13.5448L3.18057 16.1817C3.3842 16.2239 3.59601 16.246 3.81397 16.246H6.1163V13.5448ZM6.43658 8.66161L1 13.5448V13.7185C1 14.4023 1.30186 15.0227 1.79303 15.4776L6.1163 11.5944V10.0421C6.1163 9.5513 6.23091 9.08348 6.43658 8.66161ZM11.6818 2L1 11.5944V8.94929L8.73687 2H11.6818ZM6.56552 2H3.81397C2.25963 2 1 3.13141 1 4.52752V6.99897L6.56552 2ZM8.41659 6.88316C8.88627 6.69842 9.40711 6.59548 9.95353 6.59548H11.6818L16.0051 2.7123C15.4986 2.27113 14.8079 2 14.0466 2H13.8532L8.41659 6.88316ZM13.8532 6.59548H16.8605V4.52752C16.8605 4.33175 16.836 4.14149 16.7889 3.95859L13.8532 6.59548Z" fill="#1C3048"/>
</svg>
