<svg width="24" height="24" viewBox="0 0 24 24" fill="none" xmlns="http://www.w3.org/2000/svg">
<path d="M4.3 15.85C4.3 16.1538 4.54624 16.4 4.85 16.4H5.95C6.25376 16.4 6.5 16.1538 6.5 15.85C6.5 15.5462 6.25376 15.3 5.95 15.3H4.85C4.54624 15.3 4.3 15.5462 4.3 15.85ZM4.3 1.55C4.3 1.24624 4.54624 1 4.85 1H5.95C6.25376 1 6.5 1.24624 6.5 1.55C6.5 1.85376 6.25376 2.1 5.95 2.1H4.85C4.54624 2.1 4.3 1.85376 4.3 1.55ZM7.6 1.55C7.6 1.24624 7.84624 1 8.15 1H9.25C9.55376 1 9.8 1.24624 9.8 1.55C9.8 1.85376 9.55376 2.1 9.25 2.1H8.15C7.84624 2.1 7.6 1.85376 7.6 1.55ZM10.9 1.55C10.9 1.24624 11.1462 1 11.45 1H12.55C12.8538 1 13.1 1.24624 13.1 1.55C13.1 1.85376 12.8538 2.1 12.55 2.1H11.45C11.1462 2.1 10.9 1.85376 10.9 1.55ZM1 14.75C1 14.4462 1.24624 14.2 1.55 14.2C1.85376 14.2 2.1 14.4462 2.1 14.75C2.1 15.0538 2.34624 15.3 2.65 15.3C2.95376 15.3 3.2 15.5462 3.2 15.85C3.2 16.1538 2.95376 16.4 2.65 16.4H2C1.44772 16.4 1 15.9523 1 15.4V14.75ZM2.1 12.55C2.1 12.8538 1.85376 13.1 1.55 13.1C1.24624 13.1 1 12.8538 1 12.55V11.45C1 11.1462 1.24624 10.9 1.55 10.9C1.85376 10.9 2.1 11.1462 2.1 11.45V12.55ZM2.1 9.25C2.1 9.55376 1.85376 9.8 1.55 9.8C1.24624 9.8 1 9.55376 1 9.25V8.15C1 7.84624 1.24624 7.6 1.55 7.6C1.85376 7.6 2.1 7.84624 2.1 8.15V9.25ZM2.1 5.95C2.1 6.25376 1.85376 6.5 1.55 6.5C1.24624 6.5 1 6.25376 1 5.95V4.85C1 4.54624 1.24624 4.3 1.55 4.3C1.85376 4.3 2.1 4.54624 2.1 4.85V5.95ZM2.1 2.65C2.1 2.95376 1.85376 3.2 1.55 3.2C1.24624 3.2 1 2.95376 1 2.65V2C1 1.44771 1.44772 1 2 1H2.65C2.95376 1 3.2 1.24624 3.2 1.55C3.2 1.85376 2.95376 2.1 2.65 2.1C2.34624 2.1 2.1 2.34624 2.1 2.65ZM15.3 4.85C15.3 4.54624 15.5462 4.3 15.85 4.3C16.1538 4.3 16.4 4.54624 16.4 4.85V5.95C16.4 6.25376 16.1538 6.5 15.85 6.5C15.5462 6.5 15.3 6.25376 15.3 5.95V4.85ZM15.3 2.65C15.3 2.34624 15.0538 2.1 14.75 2.1C14.4462 2.1 14.2 1.85376 14.2 1.55C14.2 1.24624 14.4462 1 14.75 1H15.4C15.9523 1 16.4 1.44771 16.4 2V2.65C16.4 2.95376 16.1538 3.2 15.85 3.2C15.5462 3.2 15.3 2.95376 15.3 2.65ZM22 23C22.5523 23 23 22.5523 23 22V8.6C23 8.04772 22.5523 7.6 22 7.6H8.6C8.04772 7.6 7.6 8.04772 7.6 8.6V22C7.6 22.5523 8.04772 23 8.6 23H22ZM21.9 20.9C21.9 21.4523 21.4523 21.9 20.9 21.9H9.7C9.14771 21.9 8.7 21.4523 8.7 20.9V9.7C8.7 9.14771 9.14772 8.7 9.7 8.7H20.9C21.4523 8.7 21.9 9.14771 21.9 9.7V20.9Z" fill="#1C3048" stroke="#1C3048" stroke-width="0.5"/>
<path d="M16.6808 16.2789L16.6808 12.3088C16.679 12.2037 16.636 12.1034 16.561 12.0297C16.486 11.956 16.385 11.9147 16.2799 11.9147C16.1747 11.9147 16.0738 11.956 15.9988 12.0297C15.9238 12.1034 15.8807 12.2037 15.8789 12.3088L15.8789 15.3108L10.8919 10.3237C10.8166 10.2485 10.7146 10.2063 10.6083 10.2063C10.5019 10.2063 10.3999 10.2485 10.3247 10.3237C10.2495 10.399 10.2072 10.501 10.2072 10.6073C10.2072 10.7137 10.2495 10.8157 10.3247 10.8909L15.3117 15.8779L12.3097 15.8779C12.2565 15.877 12.2036 15.8867 12.1541 15.9064C12.1047 15.9262 12.0597 15.9555 12.0217 15.9929C11.9837 16.0302 11.9535 16.0747 11.9329 16.1238C11.9123 16.1729 11.9017 16.2257 11.9017 16.2789C11.9017 16.3322 11.9123 16.3849 11.9329 16.434C11.9535 16.4831 11.9837 16.5276 12.0217 16.5649C12.0597 16.6023 12.1047 16.6317 12.1541 16.6514C12.2036 16.6711 12.2565 16.6808 12.3097 16.6799H16.2799C16.3862 16.6799 16.4882 16.6376 16.5634 16.5624C16.6386 16.4872 16.6808 16.3853 16.6808 16.2789Z" fill="#1C3048" stroke="#1C3048" stroke-width="0.5"/>
</svg>
