<svg width="21" height="20" viewBox="0 0 21 20" fill="none" xmlns="http://www.w3.org/2000/svg">
<path d="M20 20H0.689655C0.506747 20 0.331331 19.9273 0.201995 19.798C0.0726599 19.6687 0 19.4933 0 19.3103C0 19.1274 0.0726599 18.952 0.201995 18.8227C0.331331 18.6933 0.506747 18.6207 0.689655 18.6207H20C20.1829 18.6207 20.3583 18.6933 20.4877 18.8227C20.617 18.952 20.6897 19.1274 20.6897 19.3103C20.6897 19.4933 20.617 19.6687 20.4877 19.798C20.3583 19.9273 20.1829 20 20 20Z" fill="#1C3048"/>
<path d="M17.2416 5.51805C17.7903 5.51805 18.3165 5.73603 18.7045 6.12403C19.0926 6.51204 19.3105 7.03829 19.3105 7.58702V15.1732C19.3105 15.7219 19.0926 16.2482 18.7045 16.6362C18.3165 17.0242 17.7903 17.2422 17.2416 17.2422H13.1036C12.5549 17.2422 12.0287 17.0242 11.6407 16.6362C11.2526 16.2482 11.0347 15.7219 11.0347 15.1732V7.58702C11.0347 7.03829 11.2526 6.51204 11.6407 6.12403C12.0287 5.73603 12.5549 5.51805 13.1036 5.51805H17.2416ZM12.414 7.58702V15.1732C12.414 15.3561 12.4866 15.5315 12.616 15.6609C12.7453 15.7902 12.9207 15.8629 13.1036 15.8629H17.2416C17.4245 15.8629 17.5999 15.7902 17.7292 15.6609C17.8586 15.5315 17.9312 15.3561 17.9312 15.1732V7.58702C17.9312 7.40411 17.8586 7.22869 17.7292 7.09935C17.5999 6.97002 17.4245 6.89736 17.2416 6.89736H13.1036C12.9207 6.89736 12.7453 6.97002 12.616 7.09935C12.4866 7.22869 12.414 7.40411 12.414 7.58702Z" fill="#1C3048"/>
<path d="M7.58629 17.2422H3.44836C2.89964 17.2422 2.37339 17.0242 1.98538 16.6362C1.59737 16.2482 1.37939 15.7219 1.37939 15.1732V2.06977C1.37939 1.52105 1.59737 0.994801 1.98538 0.606794C2.37339 0.218788 2.89964 0.000808716 3.44836 0.000808716H7.58629C8.13501 0.000808716 8.66126 0.218788 9.04927 0.606794C9.43728 0.994801 9.65526 1.52105 9.65526 2.06977V15.1732C9.65526 15.7219 9.43728 16.2482 9.04927 16.6362C8.66126 17.0242 8.13501 17.2422 7.58629 17.2422ZM8.27595 2.06977C8.27595 1.88687 8.20329 1.71145 8.07395 1.58211C7.94461 1.45278 7.7692 1.38012 7.58629 1.38012H3.44836C3.26545 1.38012 3.09004 1.45278 2.9607 1.58211C2.83136 1.71145 2.7587 1.88687 2.7587 2.06977V15.1732C2.7587 15.3561 2.83136 15.5315 2.9607 15.6609C3.09004 15.7902 3.26545 15.8629 3.44836 15.8629H7.58629C7.7692 15.8629 7.94461 15.7902 8.07395 15.6609C8.20329 15.5315 8.27595 15.3561 8.27595 15.1732V2.06977Z" fill="#1C3048"/>
</svg>
