<svg width="24" height="22" viewBox="0 0 24 22" fill="none" xmlns="http://www.w3.org/2000/svg">
<g clip-path="url(#clip0_1602_1168)">
<path d="M10.1499 6.12813C10.1499 6.95403 9.40451 7.62358 8.48501 7.62358H2.75477C1.83527 7.62358 1.08984 6.95403 1.08984 6.12813V2.47592C1.08984 1.65001 1.83527 0.980469 2.75477 0.980469H8.48496C9.40451 0.980469 10.1499 1.65001 10.1499 2.47592V6.12813Z" stroke="#1C3048" stroke-width="1.4" stroke-miterlimit="10" stroke-linecap="round" stroke-linejoin="round"/>
<path d="M22.9091 10.7783C22.9091 11.6042 22.1636 12.2738 21.2441 12.2738H15.329C14.4095 12.2738 13.6641 11.6042 13.6641 10.7783V2.47592C13.6641 1.65001 14.4095 0.980469 15.329 0.980469H21.2441C22.1636 0.980469 22.9091 1.65001 22.9091 2.47592V10.7783Z" stroke="#1C3048" stroke-width="1.4" stroke-miterlimit="10" stroke-linecap="round" stroke-linejoin="round"/>
<path d="M22.9091 19.0806C22.9091 19.9065 22.1636 20.5761 21.2441 20.5761H15.329C14.4095 20.5761 13.6641 19.9065 13.6641 19.0806V17.0892C13.6641 16.2633 14.4095 15.5938 15.329 15.5938H21.2441C22.1636 15.5938 22.9091 16.2633 22.9091 17.0892V19.0806Z" stroke="#1C3048" stroke-width="1.4" stroke-miterlimit="10" stroke-linecap="round" stroke-linejoin="round"/>
<path d="M10.1499 19.0844C10.1499 19.9103 9.40451 20.5798 8.48501 20.5798H2.75477C1.83527 20.5798 1.08984 19.9103 1.08984 19.0844V12.2767C1.08984 11.4508 1.83527 10.7812 2.75477 10.7812H8.48496C9.40451 10.7812 10.1499 11.4508 10.1499 12.2767V19.0844Z" stroke="#1C3048" stroke-width="1.4" stroke-miterlimit="10" stroke-linecap="round" stroke-linejoin="round"/>
</g>
<defs>
<clipPath id="clip0_1602_1168">
<rect width="24" height="21.5569" fill="white"/>
</clipPath>
</defs>
</svg>
