<svg width="40" height="40" viewBox="0 0 40 40" fill="none" xmlns="http://www.w3.org/2000/svg">
<g id="favorite" clip-path="url(#clip0_731_181)">
<g id="Group">
<path id="Vector" d="M30.5463 0.953129C30.3822 1.00782 30.1244 1.46875 29.1244 3.46875C28.1244 5.46875 27.8666 5.92188 27.7182 5.96094C27.6166 5.98438 26.4291 6.15625 25.0775 6.33594C22.7182 6.66407 22.6088 6.67969 22.4057 6.88282C21.9682 7.3125 21.9916 7.34375 24.1557 9.45313L26.1244 11.375L25.6791 13.9531C25.4291 15.3672 25.2338 16.6328 25.2338 16.7656C25.2338 17.0469 25.4213 17.2422 25.7494 17.3047C25.9369 17.3438 26.4057 17.125 28.3822 16.1016L30.7963 14.8516L33.1947 16.0938C34.515 16.7813 35.6713 17.3438 35.7728 17.3438C35.8666 17.3438 36.0541 17.2344 36.1869 17.1094C36.3666 16.9219 36.4057 16.8281 36.3744 16.6563C36.351 16.5391 36.1322 15.3047 35.89 13.9141L35.4447 11.375L37.4291 9.45313L39.4057 7.53125L39.3353 7.21875C39.2807 7.01563 39.1947 6.88282 39.0619 6.82032C38.9525 6.77344 37.6947 6.55469 36.2572 6.32813C34.8197 6.10938 33.6322 5.92188 33.6244 5.91407C33.6166 5.90625 33.1088 4.85938 32.4916 3.59375C31.8822 2.32813 31.3119 1.21094 31.226 1.125C31.0541 0.921879 30.8119 0.859379 30.5463 0.953129Z" fill="white"/>
<path id="Vector_2" d="M10.7184 2.96502C8.6012 3.34783 6.92933 4.87908 6.35901 6.95721C6.17151 7.61346 6.17151 9.12127 6.3512 9.85564C6.64026 11.051 7.31214 12.4025 8.04651 13.2775L8.37464 13.6681L8.34339 14.551C8.31995 15.3869 8.30433 15.4572 8.1012 15.7228C7.70276 16.2463 7.58558 16.2775 5.62464 16.3244C4.08558 16.3635 3.81214 16.3947 3.4137 16.5431C2.23401 16.9728 1.32776 17.8791 0.859012 19.0978C0.69495 19.5119 0.671512 19.7306 0.640262 20.9885C0.616825 22.1525 0.63245 22.4885 0.741825 22.8635C1.07776 24.0353 2.06214 24.9181 3.28089 25.1525C3.5387 25.1994 6.36683 25.2306 10.8356 25.2306C16.4762 25.2306 17.9762 25.2541 17.9996 25.3244C18.0153 25.3791 18.0621 25.6369 18.1168 25.8947C18.234 26.551 18.6871 27.4181 19.1793 27.9494C19.9059 28.7306 20.859 29.1916 21.9528 29.2853L22.5387 29.3322L22.5856 29.6447C22.609 29.8166 22.6871 30.0588 22.7496 30.1916C22.82 30.3166 24.7887 32.3322 27.1246 34.6603C30.0543 37.59 31.4528 38.9338 31.6559 39.0197C32.0543 39.1838 32.5465 39.1681 32.9215 38.9806C33.3668 38.7697 39.0934 33.0275 39.2575 32.6369C39.4215 32.2385 39.4059 31.676 39.2184 31.2931C38.9996 30.8322 30.7731 22.6291 30.3512 22.4416C30.0856 22.3244 29.7418 22.301 27.9528 22.2775L25.8668 22.2463L25.6637 21.9806C25.1559 21.3166 23.8981 20.676 22.8981 20.5744C22.4293 20.5197 22.4215 20.5197 22.4215 20.2775C22.4215 19.84 22.1871 19.0431 21.9059 18.5041C21.4215 17.59 20.5465 16.8244 19.57 16.4728C19.1637 16.3244 18.8746 16.2931 17.3825 16.2541C15.484 16.1994 15.3278 16.1603 14.984 15.6838C14.8278 15.4572 14.8043 15.3166 14.7809 14.551L14.7496 13.6681L15.07 13.3088C16.5465 11.6291 17.2809 9.04314 16.8043 7.19158C16.7106 6.83221 16.57 6.37127 16.4918 6.16814C16.1715 5.32439 14.984 4.00408 14.2262 3.66814C14.0309 3.57439 13.7809 3.45721 13.6715 3.39471C12.9684 3.02752 11.5465 2.81658 10.7184 2.96502ZM14.3121 8.01971L15.7731 8.55096L15.734 8.90252C15.5387 10.5119 14.6325 12.2385 13.4918 13.1838C12.7965 13.7541 12.3356 13.9416 11.5621 13.9416C10.9762 13.9416 10.8356 13.9103 10.3903 13.6994C9.7262 13.3869 9.08558 12.7853 8.56214 11.9963C8.19495 11.4416 7.73401 10.551 7.73401 10.3947C7.73401 10.3635 8.06214 10.3322 8.46058 10.3322C9.31995 10.3322 10.2418 10.051 10.9606 9.57439C11.5231 9.19939 12.2575 8.40252 12.4996 7.89471C12.609 7.67596 12.734 7.50408 12.7731 7.49627C12.82 7.49627 13.5075 7.73064 14.3121 8.01971ZM11.0778 15.1603C11.734 15.2697 12.4762 15.1681 13.1168 14.8713C13.3434 14.7697 13.5465 14.6838 13.5621 14.6838C13.5778 14.6838 13.5934 14.8869 13.5934 15.1291C13.5934 15.5744 13.8512 16.3166 14.0543 16.4338C14.2106 16.5353 14.1403 16.6291 13.734 16.8713C12.5543 17.551 11.1403 17.6135 9.8512 17.051C9.61683 16.9494 9.31214 16.801 9.17151 16.7072L8.9137 16.551L9.14026 16.1994C9.36683 15.84 9.53089 15.2697 9.53089 14.84V14.6135L10.0309 14.84C10.3121 14.965 10.7809 15.1135 11.0778 15.1603ZM23.6325 22.1056L24.1012 22.3166L23.7653 22.4103C23.3512 22.5275 22.9059 22.9103 22.7262 23.3166C22.5934 23.5978 22.5778 23.8713 22.5778 25.8478V28.0666L22.1325 28.0197C21.4215 27.9572 20.8356 27.6916 20.3121 27.2072C19.8121 26.7463 19.4137 26.0588 19.3278 25.4963L19.2809 25.176L19.7496 25.0822C21.2496 24.7853 22.4059 23.465 22.4215 22.0431V21.7853L22.7965 21.8322C22.9996 21.8635 23.3746 21.9806 23.6325 22.1056ZM28.6481 23.5822L29.8434 23.6291L34.0231 27.8088C36.32 30.1056 38.2028 32.0353 38.2028 32.1056C38.2028 32.2853 32.484 37.965 32.3043 37.965C32.2028 37.9728 30.7653 36.5744 27.9918 33.7697C24.07 29.8088 23.8278 29.551 23.8356 29.2931C23.8356 29.0353 23.859 29.0041 24.3746 28.7619C24.6637 28.6213 25.0778 28.3556 25.2887 28.1681C25.6403 27.8478 25.7028 27.8244 25.9918 27.8635C26.484 27.926 27.109 27.7072 27.4996 27.3322C28.7731 26.0978 28.0621 24.0666 26.2965 23.926C25.484 23.8556 24.7965 24.2619 24.4215 25.0119C24.109 25.6369 24.1559 26.4103 24.5465 26.965L24.695 27.176L24.2809 27.4572L23.8668 27.7306L23.82 26.7385C23.7887 26.1838 23.7653 25.3244 23.7575 24.8166C23.7496 23.9338 23.7575 23.8869 23.945 23.7072L24.1325 23.5119L25.7965 23.5197C26.7106 23.5275 27.9996 23.551 28.6481 23.5822ZM26.8746 25.8556C26.8746 26.0744 26.82 26.2228 26.6715 26.3791L26.4684 26.5978L26.5153 26.4025C26.5465 26.2931 26.6012 26.0431 26.6481 25.8322C26.7418 25.4025 26.8746 25.4181 26.8746 25.8556Z" fill="white"/>
<path id="Vector_3" d="M29.2023 28.8828C28.171 29.9063 27.3195 30.8281 27.2882 30.9297C27.2648 31.0313 27.2882 31.1953 27.3507 31.2969C27.4132 31.3906 28.4679 32.4609 29.7023 33.6641C31.7179 35.6406 31.9679 35.8594 32.2023 35.8594C32.4288 35.8594 32.6398 35.6797 34.2726 34.0391C35.9601 32.3594 36.0929 32.2031 36.0929 31.9531C36.0851 31.7031 35.9054 31.4922 33.8038 29.3516C31.8195 27.3359 31.4913 27.0234 31.2882 27.0313C31.0929 27.0313 30.7804 27.3125 29.2023 28.8828Z" fill="white"/>
</g>
</g>
<defs>
<clipPath id="clip0_731_181">
<rect width="40" height="40" fill="white"/>
</clipPath>
</defs>
</svg>
