<svg width="21" height="24" viewBox="0 0 21 24" fill="none" xmlns="http://www.w3.org/2000/svg">
<path d="M9.51934 23.0186L9.51934 22.2494L5.67319 22.2494C5.06115 22.2494 4.47418 22.0063 4.0414 21.5735C3.60863 21.1407 3.3655 20.5537 3.3655 19.9417L3.3655 15.3263C3.3655 14.7143 3.60863 14.1273 4.0414 13.6945C4.47418 13.2618 5.06115 13.0186 5.67319 13.0186L9.51934 13.0186L9.51934 11.4802L2.59627 11.4802C1.98423 11.4802 1.39726 11.237 0.964481 10.8043C0.531705 10.3715 0.288574 9.78451 0.288574 9.17248L0.288574 4.55709C0.288574 3.94505 0.531705 3.35808 0.964482 2.92531C1.39726 2.49253 1.98423 2.2494 2.59627 2.2494L9.51934 2.2494L9.51934 1.48017C9.51934 1.27616 9.60039 1.0805 9.74465 0.93624C9.8889 0.791982 10.0846 0.710938 10.2886 0.710938C10.4926 0.710938 10.6882 0.791982 10.8325 0.93624C10.9768 1.0805 11.0578 1.27616 11.0578 1.48017L11.0578 2.2494L17.9809 2.2494C18.5929 2.2494 19.1799 2.49253 19.6127 2.92531C20.0454 3.35808 20.2886 3.94505 20.2886 4.55709L20.2886 9.17248C20.2886 9.78452 20.0454 10.3715 19.6127 10.8043C19.1799 11.237 18.5929 11.4802 17.9809 11.4802L11.0578 11.4802L11.0578 13.0186L14.904 13.0186C15.516 13.0186 16.103 13.2618 16.5357 13.6945C16.9685 14.1273 17.2117 14.7143 17.2117 15.3263L17.2117 19.9417C17.2116 20.5537 16.9685 21.1407 16.5357 21.5735C16.103 22.0063 15.516 22.2494 14.904 22.2494L11.0578 22.2494L11.0578 23.0186C11.0578 23.2226 10.9768 23.4183 10.8325 23.5626C10.6882 23.7068 10.4926 23.7879 10.2886 23.7879C10.0846 23.7879 9.8889 23.7068 9.74465 23.5626C9.60039 23.4183 9.51934 23.2226 9.51934 23.0186ZM17.9809 9.94171C18.1849 9.94171 18.3806 9.86066 18.5248 9.7164C18.6691 9.57215 18.7501 9.37649 18.7501 9.17248L18.7501 4.55709C18.7501 4.35308 18.6691 4.15742 18.5248 4.01316C18.3806 3.86891 18.1849 3.78786 17.9809 3.78786L2.59627 3.78786C2.39225 3.78786 2.1966 3.8689 2.05234 4.01316C1.90808 4.15742 1.82704 4.35308 1.82704 4.55709L1.82704 9.17248C1.82704 9.37649 1.90808 9.57215 2.05234 9.7164C2.1966 9.86066 2.39225 9.94171 2.59627 9.94171L17.9809 9.94171ZM14.904 20.7109C15.108 20.7109 15.3036 20.6299 15.4479 20.4856C15.5921 20.3414 15.6732 20.1457 15.6732 19.9417L15.6732 15.3263C15.6732 15.1223 15.5921 14.9267 15.4479 14.7824C15.3036 14.6381 15.108 14.5571 14.904 14.5571L5.67319 14.5571C5.46918 14.5571 5.27352 14.6381 5.12926 14.7824C4.985 14.9267 4.90396 15.1223 4.90396 15.3263L4.90396 19.9417C4.90396 20.1457 4.985 20.3414 5.12926 20.4856C5.27352 20.6299 5.46918 20.7109 5.67319 20.7109L14.904 20.7109Z" fill="#1C3048"/>
</svg>
