<svg width="24" height="24" viewBox="0 0 24 24" fill="none" xmlns="http://www.w3.org/2000/svg">
<g id="add (6) 1">
<g id="Group 35980">
<path id="Vector" d="M5.73255 20C5.58768 20 5.44604 19.9571 5.32557 19.8766C5.2051 19.7961 5.11121 19.6817 5.05576 19.5479C5.00031 19.414 4.98581 19.2668 5.01408 19.1247C5.04235 18.9826 5.11213 18.852 5.21459 18.7496L18.7497 5.21455C18.887 5.07718 19.0733 5 19.2676 5C19.4619 5 19.6482 5.07718 19.7856 5.21455C19.923 5.35192 20.0001 5.53824 20.0001 5.73251C20.0001 5.92679 19.923 6.11311 19.7856 6.25048L6.25052 19.7855C6.18256 19.8536 6.10182 19.9076 6.01293 19.9444C5.92404 19.9813 5.82876 20.0001 5.73255 20Z" fill="#1C3048"/>
<path id="Vector_2" d="M19.2676 20C19.1714 20.0001 19.0761 19.9813 18.9872 19.9444C18.8983 19.9076 18.8176 19.8536 18.7496 19.7855L5.21455 6.25048C5.07718 6.11311 5 5.92679 5 5.73251C5 5.53824 5.07718 5.35192 5.21455 5.21455C5.35192 5.07718 5.53824 5 5.73251 5C5.92679 5 6.11311 5.07718 6.25048 5.21455L19.7855 18.7496C19.888 18.852 19.9578 18.9826 19.9861 19.1247C20.0143 19.2668 19.9998 19.414 19.9444 19.5479C19.8889 19.6817 19.795 19.7961 19.6746 19.8766C19.5541 19.9571 19.4125 20 19.2676 20Z" fill="#1C3048"/>
</g>
</g>
</svg>
