<svg width="24" height="24" viewBox="0 0 24 24" fill="none" xmlns="http://www.w3.org/2000/svg">
<path d="M4.91114 20.61H3.49401L4.49609 19.6079C5.03641 19.0676 5.37382 18.3649 5.46453 17.6025C4.05459 16.6772 3.02358 15.4599 2.47168 14.0639C1.92018 12.6689 1.85087 11.1333 2.27128 9.62294C2.77571 7.81071 3.95883 6.15893 5.60263 4.97182C7.38891 3.68186 9.61263 3 12.0334 3C15.083 3 17.6534 3.87616 19.4667 5.53369C21.1003 7.02698 22 9.04122 22 11.2054C22 12.2569 21.7859 13.2799 21.3637 14.2462C20.9268 15.2461 20.287 16.1364 19.4621 16.8924C17.6463 18.5564 15.0775 19.436 12.0334 19.436C10.9033 19.436 9.72412 19.2852 8.67132 19.0083C7.67478 20.0306 6.32441 20.61 4.91114 20.61ZM12.0334 4.174C7.17936 4.174 4.20087 7.06882 3.40228 9.93777C2.64763 12.6489 3.76007 15.2107 6.3781 16.7906L6.67062 16.9671L6.66162 17.3087C6.64378 17.9847 6.48262 18.6358 6.19417 19.2243C6.89658 18.9867 7.53394 18.5558 8.03305 17.9661L8.28123 17.6729L8.64928 17.783C9.68213 18.0919 10.884 18.262 12.0334 18.262C18.0745 18.262 20.826 14.6041 20.826 11.2054C20.826 9.37491 20.062 7.66838 18.6746 6.40022C17.0814 4.94383 14.7849 4.174 12.0334 4.174Z" fill="#1C3048" stroke="#1C3048" stroke-width="0.5"/>
</svg>
