<svg width="24" height="24" viewBox="0 0 24 24" fill="none" xmlns="http://www.w3.org/2000/svg">
<path d="M14.8786 6.32227H5.581C4.70858 6.32227 4 6.99542 4 7.82421V20.4974C4 21.3262 4.70858 21.9993 5.581 21.9993H14.8786C15.751 21.9993 16.4596 21.3262 16.4596 20.4974V7.82421C16.4555 6.99542 15.7469 6.32227 14.8786 6.32227ZM15.3496 20.4935C15.3496 20.7425 15.1366 20.9448 14.8745 20.9448H5.5769C5.31477 20.9448 5.10178 20.7425 5.10178 20.4935V7.82421C5.10178 7.57518 5.31477 7.37285 5.5769 7.37285H14.8745C15.1366 7.37285 15.3496 7.57518 15.3496 7.82421V20.4935Z" fill="#1C3048" stroke="#1C3048" stroke-width="0.4"/>
<path d="M18.4337 3H9.13617C8.26376 3 7.55518 3.67315 7.55518 4.50195C7.55518 4.79377 7.80093 5.02724 8.10811 5.02724C8.4153 5.02724 8.66105 4.79377 8.66105 4.50195C8.66105 4.25292 8.87404 4.05058 9.13617 4.05058H18.4337C18.6959 4.05058 18.9089 4.25292 18.9089 4.50195V17.1751C18.9089 17.4241 18.6959 17.6265 18.4337 17.6265C18.1265 17.6265 17.8808 17.8599 17.8808 18.1518C17.8808 18.4436 18.1265 18.677 18.4337 18.677C19.3061 18.677 20.0147 18.0039 20.0147 17.1751V4.50195C20.0147 3.67315 19.3061 3 18.4337 3Z" fill="#1C3048" stroke="#1C3048" stroke-width="0.4"/>
</svg>
