<svg width="19" height="20" viewBox="0 0 19 20" fill="none" xmlns="http://www.w3.org/2000/svg">
<path d="M1.25 0.250001C0.8345 0.249264 0.5 0.582876 0.5 0.995601V5.46487C0.5 5.87754 0.8345 6.209 1.25 6.209L18.125 6.25009C18.5405 6.25083 18.875 5.91869 18.875 5.50596V1.03678C18.875 0.624139 18.5405 0.291178 18.125 0.291178L16.2515 0.285469L16.25 2.10038L16.2515 3.9652C16.2515 4.3756 15.9157 4.70786 15.5015 4.70786C15.0873 4.70786 14.7515 4.3756 14.7515 3.9652C14.7515 3.5529 14.75 3.55213 14.75 3.55213C14.7501 3.16429 14.4339 2.85039 14.0424 2.85039H4.54147C3.75873 2.85039 3.12275 2.2212 3.1235 1.44561L3.1265 0.253288L1.25 0.250001Z" fill="#1C3048"/>
<path fill-rule="evenodd" clip-rule="evenodd" d="M17.8709 3V3.72459H18.0674C18.2295 3.72459 18.3547 3.86371 18.3547 4.04523V8.3842C18.3547 8.53836 18.2611 8.66784 18.1266 8.69916L9.74851 10.2655H9.74205C9.31143 10.3661 8.9999 10.7965 8.99988 11.2896V12H9.64629V11.2896C9.6463 11.1354 9.73964 11.0061 9.87437 10.9746L18.2512 9.40824H18.2577C18.6886 9.30793 18.9999 8.87725 18.9999 8.3842V4.04523C18.9999 3.47218 18.5787 3 18.0674 3H17.8709Z" fill="#1C3048"/>
<path d="M7.99988 13V14.125H10.9984V13H7.99988Z" fill="#1C3048"/>
<path d="M7.99988 14.875V18.25C7.99988 19.0808 8.66778 19.75 9.49842 19.75C10.3291 19.75 10.9984 19.0808 10.9984 18.25V14.875H7.99988Z" fill="#1C3048"/>
</svg>
