<svg width="24" height="25" viewBox="0 0 24 25" fill="none" xmlns="http://www.w3.org/2000/svg">
<path d="M6.21557 20.7428H20.8647C21.1525 20.7428 21.3879 20.5114 21.3879 20.2285V1.71352C21.3879 1.43066 21.1525 1.19922 20.8647 1.19922H6.21557C5.92782 1.19922 5.69238 1.43066 5.69238 1.71352V20.2285C5.69238 20.5114 5.92782 20.7428 6.21557 20.7428ZM6.73875 2.32783C6.73875 2.2726 6.78352 2.22783 6.83875 2.22783H20.2415C20.2967 2.22783 20.3415 2.2726 20.3415 2.32783V19.6142C20.3415 19.6694 20.2967 19.7142 20.2415 19.7142H6.83875C6.78352 19.7142 6.73875 19.6694 6.73875 19.6142V2.32783Z" fill="#1C3048" stroke="#1C3048" stroke-width="0.4"/>
<path d="M2.92309 24.0006H17.5722C17.86 24.0006 18.0954 23.7692 18.0954 23.4863C18.0954 23.2034 17.86 22.972 17.5722 22.972H3.54627C3.49104 22.972 3.44627 22.9272 3.44627 22.872V4.97134C3.44627 4.68847 3.21084 4.45703 2.92309 4.45703C2.63533 4.45703 2.3999 4.68847 2.3999 4.97134V23.4863C2.3999 23.7692 2.63533 24.0006 2.92309 24.0006Z" fill="#1C3048" stroke="#1C3048" stroke-width="0.4"/>
<path d="M15.6335 10.4557H14.1639C14.1087 10.4557 14.0639 10.4109 14.0639 10.3557V8.91274C14.0639 8.62987 13.8285 8.39844 13.5407 8.39844C13.253 8.39844 13.0175 8.62987 13.0175 8.91274V10.3557C13.0175 10.4109 12.9728 10.4557 12.9175 10.4557H11.448C11.1602 10.4557 10.9248 10.6871 10.9248 10.97C10.9248 11.2528 11.1602 11.4843 11.448 11.4843H12.9175C12.9728 11.4843 13.0175 11.529 13.0175 11.5843V13.0272C13.0175 13.31 13.253 13.5415 13.5407 13.5415C13.8285 13.5415 14.0639 13.31 14.0639 13.0272V11.5843C14.0639 11.529 14.1087 11.4843 14.1639 11.4843H15.6335C15.9212 11.4843 16.1566 11.2528 16.1566 10.97C16.1566 10.6871 15.9212 10.4557 15.6335 10.4557Z" fill="#1C3048" stroke="#1C3048" stroke-width="0.4"/>
</svg>
