<svg width="24" height="24" viewBox="0 0 24 24" fill="none" xmlns="http://www.w3.org/2000/svg">
<path d="M18.3338 6.73206L15.0971 9.96875H17.3125C17.744 9.96875 18.0938 10.3185 18.0938 10.75C18.0938 11.1815 17.744 11.5312 17.3125 11.5312H14.3828C13.3058 11.5312 12.4297 10.6551 12.4297 9.57812V6.64844C12.4297 6.21692 12.7794 5.86719 13.2109 5.86719C13.6425 5.86719 13.9922 6.21692 13.9922 6.64844V8.86386L17.2287 5.62732C17.5339 5.32214 18.0286 5.32214 18.3336 5.62732C18.6388 5.93234 18.6388 6.42703 18.3338 6.73206ZM10.8281 18.0156C11.2596 18.0156 11.6094 17.6659 11.6094 17.2344V14.3047C11.6094 13.2277 10.7332 12.3516 9.65625 12.3516H6.72656C6.29504 12.3516 5.94531 12.7013 5.94531 13.1328C5.94531 13.5643 6.29504 13.9141 6.72656 13.9141H8.94199L5.70529 17.1508C5.40027 17.4558 5.40027 17.9505 5.70529 18.2555C5.85788 18.4081 6.05792 18.4844 6.25781 18.4844C6.4577 18.4844 6.65775 18.4081 6.81033 18.2555L10.0469 15.019V17.2344C10.0469 17.6659 10.3966 18.0156 10.8281 18.0156ZM21.2188 15.75C21.6503 15.75 22 15.4003 22 14.9688V5.125C22 3.40182 20.5982 2 18.875 2H5.125C3.40182 2 2 3.40182 2 5.125V18.875C2 20.5982 3.40182 22 5.125 22H18.875C20.5982 22 22 20.5982 22 18.875C22 18.4435 21.6503 18.0938 21.2188 18.0938C20.7872 18.0938 20.4375 18.4435 20.4375 18.875C20.4375 19.7365 19.7365 20.4375 18.875 20.4375H5.125C4.26349 20.4375 3.5625 19.7365 3.5625 18.875V5.125C3.5625 4.26349 4.26349 3.5625 5.125 3.5625H18.875C19.7365 3.5625 20.4375 4.26349 20.4375 5.125V14.9688C20.4375 15.4003 20.7872 15.75 21.2188 15.75Z" fill="#1C3048"/>
</svg>
