<svg width="20" height="20" viewBox="0 0 20 20" fill="none" xmlns="http://www.w3.org/2000/svg">
<path d="M15.8334 5.83398C15.6124 5.83398 15.4004 5.92178 15.2441 6.07806C15.0878 6.23434 15 6.4463 15 6.66732V15.9932C14.9761 16.4146 14.7867 16.8094 14.473 17.0918C14.1592 17.3742 13.7466 17.5211 13.325 17.5007H6.67504C6.25345 17.5211 5.84086 17.3742 5.52713 17.0918C5.2134 16.8094 5.02395 16.4146 5.00004 15.9932V6.66732C5.00004 6.4463 4.91224 6.23434 4.75596 6.07806C4.59968 5.92178 4.38772 5.83398 4.16671 5.83398C3.94569 5.83398 3.73373 5.92178 3.57745 6.07806C3.42117 6.23434 3.33337 6.4463 3.33337 6.66732V15.9932C3.35716 16.8567 3.72219 17.6756 4.34852 18.2705C4.97486 18.8655 5.81143 19.1879 6.67504 19.1673H13.325C14.1886 19.1879 15.0252 18.8655 15.6516 18.2705C16.2779 17.6756 16.6429 16.8567 16.6667 15.9932V6.66732C16.6667 6.4463 16.5789 6.23434 16.4226 6.07806C16.2664 5.92178 16.0544 5.83398 15.8334 5.83398Z" fill="#1C3048" stroke="#1C3048" stroke-width="0.08"/>
<path d="M16.6667 3.33398H13.3333V1.66732C13.3333 1.4463 13.2455 1.23434 13.0893 1.07806C12.933 0.921782 12.721 0.833984 12.5 0.833984H7.5C7.27899 0.833984 7.06702 0.921782 6.91074 1.07806C6.75446 1.23434 6.66667 1.4463 6.66667 1.66732V3.33398H3.33333C3.11232 3.33398 2.90036 3.42178 2.74408 3.57806C2.5878 3.73434 2.5 3.9463 2.5 4.16732C2.5 4.38833 2.5878 4.60029 2.74408 4.75657C2.90036 4.91285 3.11232 5.00065 3.33333 5.00065H16.6667C16.8877 5.00065 17.0996 4.91285 17.2559 4.75657C17.4122 4.60029 17.5 4.38833 17.5 4.16732C17.5 3.9463 17.4122 3.73434 17.2559 3.57806C17.0996 3.42178 16.8877 3.33398 16.6667 3.33398ZM8.33333 3.33398V2.50065H11.6667V3.33398H8.33333Z" fill="#1C3048"/>
<path d="M9.16667 14.1667V8.33333C9.16667 8.11232 9.07887 7.90036 8.92259 7.74408C8.76631 7.5878 8.55435 7.5 8.33333 7.5C8.11232 7.5 7.90036 7.5878 7.74408 7.74408C7.5878 7.90036 7.5 8.11232 7.5 8.33333V14.1667C7.5 14.3877 7.5878 14.5996 7.74408 14.7559C7.90036 14.9122 8.11232 15 8.33333 15C8.55435 15 8.76631 14.9122 8.92259 14.7559C9.07887 14.5996 9.16667 14.3877 9.16667 14.1667Z" fill="#1C3048"/>
<path d="M12.5 14.1667V8.33333C12.5 8.11232 12.4122 7.90036 12.256 7.74408C12.0997 7.5878 11.8877 7.5 11.6667 7.5C11.4457 7.5 11.2337 7.5878 11.0775 7.74408C10.9212 7.90036 10.8334 8.11232 10.8334 8.33333V14.1667C10.8334 14.3877 10.9212 14.5996 11.0775 14.7559C11.2337 14.9122 11.4457 15 11.6667 15C11.8877 15 12.0997 14.9122 12.256 14.7559C12.4122 14.5996 12.5 14.3877 12.5 14.1667Z" fill="#1C3048"/>
</svg>
