<svg width="32" height="32" viewBox="0 0 32 32" fill="none" xmlns="http://www.w3.org/2000/svg">
<circle opacity="0.4" cx="16" cy="16" r="16" fill="black"/>
<g clip-path="url(#clip0_1123_72)">
<path d="M9.68677 23.0625C9.55095 23.0625 9.41817 23.0223 9.30523 22.9468C9.19228 22.8714 9.10426 22.7641 9.05227 22.6386C9.00029 22.5132 8.9867 22.3751 9.0132 22.2419C9.03971 22.1087 9.10512 21.9863 9.20118 21.8903L21.8903 9.20114C22.0191 9.07235 22.1938 9 22.3759 9C22.558 9 22.7327 9.07235 22.8615 9.20114C22.9903 9.32993 23.0626 9.5046 23.0626 9.68673C23.0626 9.86886 22.9903 10.0435 22.8615 10.1723L10.1724 22.8615C10.1087 22.9253 10.033 22.9759 9.94962 23.0104C9.86629 23.0449 9.77696 23.0626 9.68677 23.0625Z" fill="white" stroke="white" stroke-width="0.5"/>
<path d="M22.3759 23.0625C22.2857 23.0626 22.1963 23.0449 22.113 23.0104C22.0297 22.9759 21.954 22.9253 21.8903 22.8615L9.20114 10.1723C9.07235 10.0435 9 9.86886 9 9.68673C9 9.5046 9.07235 9.32993 9.20114 9.20114C9.32993 9.07235 9.5046 9 9.68673 9C9.86886 9 10.0435 9.07235 10.1723 9.20114L22.8615 21.8903C22.9575 21.9863 23.0229 22.1087 23.0494 22.2419C23.0759 22.3751 23.0623 22.5132 23.0104 22.6386C22.9584 22.7641 22.8703 22.8714 22.7574 22.9468C22.6445 23.0223 22.5117 23.0625 22.3759 23.0625Z" fill="white" stroke="white" stroke-width="0.5"/>
</g>
<defs>
<clipPath id="clip0_1123_72">
<rect width="15" height="15" fill="white" transform="translate(9 9)"/>
</clipPath>
</defs>
</svg>
