<svg width="24" height="24" viewBox="0 0 24 24" fill="none" xmlns="http://www.w3.org/2000/svg">
<path d="M14.7778 2.15457C14.6861 2.05798 14.5603 2 14.43 2H6.62803C5.18836 2 4 3.18363 4 4.62314V19.3767C4 20.8164 5.18836 22 6.62803 22H17.2173C18.657 22 19.8454 20.8164 19.8454 19.3767V7.66178C19.8454 7.5362 19.7874 7.41551 19.7053 7.32365L14.7778 2.15457ZM14.9178 3.70533L18.2174 7.16908H16.0725C15.4348 7.16908 14.9178 6.65699 14.9178 6.01933V3.70533ZM17.2173 21.0338H6.62803C5.7247 21.0338 4.96619 20.2851 4.96619 19.3767V4.62314C4.96619 3.71982 5.71982 2.96619 6.62803 2.96619H13.9516V6.01933C13.9516 7.19319 14.8986 8.13527 16.0725 8.13527H18.8792V19.3767C18.8792 20.2851 18.1255 21.0338 17.2173 21.0338Z" fill="#1C3048" stroke="#1C3048" stroke-width="0.5"/>
<path d="M15.8986 17.7012H7.94696C7.68131 17.7012 7.46387 17.9185 7.46387 18.1843C7.46387 18.4499 7.68131 18.6674 7.94696 18.6674H15.9035C16.1692 18.6674 16.3866 18.4499 16.3866 18.1843C16.3866 17.9185 16.1692 17.7012 15.8986 17.7012Z" fill="#1C3048" stroke="#1C3048" stroke-width="0.5"/>
<path d="M11.5699 15.9664C11.6618 16.0629 11.7874 16.1209 11.9226 16.1209C12.0579 16.1209 12.1835 16.0629 12.2752 15.9664L15.1062 12.9277C15.2897 12.7344 15.2752 12.4252 15.0821 12.2466C14.8887 12.063 14.5796 12.0773 14.4009 12.2707L12.4057 14.4107V9.13544C12.4057 8.86963 12.1882 8.65234 11.9226 8.65234C11.6569 8.65234 11.4395 8.86963 11.4395 9.13544V14.4107L9.44911 12.2707C9.26555 12.0775 8.96114 12.063 8.76796 12.2466C8.57478 12.4301 8.56029 12.7345 8.74385 12.9277L11.5699 15.9664Z" fill="#1C3048" stroke="#1C3048" stroke-width="0.5"/>
</svg>
