<svg width="20" height="20" viewBox="0 0 20 20" fill="none" xmlns="http://www.w3.org/2000/svg">
<path d="M13.0769 19.9999H2.30769C1.69565 19.9999 1.10868 19.7567 0.675907 19.3239C0.243131 18.8912 0 18.3042 0 17.6922V6.92293C0 6.31089 0.243131 5.72392 0.675907 5.29114C1.10868 4.85837 1.69565 4.61523 2.30769 4.61523H13.0769C13.689 4.61523 14.2759 4.85837 14.7087 5.29114C15.1415 5.72392 15.3846 6.31089 15.3846 6.92293V17.6922C15.3846 18.3042 15.1415 18.8912 14.7087 19.3239C14.2759 19.7567 13.689 19.9999 13.0769 19.9999ZM2.30769 6.1537C2.10368 6.1537 1.90802 6.23474 1.76376 6.379C1.61951 6.52326 1.53846 6.71891 1.53846 6.92293V17.6922C1.53846 17.8962 1.61951 18.0918 1.76376 18.2361C1.90802 18.3803 2.10368 18.4614 2.30769 18.4614H13.0769C13.2809 18.4614 13.4766 18.3803 13.6209 18.2361C13.7651 18.0918 13.8462 17.8962 13.8462 17.6922V6.92293C13.8462 6.71891 13.7651 6.52326 13.6209 6.379C13.4766 6.23474 13.2809 6.1537 13.0769 6.1537H2.30769Z" fill="#1C3048"/>
<path d="M5.38459 3.84615C5.18057 3.84615 4.98492 3.76511 4.84066 3.62085C4.6964 3.47659 4.61536 3.28094 4.61536 3.07692V2.30769C4.61536 1.69565 4.85849 1.10868 5.29126 0.675907C5.72404 0.243131 6.31101 0 6.92305 0H7.69228C7.89629 0 8.09195 0.0810437 8.23621 0.225302C8.38047 0.369561 8.46151 0.565218 8.46151 0.769231C8.46151 0.973243 8.38047 1.1689 8.23621 1.31316C8.09195 1.45742 7.89629 1.53846 7.69228 1.53846H6.92305C6.71904 1.53846 6.52338 1.61951 6.37912 1.76376C6.23486 1.90802 6.15382 2.10368 6.15382 2.30769V3.07692C6.15382 3.28094 6.07277 3.47659 5.92852 3.62085C5.78426 3.76511 5.5886 3.84615 5.38459 3.84615Z" fill="#1C3048"/>
<path d="M17.6923 15.3852H16.923C16.719 15.3852 16.5234 15.3042 16.3791 15.1599C16.2349 15.0157 16.1538 14.82 16.1538 14.616C16.1538 14.412 16.2349 14.2163 16.3791 14.0721C16.5234 13.9278 16.719 13.8468 16.923 13.8468H17.6923C17.8963 13.8468 18.0919 13.7657 18.2362 13.6215C18.3805 13.4772 18.4615 13.2815 18.4615 13.0775V12.3083C18.4615 12.1043 18.5425 11.9086 18.6868 11.7644C18.8311 11.6201 19.0267 11.5391 19.2307 11.5391C19.4347 11.5391 19.6304 11.6201 19.7747 11.7644C19.9189 11.9086 20 12.1043 20 12.3083V13.0775C20 13.6896 19.7568 14.2765 19.3241 14.7093C18.8913 15.1421 18.3043 15.3852 17.6923 15.3852Z" fill="#1C3048"/>
<path d="M19.2307 3.84615C19.0267 3.84615 18.8311 3.76511 18.6868 3.62085C18.5425 3.47659 18.4615 3.28094 18.4615 3.07692V2.30769C18.4615 2.10368 18.3805 1.90802 18.2362 1.76376C18.0919 1.61951 17.8963 1.53846 17.6923 1.53846H16.923C16.719 1.53846 16.5234 1.45742 16.3791 1.31316C16.2349 1.1689 16.1538 0.973243 16.1538 0.769231C16.1538 0.565218 16.2349 0.369561 16.3791 0.225302C16.5234 0.0810437 16.719 0 16.923 0H17.6923C18.3043 0 18.8913 0.243131 19.3241 0.675907C19.7568 1.10868 20 1.69565 20 2.30769V3.07692C20 3.28094 19.9189 3.47659 19.7747 3.62085C19.6304 3.76511 19.4347 3.84615 19.2307 3.84615Z" fill="#1C3048"/>
<path d="M19.2308 10.0002C19.0268 10.0002 18.8311 9.91911 18.6868 9.77485C18.5426 9.63059 18.4615 9.43493 18.4615 9.23092V6.154C18.4615 5.94998 18.5426 5.75433 18.6868 5.61007C18.8311 5.46581 19.0268 5.38477 19.2308 5.38477C19.4348 5.38477 19.6304 5.46581 19.7747 5.61007C19.919 5.75433 20 5.94998 20 6.154V9.23092C20 9.43493 19.919 9.63059 19.7747 9.77485C19.6304 9.91911 19.4348 10.0002 19.2308 10.0002Z" fill="#1C3048"/>
<path d="M13.8462 1.53846H10.7692C10.5652 1.53846 10.3696 1.45742 10.2253 1.31316C10.081 1.1689 10 0.973243 10 0.769231C10 0.565218 10.081 0.369561 10.2253 0.225302C10.3696 0.0810437 10.5652 0 10.7692 0H13.8462C14.0502 0 14.2458 0.0810437 14.3901 0.225302C14.5343 0.369561 14.6154 0.565218 14.6154 0.769231C14.6154 0.973243 14.5343 1.1689 14.3901 1.31316C14.2458 1.45742 14.0502 1.53846 13.8462 1.53846Z" fill="#1C3048"/>
<path d="M9.99997 13.0775H5.38459C5.18057 13.0775 4.98492 12.9965 4.84066 12.8522C4.6964 12.708 4.61536 12.5123 4.61536 12.3083C4.61536 12.1043 4.6964 11.9086 4.84066 11.7644C4.98492 11.6201 5.18057 11.5391 5.38459 11.5391H9.99997C10.204 11.5391 10.3996 11.6201 10.5439 11.7644C10.6882 11.9086 10.7692 12.1043 10.7692 12.3083C10.7692 12.5123 10.6882 12.708 10.5439 12.8522C10.3996 12.9965 10.204 13.0775 9.99997 13.0775Z" fill="#1C3048"/>
<path d="M7.69233 15.3843C7.48831 15.3843 7.29266 15.3033 7.1484 15.159C7.00414 15.0148 6.9231 14.8191 6.9231 14.6151V9.9997C6.9231 9.79569 7.00414 9.60003 7.1484 9.45577C7.29266 9.31151 7.48831 9.23047 7.69233 9.23047C7.89634 9.23047 8.092 9.31151 8.23625 9.45577C8.38051 9.60003 8.46156 9.79569 8.46156 9.9997V14.6151C8.46156 14.8191 8.38051 15.0148 8.23625 15.159C8.092 15.3033 7.89634 15.3843 7.69233 15.3843Z" fill="#1C3048"/>
</svg>
