<svg width="17" height="17" viewBox="0 0 17 17" fill="none" xmlns="http://www.w3.org/2000/svg">
<mask id="mask0_1_62407" style="mask-type:luminance" maskUnits="userSpaceOnUse" x="0" y="0" width="17" height="17">
<path d="M1 1H16V16H1V1Z" fill="white" stroke="white" stroke-width="0.3"/>
</mask>
<g mask="url(#mask0_1_62407)">
<mask id="mask1_1_62407" style="mask-type:luminance" maskUnits="userSpaceOnUse" x="0" y="0" width="17" height="17">
<path d="M1.59976 13.7659L1.36643 15.0992C1.29981 15.4659 1.54977 15.6992 1.89982 15.6326L3.23318 15.3993M10.3165 5.09929C10.4832 4.93257 10.7498 4.93257 10.9165 5.09929C11.0832 5.266 11.0832 5.53259 10.9165 5.69929L5.49985 11.1326C5.33314 11.2993 5.06655 11.2993 4.89985 11.1326C4.73314 10.9659 4.73314 10.6993 4.89985 10.5326L10.3165 5.09929ZM5.31652 14.716L5.44987 14.166L1.69987 15.316C1.6665 15.3327 1.63325 15.3327 1.61651 15.3327C1.61651 15.3327 1.63313 15.3327 1.64987 15.3493C1.6665 15.366 1.6665 15.3827 1.6665 15.3827C1.6665 15.3661 1.6665 15.3327 1.68312 15.2994L2.83327 11.5494L2.28327 11.6827L5.31652 14.716ZM2.19985 11.3493L1.04982 15.0993C0.866482 15.6993 1.29977 16.1493 1.89979 15.9493L5.64979 14.7992L5.78314 14.2492L2.74981 11.2159L2.19985 11.3493ZM13.8999 6.13262V5.66595L5.46652 14.0993H5.93319L2.89985 11.066V11.5326L11.3332 3.09929H10.8665L13.8999 6.13262ZM11.0998 2.39929L2.19979 11.2993L5.69979 14.7993L14.5998 5.89929L11.0998 2.39929ZM14.3665 5.66595L11.3331 2.63262V3.09929L12.6665 1.76592C12.7998 1.63257 12.9998 1.63257 13.1332 1.76592L15.2165 3.84926C15.3498 3.9826 15.3498 4.19932 15.2165 4.31592L13.8831 5.64929H14.3665L14.3665 5.66595ZM15.6998 4.79926C16.0831 4.41595 16.0831 3.76595 15.6998 3.38253L13.6165 1.2992C13.2332 0.915893 12.5832 0.915893 12.1998 1.2992L10.6331 2.86589L14.1331 6.36589L15.6998 4.79926Z" fill="white"/>
<path d="M1.59976 13.7659L1.36643 15.0992C1.29981 15.4659 1.54977 15.6992 1.89982 15.6326L3.23318 15.3993M10.3165 5.09929C10.4832 4.93257 10.7498 4.93257 10.9165 5.09929C11.0832 5.266 11.0832 5.53259 10.9165 5.69929L5.49985 11.1326C5.33314 11.2993 5.06655 11.2993 4.89985 11.1326C4.73314 10.9659 4.73314 10.6993 4.89985 10.5326L10.3165 5.09929ZM5.31652 14.716L5.44987 14.166L1.69987 15.316C1.6665 15.3327 1.63325 15.3327 1.61651 15.3327C1.61651 15.3327 1.63313 15.3327 1.64987 15.3493C1.6665 15.366 1.6665 15.3827 1.6665 15.3827C1.6665 15.3661 1.6665 15.3327 1.68312 15.2994L2.83327 11.5494L2.28327 11.6827L5.31652 14.716ZM2.19985 11.3493L1.04982 15.0993C0.866482 15.6993 1.29977 16.1493 1.89979 15.9493L5.64979 14.7992L5.78314 14.2492L2.74981 11.2159L2.19985 11.3493ZM13.8999 6.13262V5.66595L5.46652 14.0993H5.93318L2.89985 11.066V11.5326L11.3332 3.09929H10.8665L13.8999 6.13262ZM11.0998 2.39929L2.19979 11.2993L5.69979 14.7993L14.5998 5.89929L11.0998 2.39929ZM14.3665 5.66595L11.3331 2.63262V3.09929L12.6665 1.76592C12.7998 1.63257 12.9998 1.63257 13.1332 1.76592L15.2165 3.84926C15.3498 3.9826 15.3498 4.19932 15.2165 4.31592L13.8831 5.64929H14.3665L14.3665 5.66595ZM15.6998 4.79926C16.0831 4.41595 16.0831 3.76595 15.6998 3.38253L13.6165 1.2992C13.2332 0.915893 12.5832 0.915893 12.1998 1.2992L10.6331 2.86589L14.1331 6.36589L15.6998 4.79926Z" stroke="white" stroke-width="0.3"/>
</mask>
<g mask="url(#mask1_1_62407)">
<path d="M0.166504 0.164062H16.8332V16.8307H0.166504V0.164062Z" fill="#1C3048" stroke="#1C3048" stroke-width="0.3"/>
</g>
</g>
</svg>
