<svg width="20" height="19" viewBox="0 0 20 19" fill="none" xmlns="http://www.w3.org/2000/svg">
<path d="M18.4365 6.45778L13.5447 1.56601C13.3656 1.38658 13.1528 1.24423 12.9185 1.14711C12.6843 1.04999 12.4332 1 12.1796 1C11.9261 1 11.675 1.04999 11.4407 1.14711C11.2065 1.24423 10.9937 1.38658 10.8145 1.56601L1.56601 10.787C1.38658 10.9662 1.24423 11.179 1.14711 11.4132C1.04999 11.6475 1 11.8985 1 12.1521C1 12.4057 1.04999 12.6568 1.14711 12.891C1.24423 13.1253 1.38658 13.338 1.56601 13.5172L5.54058 17.4918H3.17724C3.05561 17.4918 2.93896 17.5401 2.85296 17.6261C2.76695 17.7121 2.71864 17.8288 2.71864 17.9504C2.71864 18.072 2.76695 18.1887 2.85296 18.2747C2.93896 18.3607 3.05561 18.409 3.17724 18.409H17.4582C17.5798 18.409 17.6964 18.3607 17.7824 18.2747C17.8684 18.1887 17.9168 18.072 17.9168 17.9504C17.9168 17.8288 17.8684 17.7121 17.7824 17.6261C17.6964 17.5401 17.5798 17.4918 17.4582 17.4918H10.1388L18.4365 9.18801C18.7974 8.82534 19 8.33453 19 7.8229C19 7.31126 18.7974 6.82045 18.4365 6.45778ZM8.84252 17.4857H6.82773L2.21417 12.8691C2.02504 12.6784 1.91892 12.4207 1.91892 12.1521C1.91892 11.8835 2.02504 11.6258 2.21417 11.4352L6.49447 7.15486L12.8477 13.4805L8.84252 17.4857Z" fill="url(#paint0_linear_3_83337)" stroke="url(#paint1_linear_3_83337)" stroke-width="0.5"/>
<defs>
<linearGradient id="paint0_linear_3_83337" x1="19.1228" y1="1" x2="0.404481" y2="1.66577" gradientUnits="userSpaceOnUse">
<stop stop-color="#5961F8"/>
<stop offset="1" stop-color="#15D8C5"/>
<stop offset="1" stop-color="#15D8C5"/>
</linearGradient>
<linearGradient id="paint1_linear_3_83337" x1="19.1228" y1="1" x2="0.404481" y2="1.66577" gradientUnits="userSpaceOnUse">
<stop stop-color="#5961F8"/>
<stop offset="1" stop-color="#15D8C5"/>
<stop offset="1" stop-color="#15D8C5"/>
</linearGradient>
</defs>
</svg>
