<svg width="24" height="24" viewBox="0 0 24 24" fill="none" xmlns="http://www.w3.org/2000/svg">
<path d="M20.768 20.6486L15.3649 15.2455C16.4115 13.9527 17.0417 12.31 17.0417 10.5208C17.0417 6.3741 13.6676 3 9.52081 3C5.37406 3 2 6.37406 2 10.5208C2 14.6676 5.3741 18.0417 9.52085 18.0417C11.31 18.0417 12.9527 17.4115 14.2455 16.3649L19.6486 21.768C19.803 21.9224 20.0057 22 20.2083 22C20.411 22 20.6137 21.9224 20.7681 21.768C21.0776 21.4585 21.0776 20.9582 20.768 20.6486ZM9.52085 16.4583C6.2465 16.4583 3.58335 13.7952 3.58335 10.5208C3.58335 7.24646 6.2465 4.58331 9.52085 4.58331C12.7952 4.58331 15.4583 7.24646 15.4583 10.5208C15.4583 13.7952 12.7952 16.4583 9.52085 16.4583Z" fill="#1C3048" stroke="#1C3048" stroke-width="0.2"/>
</svg>
