<svg width="24" height="24" viewBox="0 0 24 24" fill="none" xmlns="http://www.w3.org/2000/svg">
<path d="M19.7 8.15C19.7 7.84624 19.4538 7.6 19.15 7.6H18.05C17.7462 7.6 17.5 7.84624 17.5 8.15C17.5 8.45376 17.7462 8.7 18.05 8.7H19.15C19.4538 8.7 19.7 8.45376 19.7 8.15ZM19.7 22.45C19.7 22.7538 19.4538 23 19.15 23H18.05C17.7462 23 17.5 22.7538 17.5 22.45C17.5 22.1462 17.7462 21.9 18.05 21.9H19.15C19.4538 21.9 19.7 22.1462 19.7 22.45ZM16.4 22.45C16.4 22.7538 16.1538 23 15.85 23H14.75C14.4462 23 14.2 22.7538 14.2 22.45C14.2 22.1462 14.4462 21.9 14.75 21.9H15.85C16.1538 21.9 16.4 22.1462 16.4 22.45ZM13.1 22.45C13.1 22.7538 12.8538 23 12.55 23H11.45C11.1462 23 10.9 22.7538 10.9 22.45C10.9 22.1462 11.1462 21.9 11.45 21.9H12.55C12.8538 21.9 13.1 22.1462 13.1 22.45ZM23 9.25C23 9.55376 22.7538 9.8 22.45 9.8C22.1462 9.8 21.9 9.55376 21.9 9.25C21.9 8.94624 21.6538 8.7 21.35 8.7C21.0462 8.7 20.8 8.45376 20.8 8.15C20.8 7.84624 21.0462 7.6 21.35 7.6H22C22.5523 7.6 23 8.04772 23 8.6V9.25ZM21.9 11.45C21.9 11.1462 22.1462 10.9 22.45 10.9C22.7538 10.9 23 11.1462 23 11.45V12.55C23 12.8538 22.7538 13.1 22.45 13.1C22.1462 13.1 21.9 12.8538 21.9 12.55V11.45ZM21.9 14.75C21.9 14.4462 22.1462 14.2 22.45 14.2C22.7538 14.2 23 14.4462 23 14.75V15.85C23 16.1538 22.7538 16.4 22.45 16.4C22.1462 16.4 21.9 16.1538 21.9 15.85V14.75ZM21.9 18.05C21.9 17.7462 22.1462 17.5 22.45 17.5C22.7538 17.5 23 17.7462 23 18.05V19.15C23 19.4538 22.7538 19.7 22.45 19.7C22.1462 19.7 21.9 19.4538 21.9 19.15V18.05ZM21.9 21.35C21.9 21.0462 22.1462 20.8 22.45 20.8C22.7538 20.8 23 21.0462 23 21.35V22C23 22.5523 22.5523 23 22 23H21.35C21.0462 23 20.8 22.7538 20.8 22.45C20.8 22.1462 21.0462 21.9 21.35 21.9C21.6538 21.9 21.9 21.6538 21.9 21.35ZM8.7 19.15C8.7 19.4538 8.45376 19.7 8.15 19.7C7.84624 19.7 7.6 19.4538 7.6 19.15V18.05C7.6 17.7462 7.84624 17.5 8.15 17.5C8.45376 17.5 8.7 17.7462 8.7 18.05V19.15ZM8.7 21.35C8.7 21.6538 8.94624 21.9 9.25 21.9C9.55376 21.9 9.8 22.1462 9.8 22.45C9.8 22.7538 9.55376 23 9.25 23H8.6C8.04771 23 7.6 22.5523 7.6 22V21.35C7.6 21.0462 7.84624 20.8 8.15 20.8C8.45376 20.8 8.7 21.0462 8.7 21.35ZM2 1C1.44772 1 1 1.44772 1 2V15.4C1 15.9523 1.44771 16.4 2 16.4H15.4C15.9523 16.4 16.4 15.9523 16.4 15.4V2C16.4 1.44772 15.9523 1 15.4 1H2ZM2.1 3.1C2.1 2.54771 2.54771 2.1 3.1 2.1H14.3C14.8523 2.1 15.3 2.54772 15.3 3.1V14.3C15.3 14.8523 14.8523 15.3 14.3 15.3H3.1C2.54771 15.3 2.1 14.8523 2.1 14.3V3.1Z" fill="#1C3048" stroke="#1C3048" stroke-width="0.5"/>
<path d="M7.31916 7.72109L7.31916 11.6912C7.32099 11.7963 7.36404 11.8966 7.43904 11.9703C7.51404 12.044 7.61499 12.0853 7.72014 12.0853C7.8253 12.0853 7.92625 12.044 8.00125 11.9703C8.07625 11.8966 8.11929 11.7963 8.12112 11.6912L8.12112 8.68923L13.1081 13.6763C13.1834 13.7515 13.2854 13.7937 13.3917 13.7937C13.4981 13.7937 13.6001 13.7515 13.6753 13.6763C13.7505 13.601 13.7928 13.499 13.7928 13.3927C13.7928 13.2863 13.7505 13.1843 13.6753 13.1091L8.68828 8.12207L11.6903 8.12207C11.7435 8.123 11.7964 8.11331 11.8459 8.09357C11.8953 8.07384 11.9403 8.04445 11.9783 8.00712C12.0163 7.9698 12.0465 7.92528 12.0671 7.87617C12.0877 7.82706 12.0983 7.77434 12.0983 7.72109C12.0983 7.66784 12.0877 7.61512 12.0671 7.56601C12.0465 7.5169 12.0163 7.47238 11.9783 7.43506C11.9403 7.39773 11.8953 7.36834 11.8459 7.34861C11.7964 7.32887 11.7435 7.31918 11.6903 7.32011H7.72014C7.6138 7.32013 7.51182 7.36238 7.43662 7.43757C7.36143 7.51277 7.31918 7.61475 7.31916 7.72109Z" fill="#1C3048" stroke="#1C3048" stroke-width="0.5"/>
</svg>
