<svg width="24" height="24" viewBox="0 0 24 24" fill="none" xmlns="http://www.w3.org/2000/svg">
<g clip-path="url(#clip0_1_356)">
<path d="M22.1999 1.19922H1.80003C1.46855 1.19922 1.19995 1.46782 1.19995 1.79929V22.1991C1.19995 22.3583 1.26323 22.5109 1.37574 22.6234C1.48824 22.7359 1.64091 22.7992 1.80003 22.7992H22.1999C22.359 22.7992 22.5117 22.7359 22.6242 22.6234C22.7367 22.5109 22.8 22.3583 22.8 22.1991V1.79929C22.8 1.64018 22.7367 1.4875 22.6242 1.375C22.5117 1.2625 22.359 1.19922 22.1999 1.19922ZM21.6 21.5996H2.39948V2.39906H21.6V21.5996Z" fill="#1C3048" stroke="#1C3048" stroke-width="0.5"/>
<path d="M6.59983 18H10.1999C10.5311 18 10.7999 17.7312 10.7999 17.3999C10.7999 17.0686 10.5311 16.7998 10.1999 16.7998H8.04586L16.7996 8.0461V10.2001C16.7996 10.5314 17.0684 10.8002 17.3997 10.8002C17.731 10.8002 17.9998 10.5314 17.9998 10.2001V6.60007C17.9998 6.44096 17.9365 6.28829 17.824 6.17578C17.7115 6.06328 17.5588 6 17.3997 6H13.7996C13.4684 6 13.1996 6.2688 13.1996 6.60007C13.1996 6.93135 13.4684 7.20015 13.7996 7.20015H15.9536L7.1999 15.9539V13.7999C7.1999 13.4686 6.93111 13.1998 6.59983 13.1998C6.26855 13.1998 5.99976 13.4686 5.99976 13.7999V17.3999C5.99976 17.559 6.06304 17.7117 6.17554 17.8242C6.28804 17.9367 6.44072 18 6.59983 18Z" fill="#1C3048" stroke="#1C3048" stroke-width="0.5"/>
</g>
<defs>
<clipPath id="clip0_1_356">
<rect width="24" height="24" fill="white"/>
</clipPath>
</defs>
</svg>
