<svg width="24" height="25" viewBox="0 0 24 25" fill="none" xmlns="http://www.w3.org/2000/svg">
<path fill-rule="evenodd" clip-rule="evenodd" d="M5.42857 2.6325C5.42857 1.17861 6.57984 0 8 0H20C21.4202 0 22.5714 1.17861 22.5714 2.6325V18.4275C22.5714 19.8814 21.4202 21.06 20 21.06H19.1429V21.9375C19.1429 23.3914 17.9916 24.57 16.5714 24.57H4.57143C3.15127 24.57 2 23.3914 2 21.9375V6.1425C2 4.68861 3.15127 3.51 4.57143 3.51H5.42857V2.6325ZM7.14286 3.51H16.5714C17.9916 3.51 19.1429 4.68861 19.1429 6.1425V19.305H20C20.4734 19.305 20.8571 18.9121 20.8571 18.4275V2.6325C20.8571 2.14787 20.4734 1.755 20 1.755H8C7.5266 1.755 7.14286 2.14787 7.14286 2.6325V3.51ZM3.71429 6.1425C3.71429 5.65787 4.09804 5.265 4.57143 5.265H16.5714C17.0448 5.265 17.4286 5.65787 17.4286 6.1425V21.9375C17.4286 22.4221 17.0448 22.815 16.5714 22.815H4.57143C4.09805 22.815 3.71429 22.4221 3.71429 21.9375V6.1425Z" fill="#1C3048"/>
<path d="M6.97552 17.293V16.1509L10.0053 13.1808C10.2951 12.8881 10.5366 12.6282 10.7298 12.4009C10.923 12.1737 11.0678 11.9535 11.1644 11.7404C11.261 11.5273 11.3093 11.3001 11.3093 11.0586C11.3093 10.783 11.2468 10.5472 11.1218 10.3512C10.9968 10.1523 10.825 9.99893 10.6062 9.89098C10.3875 9.78303 10.1389 9.72905 9.86046 9.72905C9.57353 9.72905 9.32211 9.78871 9.1062 9.90803C8.89029 10.0245 8.72268 10.1907 8.60336 10.4066C8.48688 10.6225 8.42864 10.8796 8.42864 11.1779H6.92438C6.92438 10.6239 7.0508 10.1424 7.30364 9.73331C7.55649 9.32422 7.9045 9.00746 8.34768 8.78303C8.7937 8.55859 9.30506 8.44638 9.88177 8.44638C10.467 8.44638 10.9812 8.55575 11.4244 8.7745C11.8676 8.99325 12.2113 9.29297 12.4556 9.67365C12.7028 10.0543 12.8264 10.489 12.8264 10.9776C12.8264 11.3043 12.7639 11.6254 12.6389 11.9407C12.5139 12.256 12.2937 12.6055 11.9784 12.989C11.6659 13.3725 11.2269 13.837 10.6616 14.3825L9.15734 15.9123V15.9719H12.9585V17.293H6.97552Z" fill="#1C3048"/>
</svg>
