<svg width="24" height="24" viewBox="0 0 24 24" fill="none" xmlns="http://www.w3.org/2000/svg">
<path d="M11.5 17.9727C12.0124 17.9727 12.4277 17.5573 12.4277 17.0449C12.4277 16.5325 12.0124 16.1172 11.5 16.1172C10.9876 16.1172 10.5723 16.5325 10.5723 17.0449C10.5723 17.5573 10.9876 17.9727 11.5 17.9727Z" fill="#1C3048"/>
<path d="M11.5 3C6.24962 3 2 7.24891 2 12.5C2 17.7504 6.24891 22 11.5 22C16.7504 22 21 17.7511 21 12.5C21 7.24962 16.7511 3 11.5 3ZM11.5 20.5156C7.06999 20.5156 3.48438 16.9306 3.48438 12.5C3.48438 8.06999 7.0694 4.48438 11.5 4.48438C15.93 4.48438 19.5156 8.0694 19.5156 12.5C19.5156 16.93 15.9306 20.5156 11.5 20.5156Z" fill="#1C3048"/>
<path d="M11.5 7.76953C9.86303 7.76953 8.53125 9.10131 8.53125 10.7383C8.53125 11.1482 8.86353 11.4805 9.27344 11.4805C9.68335 11.4805 10.0156 11.1482 10.0156 10.7383C10.0156 9.9198 10.6815 9.25391 11.5 9.25391C12.3185 9.25391 12.9844 9.9198 12.9844 10.7383C12.9844 11.5568 12.3185 12.2227 11.5 12.2227C11.0901 12.2227 10.7578 12.5549 10.7578 12.9648V14.8203C10.7578 15.2302 11.0901 15.5625 11.5 15.5625C11.9099 15.5625 12.2422 15.2302 12.2422 14.8203V13.6131C13.5212 13.2827 14.4688 12.1191 14.4688 10.7383C14.4688 9.10131 13.137 7.76953 11.5 7.76953Z" fill="#1C3048"/>
</svg>
