<svg width="24" height="24" viewBox="0 0 24 24" fill="none" xmlns="http://www.w3.org/2000/svg">
<path d="M11.9099 13.1903L15.6597 16.0027C15.9359 16.2099 16.3275 16.1539 16.5346 15.8777C16.7418 15.6015 16.6859 15.2099 16.4096 15.0027L12.9379 12.3747V7.06247C12.9379 6.71717 12.6583 6.4375 12.313 6.4375C11.9677 6.4375 11.688 6.71717 11.688 7.06247V12.6872C11.688 12.8947 11.7749 13.0816 11.9099 13.1903Z" fill="#1C3048" stroke="#1C3048" stroke-width="0.4"/>
<path d="M12.6254 3C8.05095 3 4.14457 6.30172 3.38211 10.8121L3.14462 10.459C2.95119 10.1725 2.56246 10.0969 2.27591 10.2903C1.98936 10.4837 1.91374 10.8724 2.10717 11.159L3.35711 13.0339C3.45992 13.1902 3.62741 13.2923 3.81334 13.312H3.87584C4.04145 13.3114 4.19988 13.2452 4.31644 13.1277L5.87887 11.5652C6.12292 11.3212 6.12292 10.9249 5.87887 10.6809C5.63482 10.4368 5.23858 10.4368 4.99453 10.6809L4.60705 11.0715C5.32671 6.64233 9.50058 3.6356 13.9294 4.35525C18.3583 5.0749 21.3657 9.24846 20.646 13.6776C20.007 17.6106 16.6099 20.4998 12.6254 20.4992C10.1124 20.5448 7.73566 19.3592 6.2601 17.3243C6.0598 17.0431 5.6695 16.9772 5.38827 17.1775C5.10703 17.3778 5.04109 17.7681 5.2414 18.0493C6.95007 20.4154 9.70744 21.7969 12.6254 21.7491C17.803 21.7491 22 17.5521 22 12.3746C22 7.19699 17.803 3 12.6254 3Z" fill="#1C3048" stroke="#1C3048" stroke-width="0.4"/>
</svg>
