<svg width="24" height="24" viewBox="0 0 24 24" fill="none" xmlns="http://www.w3.org/2000/svg">
<path d="M20 20H4C2.897 20 2 19.103 2 18V6C2 4.897 2.897 4 4 4H20C21.103 4 22 4.897 22 6V18C22 19.103 21.103 20 20 20ZM4 5C3.449 5 3 5.449 3 6V18C3 18.551 3.449 19 4 19H20C20.551 19 21 18.551 21 18V6C21 5.449 20.551 5 20 5H4Z" fill="#1C3048" stroke="#1C3048" stroke-width="0.5"/>
<path d="M7 11C5.897 11 5 10.103 5 9C5 7.897 5.897 7 7 7C8.103 7 9 7.897 9 9C9 10.103 8.103 11 7 11ZM7 8C6.449 8 6 8.449 6 9C6 9.551 6.449 10 7 10C7.551 10 8 9.551 8 9C8 8.449 7.551 8 7 8Z" fill="#1C3048" stroke="#1C3048" stroke-width="0.5"/>
<path d="M2.57056 18.9308C2.44256 18.9308 2.31456 18.8818 2.21656 18.7848C2.02156 18.5898 2.02156 18.2728 2.21656 18.0778L6.93956 13.3548C7.50556 12.7888 8.49456 12.7888 9.06056 13.3548L10.4666 14.7608L14.3586 10.0908C14.6416 9.75178 15.0576 9.55478 15.5006 9.55078H15.5116C15.9496 9.55078 16.3646 9.74078 16.6506 10.0738L21.8806 16.1758C22.0606 16.3848 22.0366 16.7008 21.8266 16.8808C21.6176 17.0608 21.3026 17.0378 21.1216 16.8268L15.8916 10.7248C15.7946 10.6128 15.6606 10.5508 15.5116 10.5508C15.4076 10.5418 15.2246 10.6138 15.1276 10.7308L10.8846 15.8218C10.7946 15.9298 10.6636 15.9948 10.5226 16.0008C10.3806 16.0108 10.2456 15.9548 10.1466 15.8548L8.35356 14.0618C8.16456 13.8738 7.83556 13.8738 7.64656 14.0618L2.92356 18.7848C2.82656 18.8818 2.69856 18.9308 2.57056 18.9308Z" fill="#1C3048" stroke="#1C3048" stroke-width="0.5"/>
</svg>
