<svg width="24" height="24" viewBox="0 0 24 24" fill="none" xmlns="http://www.w3.org/2000/svg">
<path d="M17.469 7.04423C17.1372 5.71778 16.3717 4.54021 15.2942 3.69851C14.2166 2.85681 12.8887 2.39923 11.5214 2.39844C10.1541 2.39764 8.82566 2.85368 7.74712 3.69413C6.66859 4.53457 5.90174 5.71125 5.56836 7.03732C3.99581 7.1849 2.54054 7.9326 1.50485 9.1251C0.469162 10.3176 -0.0673455 11.8632 0.00677248 13.441C0.0808905 15.0187 0.759937 16.5072 1.90286 17.5974C3.04579 18.6875 4.56474 19.2955 6.1442 19.295H8.44756C8.65119 19.295 8.84648 19.2141 8.99047 19.0701C9.13445 18.9261 9.21534 18.7309 9.21534 18.5272C9.21534 18.3236 9.13445 18.1283 8.99047 17.9843C8.84648 17.8403 8.65119 17.7594 8.44756 17.7594H6.1442C5.53924 17.7612 4.93985 17.6438 4.38027 17.4139C3.82068 17.184 3.31185 16.8462 2.88283 16.4197C2.01638 15.5583 1.52762 14.3879 1.52405 13.1662C1.52049 11.9444 2.00242 10.7712 2.86383 9.90479C3.72523 9.03835 4.89555 8.54958 6.11733 8.54602C6.31434 8.56085 6.50983 8.50198 6.66588 8.38082C6.82194 8.25967 6.92743 8.08487 6.96189 7.89033C7.11823 6.79398 7.66487 5.79084 8.50139 5.06514C9.33792 4.33943 10.4082 3.93989 11.5156 3.93989C12.6231 3.93989 13.6933 4.33943 14.5299 5.06514C15.3664 5.79084 15.913 6.79398 16.0694 7.89033C16.1095 8.07811 16.2136 8.24613 16.3639 8.36571C16.5141 8.48529 16.7012 8.54902 16.8932 8.54602C18.115 8.54602 19.2867 9.03137 20.1506 9.89529C21.0146 10.7592 21.4999 11.931 21.4999 13.1527C21.4999 14.3745 21.0146 15.5462 20.1506 16.4102C19.2867 17.2741 18.115 17.7594 16.8932 17.7594H14.5898C14.3862 17.7594 14.1909 17.8403 14.0469 17.9843C13.9029 18.1283 13.8221 18.3236 13.8221 18.5272C13.8221 18.7309 13.9029 18.9261 14.0469 19.0701C14.1909 19.2141 14.3862 19.295 14.5898 19.295H16.8932C18.4611 19.2786 19.9634 18.6632 21.0922 17.5749C22.221 16.4865 22.8908 15.0077 22.9644 13.4415C23.038 11.8752 22.5099 10.3401 21.4881 9.15067C20.4664 7.96126 19.0285 7.20764 17.469 7.04423Z" fill="#1C3048"/>
<path d="M14.8148 13.6962C14.9596 13.8361 15.1535 13.9135 15.3548 13.9117C15.5561 13.91 15.7487 13.8292 15.8911 13.6869C16.0334 13.5445 16.1142 13.352 16.1159 13.1507C16.1177 12.9493 16.0403 12.7554 15.9004 12.6106L12.0615 8.77167C11.9175 8.62773 11.7223 8.54688 11.5187 8.54688C11.3151 8.54688 11.1198 8.62773 10.9758 8.77167L7.13691 12.6106C6.99705 12.7554 6.91967 12.9493 6.92142 13.1507C6.92317 13.352 7.00391 13.5445 7.14627 13.6869C7.28862 13.8292 7.48119 13.91 7.6825 13.9117C7.88381 13.9135 8.07776 13.8361 8.22256 13.6962L10.7509 11.1679V20.8313C10.7509 21.0349 10.8318 21.2302 10.9758 21.3742C11.1197 21.5182 11.315 21.5991 11.5187 21.5991C11.7223 21.5991 11.9176 21.5182 12.0616 21.3742C12.2056 21.2302 12.2864 21.0349 12.2864 20.8313V11.1679L14.8148 13.6962Z" fill="#1C3048"/>
</svg>
