<svg width="20" height="20" viewBox="0 0 20 20" fill="none" xmlns="http://www.w3.org/2000/svg">
<g id="Cross">
<circle id="Ellipse 2096" cx="10" cy="10" r="10" fill="#F4F7FE"/>
<g id="Group">
<path id="Vector" d="M14.1443 15C13.9254 15 13.7066 14.9164 13.5396 14.7494L5.25054 6.46002C4.91649 6.12597 4.91649 5.58427 5.25054 5.25054C5.58459 4.91649 6.12582 4.91649 6.46002 5.25054L14.7491 13.5399C15.0831 13.874 15.0831 14.4156 14.7491 14.7494C14.5819 14.9164 14.363 15 14.1443 15Z" fill="#1C3048"/>
<path id="Vector_2" d="M5.8552 14.9998C5.6363 14.9998 5.41756 14.9163 5.25054 14.7492C4.91649 14.4155 4.91649 13.874 5.25054 13.5397L13.5396 5.25054C13.8736 4.91649 14.4149 4.91649 14.7491 5.25054C15.0831 5.58427 15.0831 6.12582 14.7491 6.46002L6.45986 14.7492C6.29284 14.9163 6.0741 14.9998 5.8552 14.9998Z" fill="#1C3048"/>
</g>
</g>
</svg>
