<svg width="24" height="24" viewBox="0 0 24 24" fill="none" xmlns="http://www.w3.org/2000/svg">
<path d="M16.5173 2H7.4827C4.45953 2 2 4.45953 2 7.48273V16.5173C2 19.5405 4.45953 22 7.4827 22H16.5173C19.5405 22 22 19.5405 22 16.5173V7.48273C22 4.45953 19.5405 2 16.5173 2ZM20.8189 16.5173C20.8189 18.8892 18.8893 20.8189 16.5173 20.8189H7.4827C5.11078 20.8189 3.18109 18.8893 3.18109 16.5173V7.48273C3.18109 5.11078 5.11078 3.18109 7.4827 3.18109H16.5173C18.8893 3.18109 20.8189 5.11078 20.8189 7.48273V16.5173Z" fill="#1C3048" stroke="#1C3048" stroke-width="0.5"/>
<path d="M12.0002 6.51562C8.97547 6.51562 6.51465 8.97645 6.51465 12.0012C6.51465 15.026 8.97543 17.4868 12.0002 17.4868C15.025 17.4868 17.4859 15.0259 17.4859 12.0012C17.4859 8.97641 15.025 6.51562 12.0002 6.51562ZM12.0002 16.3057C9.62672 16.3057 7.6957 14.3747 7.6957 12.0012C7.6957 9.62766 9.62672 7.69664 12.0002 7.69664C14.3738 7.69664 16.3048 9.6277 16.3048 12.0012C16.3048 14.3747 14.3738 16.3057 12.0002 16.3057Z" fill="#1C3048" stroke="#1C3048" stroke-width="0.5"/>
<path d="M17.8136 4.51953C16.8946 4.51953 16.147 5.26723 16.147 6.18621C16.147 7.1052 16.8946 7.85285 17.8136 7.85285C18.7326 7.85285 19.4803 7.10516 19.4803 6.18617C19.4803 5.26719 18.7326 4.51953 17.8136 4.51953ZM17.8136 6.67172C17.5459 6.67172 17.3281 6.45391 17.3281 6.18617C17.3281 5.91844 17.5459 5.70062 17.8136 5.70062C18.0813 5.70062 18.2992 5.91848 18.2992 6.18617C18.2992 6.45387 18.0813 6.67172 17.8136 6.67172Z" fill="#1C3048" stroke="#1C3048" stroke-width="0.1"/>
</svg>
