<svg width="21" height="22" viewBox="0 0 21 22" fill="none" xmlns="http://www.w3.org/2000/svg">
<path d="M0.344726 20.6523L0.344727 1.342C0.344727 1.15909 0.417386 0.983674 0.546722 0.854339C0.676057 0.725004 0.851474 0.652344 1.03438 0.652344C1.21729 0.652344 1.39271 0.725004 1.52204 0.854339C1.65138 0.983675 1.72404 1.15909 1.72404 1.342L1.72404 20.6523C1.72404 20.8353 1.65138 21.0107 1.52204 21.14C1.39271 21.2693 1.21729 21.342 1.03438 21.342C0.851473 21.342 0.676056 21.2693 0.546721 21.14C0.417386 21.0107 0.344726 20.8353 0.344726 20.6523Z" fill="#1C3048"/>
<path d="M14.8277 17.8944C14.8277 18.4431 14.6097 18.9694 14.2217 19.3574C13.8337 19.7454 13.3074 19.9634 12.7587 19.9634L5.17248 19.9634C4.62376 19.9634 4.09751 19.7454 3.7095 19.3574C3.3215 18.9694 3.10352 18.4431 3.10352 17.8944L3.10352 13.7565C3.10352 13.2077 3.3215 12.6815 3.7095 12.2935C4.09751 11.9055 4.62376 11.6875 5.17248 11.6875L12.7587 11.6875C13.3074 11.6875 13.8337 11.9055 14.2217 12.2935C14.6097 12.6815 14.8277 13.2077 14.8277 13.7565L14.8277 17.8944ZM12.7587 13.0668L5.17248 13.0668C4.98957 13.0668 4.81416 13.1395 4.68482 13.2688C4.55549 13.3981 4.48283 13.5736 4.48283 13.7565L4.48283 17.8944C4.48283 18.0773 4.55549 18.2527 4.68482 18.3821C4.81416 18.5114 4.98957 18.5841 5.17248 18.5841L12.7587 18.5841C12.9416 18.5841 13.117 18.5114 13.2463 18.3821C13.3757 18.2527 13.4483 18.0773 13.4483 17.8944L13.4483 13.7565C13.4483 13.5736 13.3757 13.3981 13.2463 13.2688C13.117 13.1395 12.9416 13.0668 12.7587 13.0668Z" fill="#1C3048"/>
<path d="M3.10352 8.23815L3.10352 4.10022C3.10352 3.55149 3.3215 3.02524 3.7095 2.63724C4.09751 2.24923 4.62376 2.03125 5.17248 2.03125L18.2759 2.03125C18.8247 2.03125 19.3509 2.24923 19.7389 2.63724C20.1269 3.02524 20.3449 3.55149 20.3449 4.10022L20.3449 8.23815C20.3449 8.78687 20.1269 9.31312 19.7389 9.70113C19.3509 10.0891 18.8247 10.3071 18.2759 10.3071L5.17248 10.3071C4.62376 10.3071 4.09751 10.0891 3.7095 9.70113C3.3215 9.31312 3.10352 8.78687 3.10352 8.23815ZM18.2759 8.9278C18.4588 8.9278 18.6343 8.85514 18.7636 8.72581C18.8929 8.59647 18.9656 8.42105 18.9656 8.23815L18.9656 4.10022C18.9656 3.91731 18.8929 3.74189 18.7636 3.61256C18.6343 3.48322 18.4588 3.41056 18.2759 3.41056L5.17248 3.41056C4.98957 3.41056 4.81416 3.48322 4.68482 3.61256C4.55549 3.74189 4.48283 3.91731 4.48283 4.10022L4.48283 8.23815C4.48283 8.42105 4.55549 8.59647 4.68482 8.72581C4.81416 8.85514 4.98957 8.9278 5.17248 8.9278L18.2759 8.9278Z" fill="#1C3048"/>
</svg>
