<svg width="17" height="15" viewBox="0 0 17 15" fill="none" xmlns="http://www.w3.org/2000/svg">
<path id="Vector" d="M16.0189 1.8931C15.4102 1.03645 14.5504 0.423822 13.5776 0.153641C12.6047 -0.116541 11.5753 -0.0285933 10.6548 0.403354C9.83082 0.784229 9.09597 1.42638 8.5 2.27856C7.90403 1.4243 7.16918 0.782146 6.34524 0.403354C5.42468 -0.0285933 4.39529 -0.116541 3.42245 0.153641C2.4496 0.423822 1.58978 1.03645 0.981098 1.8931C0.339222 2.79404 0 3.91999 0 5.14888C0 6.91741 0.9846 8.85762 2.92618 10.9178C4.50831 12.596 6.37792 13.9703 7.35124 14.6399C7.69418 14.875 8.09283 15 8.5 15C8.90717 15 9.30582 14.875 9.64876 14.6399C10.6213 13.9703 12.4917 12.596 14.0738 10.9178C16.0154 8.85845 17 6.91741 17 5.14888C17 3.91999 16.6608 2.79404 16.0189 1.8931Z" fill="#EE2E35"/>
</svg>
