<svg width="21" height="16" viewBox="0 0 21 16" fill="none" xmlns="http://www.w3.org/2000/svg">
<path d="M19.9525 15.5293H5.90991C5.33115 15.5293 4.86206 15.0602 4.86206 14.4814C4.86206 13.9027 5.33115 13.4336 5.90991 13.4336H19.9522C20.5309 13.4336 21 13.9027 21 14.4814C21 15.0602 20.5313 15.5293 19.9525 15.5293Z" fill="#1C3048"/>
<path d="M19.9525 8.95117H5.90991C5.33115 8.95117 4.86206 8.48208 4.86206 7.90332C4.86206 7.32456 5.33115 6.85547 5.90991 6.85547H19.9522C20.5309 6.85547 21 7.32456 21 7.90332C21.0004 8.48208 20.5313 8.95117 19.9525 8.95117Z" fill="#1C3048"/>
<path d="M19.9525 2.375H5.90991C5.33115 2.375 4.86206 1.90591 4.86206 1.32715C4.86206 0.748385 5.33115 0.279297 5.90991 0.279297H19.9522C20.5309 0.279297 21 0.748385 21 1.32715C21 1.90591 20.5313 2.375 19.9525 2.375Z" fill="#1C3048"/>
<path d="M1.40726 2.81453C2.18448 2.81453 2.81453 2.18448 2.81453 1.40727C2.81453 0.630054 2.18448 0 1.40726 0C0.630054 0 0 0.630054 0 1.40727C0 2.18448 0.630054 2.81453 1.40726 2.81453Z" fill="#1C3048"/>
<path d="M1.40726 9.31062C2.18448 9.31062 2.81453 8.68057 2.81453 7.90336C2.81453 7.12615 2.18448 6.49609 1.40726 6.49609C0.630054 6.49609 0 7.12615 0 7.90336C0 8.68057 0.630054 9.31062 1.40726 9.31062Z" fill="#1C3048"/>
<path d="M1.40726 15.8087C2.18448 15.8087 2.81453 15.1786 2.81453 14.4014C2.81453 13.6242 2.18448 12.9941 1.40726 12.9941C0.630054 12.9941 0 13.6242 0 14.4014C0 15.1786 0.630054 15.8087 1.40726 15.8087Z" fill="#1C3048"/>
</svg>
