<svg width="13" height="17" viewBox="0 0 13 17" fill="none" xmlns="http://www.w3.org/2000/svg">
<path d="M11.1558 16.9996H1.59368C0.715386 16.9996 0 16.2849 0 15.4059V7.96868C0 7.08968 0.715386 6.375 1.59368 6.375H11.1558C12.0341 6.375 12.7495 7.08968 12.7495 7.96868V15.4059C12.7495 16.2849 12.0341 16.9996 11.1558 16.9996ZM1.59368 7.43746C1.30115 7.43746 1.06246 7.67545 1.06246 7.96868V15.4059C1.06246 15.6991 1.30115 15.9371 1.59368 15.9371H11.1558C11.4483 15.9371 11.687 15.6991 11.687 15.4059V7.96868C11.687 7.67545 11.4483 7.43746 11.1558 7.43746H1.59368Z" fill="#1C3048"/>
<path d="M10.0934 7.43719C9.80018 7.43719 9.56219 7.1992 9.56219 6.90597V4.24983C9.56219 2.49252 8.13212 1.06246 6.37482 1.06246C4.61752 1.06246 3.18746 2.49252 3.18746 4.24983V6.90597C3.18746 7.1992 2.94947 7.43719 2.65623 7.43719C2.36299 7.43719 2.125 7.1992 2.125 6.90597V4.24983C2.125 1.90605 4.03104 0 6.37482 0C8.7186 0 10.6246 1.90605 10.6246 4.24983V6.90597C10.6246 7.1992 10.3867 7.43719 10.0934 7.43719Z" fill="#1C3048"/>
<path d="M6.3751 12.0402C5.59384 12.0402 4.9585 11.4049 4.9585 10.6236C4.9585 9.84238 5.59384 9.20703 6.3751 9.20703C7.15636 9.20703 7.79171 9.84238 7.79171 10.6236C7.79171 11.4049 7.15636 12.0402 6.3751 12.0402ZM6.3751 10.2695C6.18032 10.2695 6.02095 10.4281 6.02095 10.6236C6.02095 10.8191 6.18032 10.9778 6.3751 10.9778C6.56989 10.9778 6.72925 10.8191 6.72925 10.6236C6.72925 10.4281 6.56989 10.2695 6.3751 10.2695Z" fill="#1C3048"/>
<path d="M6.37498 14.1665C6.08174 14.1665 5.84375 13.9286 5.84375 13.6353V11.6875C5.84375 11.3942 6.08174 11.1562 6.37498 11.1562C6.66822 11.1562 6.90621 11.3942 6.90621 11.6875V13.6353C6.90621 13.9286 6.66822 14.1665 6.37498 14.1665Z" fill="#1C3048"/>
</svg>
