<svg width="18" height="24" viewBox="0 0 18 24" fill="none" xmlns="http://www.w3.org/2000/svg">
<path d="M15.75 24H2.25C1.01 24 0 22.991 0 21.75V11.25C0 10.009 1.01 9 2.25 9H15.75C16.99 9 18 10.009 18 11.25V21.75C18 22.991 16.99 24 15.75 24ZM2.25 10.5C1.837 10.5 1.5 10.836 1.5 11.25V21.75C1.5 22.164 1.837 22.5 2.25 22.5H15.75C16.163 22.5 16.5 22.164 16.5 21.75V11.25C16.5 10.836 16.163 10.5 15.75 10.5H2.25Z" fill="#1C3048"/>
<path d="M14.25 10.5C13.836 10.5 13.5 10.164 13.5 9.75V6C13.5 3.519 11.481 1.5 9 1.5C6.519 1.5 4.5 3.519 4.5 6C4.5 6.414 4.164 6.75 3.75 6.75C3.336 6.75 3 6.414 3 6C3 2.691 5.691 0 9 0C12.309 0 15 2.691 15 6V9.75C15 10.164 14.664 10.5 14.25 10.5Z" fill="#1C3048"/>
<path d="M9 17C7.897 17 7 16.103 7 15C7 13.897 7.897 13 9 13C10.103 13 11 13.897 11 15C11 16.103 10.103 17 9 17ZM9 14.5C8.725 14.5 8.5 14.724 8.5 15C8.5 15.276 8.725 15.5 9 15.5C9.275 15.5 9.5 15.276 9.5 15C9.5 14.724 9.275 14.5 9 14.5Z" fill="#1C3048"/>
<path d="M9 20C8.586 20 8.25 19.664 8.25 19.25V16.5C8.25 16.086 8.586 15.75 9 15.75C9.414 15.75 9.75 16.086 9.75 16.5V19.25C9.75 19.664 9.414 20 9 20Z" fill="#1C3048"/>
</svg>
