<svg width="24" height="21" viewBox="0 0 24 21" fill="none" xmlns="http://www.w3.org/2000/svg">
<path d="M1.51945 9.48077H2.28869V5.63462C2.28869 5.02258 2.53182 4.43561 2.96459 4.00283C3.39737 3.57005 3.98434 3.32692 4.59638 3.32692H9.21176C9.8238 3.32692 10.4108 3.57005 10.8435 4.00283C11.2763 4.43561 11.5195 5.02258 11.5195 5.63462V9.48077H13.0579V2.55769C13.0579 1.94565 13.301 1.35868 13.7338 0.925907C14.1666 0.493131 14.7536 0.25 15.3656 0.25H19.981C20.593 0.25 21.18 0.493131 21.6128 0.925907C22.0456 1.35868 22.2887 1.94565 22.2887 2.55769V9.48077H23.0579C23.2619 9.48077 23.4576 9.56181 23.6018 9.70607C23.7461 9.85033 23.8271 10.046 23.8271 10.25C23.8271 10.454 23.7461 10.6497 23.6018 10.7939C23.4576 10.9382 23.2619 11.0192 23.0579 11.0192H22.2887V17.9423C22.2887 18.5543 22.0456 19.1413 21.6128 19.5741C21.18 20.0069 20.593 20.25 19.981 20.25H15.3656C14.7536 20.25 14.1666 20.0069 13.7338 19.5741C13.301 19.1413 13.0579 18.5543 13.0579 17.9423V11.0192H11.5195V14.8654C11.5195 15.4774 11.2763 16.0644 10.8435 16.4972C10.4108 16.9299 9.8238 17.1731 9.21176 17.1731H4.59638C3.98434 17.1731 3.39737 16.9299 2.96459 16.4972C2.53182 16.0644 2.28869 15.4774 2.28869 14.8654V11.0192H1.51945C1.31544 11.0192 1.11979 10.9382 0.975527 10.7939C0.831268 10.6497 0.750225 10.454 0.750225 10.25C0.750225 10.046 0.831268 9.85033 0.975527 9.70607C1.11979 9.56181 1.31544 9.48077 1.51945 9.48077ZM14.5964 17.9423C14.5964 18.1463 14.6774 18.342 14.8217 18.4862C14.9659 18.6305 15.1616 18.7115 15.3656 18.7115H19.981C20.185 18.7115 20.3807 18.6305 20.5249 18.4862C20.6692 18.342 20.7502 18.1463 20.7502 17.9423V2.55769C20.7502 2.35368 20.6692 2.15802 20.5249 2.01376C20.3807 1.86951 20.185 1.78846 19.981 1.78846H15.3656C15.1616 1.78846 14.9659 1.86951 14.8217 2.01376C14.6774 2.15802 14.5964 2.35368 14.5964 2.55769V17.9423ZM3.82715 14.8654C3.82715 15.0694 3.90819 15.2651 4.05245 15.4093C4.19671 15.5536 4.39237 15.6346 4.59638 15.6346H9.21176C9.41578 15.6346 9.61143 15.5536 9.75569 15.4093C9.89995 15.2651 9.98099 15.0694 9.98099 14.8654V5.63462C9.98099 5.4306 9.89995 5.23495 9.75569 5.09069C9.61143 4.94643 9.41578 4.86538 9.21176 4.86538H4.59638C4.39237 4.86538 4.19671 4.94643 4.05245 5.09069C3.90819 5.23495 3.82715 5.4306 3.82715 5.63462V14.8654Z" fill="#1C3048"/>
</svg>
