<svg width="23" height="19" viewBox="0 0 23 19" fill="none" xmlns="http://www.w3.org/2000/svg">
<g id="More">
<rect id="Rectangle 1144" opacity="0.8" width="23" height="19" rx="3" fill="#1C3048"/>
<g id="Group 35879">
<path id="Vector" d="M5.50001 11C6.32844 11 7.00002 10.3284 7.00002 9.50001C7.00002 8.67158 6.32844 8 5.50001 8C4.67158 8 4 8.67158 4 9.50001C4 10.3284 4.67158 11 5.50001 11Z" fill="white" stroke="white"/>
<path id="Vector_2" d="M11.5 11C12.3284 11 13 10.3284 13 9.50001C13 8.67158 12.3284 8 11.5 8C10.6716 8 10 8.67158 10 9.50001C10 10.3284 10.6716 11 11.5 11Z" fill="white" stroke="white"/>
<path id="Vector_3" d="M17.5 11C18.3284 11 19 10.3284 19 9.50001C19 8.67158 18.3284 8 17.5 8C16.6716 8 16 8.67158 16 9.50001C16 10.3284 16.6716 11 17.5 11Z" fill="white" stroke="white"/>
</g>
</g>
</svg>
