<svg width="24" height="24" viewBox="0 0 24 24" fill="none" xmlns="http://www.w3.org/2000/svg">
<path d="M3.70946 4.0526H14.37C14.7323 4.0526 15.0269 4.34732 15.0269 4.70946V4.88846C15.0269 5.17922 15.2624 5.41476 15.5532 5.41476C15.8439 5.41476 16.0795 5.17922 16.0795 4.88846V4.70946C16.0795 3.76686 15.3127 3 14.37 3H3.70946C2.76686 3 2 3.76682 2 4.70946V18.6459C2 19.097 2.17284 19.5202 2.48709 19.8372C2.59003 19.9412 2.72557 19.9933 2.86111 19.9933C2.99489 19.9933 3.12881 19.9425 3.23131 19.841C3.43792 19.6365 3.43954 19.3033 3.23498 19.0968C3.11736 18.978 3.0526 18.8178 3.0526 18.646V4.70959C3.0526 4.34732 3.34717 4.0526 3.70946 4.0526Z" fill="#1C3048" stroke="#1C3048" stroke-width="0.4"/>
<path d="M21.3546 6.9512C20.9403 6.53682 20.3888 6.30859 19.8014 6.30859C19.2144 6.30859 18.6626 6.53679 18.2484 6.9512L16.0795 9.12027V8.04549C16.0795 7.75474 15.8439 7.51919 15.5532 7.51919C15.2624 7.51919 15.0269 7.75474 15.0269 8.04549V10.1729L12.5917 12.608C12.1527 13.0471 11.8475 13.5981 11.7098 14.2007L11.3541 15.7441C11.2756 16.0852 11.3766 16.4365 11.624 16.684C11.8162 16.8763 12.0712 16.9801 12.3352 16.9801C12.4113 16.9801 12.4879 16.9714 12.5643 16.954L14.1063 16.5984C14.431 16.5241 14.7404 16.3995 15.0269 16.2322V18.6451C15.0269 19.0073 14.7323 19.3019 14.3701 19.3019H4.90081C4.61005 19.3019 4.37451 19.5375 4.37451 19.8282C4.37451 20.119 4.61005 20.3545 4.90081 20.3545H14.3701C15.3127 20.3545 16.0795 19.5877 16.0795 18.6451V15.3369L21.3549 10.0596C21.7708 9.64463 22 9.09277 22 8.50553C22 7.91785 21.7706 7.36572 21.3548 6.95115L21.3546 6.9512ZM14.9567 14.9712C14.6549 15.2714 14.2797 15.4792 13.8708 15.5726L12.3955 15.9127L12.7358 14.4364C12.8295 14.0263 13.037 13.6515 13.336 13.3525L18.0937 8.59479L19.7125 10.2138L14.9567 14.9712ZM20.611 9.31504C20.6109 9.31533 20.6106 9.31548 20.6102 9.31577L20.4567 9.46937L18.838 7.85055L18.9926 7.69592C19.2083 7.4805 19.4954 7.3617 19.8015 7.3617C20.1076 7.3617 20.3947 7.48035 20.611 7.69651C20.8279 7.91267 20.9473 8.20018 20.9473 8.50592C20.9473 8.81151 20.8279 9.09888 20.611 9.31504Z" fill="#1C3048" stroke="#1C3048" stroke-width="0.4"/>
<path d="M13.672 6.79388C13.672 6.50312 13.4364 6.26758 13.1457 6.26758H4.93353C4.64277 6.26758 4.40723 6.50312 4.40723 6.79388C4.40723 7.08463 4.64277 7.32018 4.93353 7.32018H13.1457C13.4364 7.32018 13.672 7.08463 13.672 6.79388Z" fill="#1C3048" stroke="#1C3048" stroke-width="0.4"/>
<path d="M13.0723 10.0497C13.0723 9.75898 12.8367 9.52344 12.546 9.52344H4.93304C4.64228 9.52344 4.40674 9.75898 4.40674 10.0497C4.40674 10.3405 4.64228 10.576 4.93304 10.576H12.546C12.8366 10.576 13.0723 10.3405 13.0723 10.0497Z" fill="#1C3048" stroke="#1C3048" stroke-width="0.4"/>
<path d="M10.5792 13.3056C10.5792 13.0148 10.3437 12.7793 10.0529 12.7793H4.93353C4.64277 12.7793 4.40723 13.0148 4.40723 13.3056C4.40723 13.5964 4.64277 13.8319 4.93353 13.8319H10.0529C10.3435 13.8319 10.5791 13.5964 10.5791 13.3056H10.5792Z" fill="#1C3048" stroke="#1C3048" stroke-width="0.4"/>
<path d="M9.54616 16.0352H4.93353C4.64277 16.0352 4.40723 16.2707 4.40723 16.5615C4.40723 16.8522 4.64277 17.0878 4.93353 17.0878H9.54616C9.83692 17.0878 10.0725 16.8522 10.0725 16.5615C10.0723 16.2708 9.83677 16.0352 9.54616 16.0352Z" fill="#1C3048" stroke="#1C3048" stroke-width="0.4"/>
<path d="M15.1809 6.09407C15.0842 6.1929 15.0273 6.32771 15.0273 6.46663C15.0273 6.60554 15.084 6.7402 15.1809 6.83918C15.2801 6.93595 15.4147 6.99293 15.5536 6.99293C15.6926 6.99293 15.8272 6.9361 15.9262 6.83918C16.023 6.7402 16.0799 6.6054 16.0799 6.46663C16.0799 6.32771 16.023 6.19291 15.9262 6.09407C15.7304 5.89833 15.3789 5.89833 15.1809 6.09407Z" fill="#1C3048" stroke="#1C3048" stroke-width="0.4"/>
</svg>
