<svg width="21" height="18" viewBox="0 0 21 18" fill="none" xmlns="http://www.w3.org/2000/svg">
<path d="M19.9528 16.3326H5.91016C5.33139 16.3326 4.8623 15.9073 4.8623 15.3826C4.8623 14.8579 5.33139 14.4326 5.91016 14.4326H19.9524C20.5312 14.4326 21.0003 14.8579 21.0003 15.3826C21.0003 15.9073 20.5315 16.3326 19.9528 16.3326Z" fill="#1C3048"/>
<path d="M19.9528 9.75645H5.91016C5.33139 9.75645 4.8623 9.33116 4.8623 8.80645C4.8623 8.28173 5.33139 7.85645 5.91016 7.85645H19.9524C20.5312 7.85645 21.0003 8.28173 21.0003 8.80645C21.0006 9.33116 20.5315 9.75645 19.9528 9.75645Z" fill="#1C3048"/>
<path d="M19.9528 3.17832H5.91016C5.33139 3.17832 4.8623 2.75304 4.8623 2.22832C4.8623 1.7036 5.33139 1.27832 5.91016 1.27832H19.9524C20.5312 1.27832 21.0003 1.7036 21.0003 2.22832C21.0003 2.75304 20.5315 3.17832 19.9528 3.17832Z" fill="#1C3048"/>
<path d="M2.02415 0.363636V4H1.03693V1.27273H1.01562L0.22017 1.74858V0.910511L1.11506 0.363636H2.02415Z" fill="#1C3048"/>
<path d="M0.241477 11V10.2898L1.59801 9.16761C1.68797 9.09304 1.76491 9.0232 1.82884 8.9581C1.89394 8.89181 1.94366 8.82375 1.97798 8.75391C2.01349 8.68407 2.03125 8.60653 2.03125 8.52131C2.03125 8.42779 2.01113 8.34789 1.97088 8.28161C1.93182 8.21532 1.87737 8.16442 1.80753 8.12891C1.73769 8.09221 1.6572 8.07386 1.56605 8.07386C1.47491 8.07386 1.39441 8.09221 1.32457 8.12891C1.25592 8.1656 1.20265 8.21946 1.16477 8.29048C1.12689 8.36151 1.10795 8.44792 1.10795 8.54972H0.170455C0.170455 8.29403 0.227865 8.07386 0.342685 7.8892C0.457505 7.70455 0.619673 7.5625 0.82919 7.46307C1.03871 7.36364 1.28433 7.31392 1.56605 7.31392C1.85724 7.31392 2.10938 7.36068 2.32244 7.45419C2.5367 7.54652 2.70182 7.67673 2.81783 7.84482C2.93501 8.0129 2.99361 8.20999 2.99361 8.43608C2.99361 8.57576 2.96461 8.71484 2.90661 8.85334C2.8486 8.99065 2.74444 9.14276 2.59411 9.30966C2.44377 9.47656 2.23011 9.67543 1.95312 9.90625L1.61222 10.1903V10.2116H3.03267V11H0.241477Z" fill="#1C3048"/>
<path d="M1.66193 17.0497C1.37547 17.0497 1.12098 17.0006 0.898438 16.9023C0.677083 16.8029 0.503078 16.6662 0.37642 16.4922C0.249763 16.3182 0.185843 16.1181 0.184659 15.892H1.17898C1.18016 15.9619 1.20147 16.0246 1.2429 16.0803C1.28551 16.1347 1.34351 16.1773 1.4169 16.2081C1.49029 16.2389 1.57434 16.2543 1.66903 16.2543C1.76018 16.2543 1.84067 16.2383 1.91051 16.2063C1.98035 16.1732 2.0348 16.1276 2.07386 16.0696C2.11293 16.0116 2.13187 15.9453 2.13068 15.8707C2.13187 15.7973 2.10938 15.7322 2.06321 15.6754C2.01823 15.6186 1.9549 15.5742 1.87322 15.5423C1.79155 15.5103 1.69744 15.4943 1.59091 15.4943H1.22159V14.8125H1.59091C1.68916 14.8125 1.77557 14.7965 1.85014 14.7646C1.9259 14.7326 1.98449 14.6882 2.02592 14.6314C2.06854 14.5746 2.08925 14.5095 2.08807 14.4361C2.08925 14.3651 2.07209 14.3023 2.03658 14.2479C2.00107 14.1934 1.95135 14.1508 1.88743 14.12C1.82469 14.0893 1.75189 14.0739 1.66903 14.0739C1.57907 14.0739 1.49858 14.0898 1.42756 14.1218C1.35772 14.1538 1.30268 14.1982 1.26243 14.255C1.22218 14.3118 1.20147 14.3769 1.20028 14.4503H0.255682C0.256866 14.2277 0.317827 14.0312 0.438565 13.8608C0.560488 13.6903 0.727391 13.5566 0.939276 13.4595C1.15116 13.3625 1.39441 13.3139 1.66903 13.3139C1.93774 13.3139 2.17507 13.3595 2.38104 13.4506C2.58819 13.5418 2.74976 13.6673 2.86577 13.8271C2.98295 13.9857 3.04096 14.1674 3.03977 14.3722C3.04214 14.5758 2.9723 14.7427 2.83026 14.8729C2.68939 15.0031 2.51065 15.08 2.29403 15.1037V15.1321C2.58759 15.1641 2.80836 15.254 2.95632 15.402C3.10429 15.5488 3.17708 15.7334 3.17472 15.956C3.1759 16.169 3.11198 16.3578 2.98295 16.5224C2.85511 16.6869 2.67696 16.8159 2.44851 16.9094C2.22124 17.003 1.95904 17.0497 1.66193 17.0497Z" fill="#1C3048"/>
</svg>
