<svg width="12" height="12" viewBox="0 0 12 12" fill="none" xmlns="http://www.w3.org/2000/svg">
<path d="M10.0015 4.63496L8.53299 5.01433L6.69879 2.64328C6.61848 2.53944 6.51672 2.45562 6.401 2.39803C6.28529 2.34045 6.15859 2.31055 6.03025 2.31055C5.90192 2.31055 5.77522 2.34045 5.6595 2.39803C5.54379 2.45562 5.44203 2.53944 5.36172 2.64328L3.52752 5.01433L2.03045 4.63496C1.88697 4.59934 1.73709 4.60247 1.59512 4.64407C1.45315 4.68566 1.32383 4.76432 1.21951 4.87254C1.11519 4.98075 1.03937 5.11491 0.999273 5.26219C0.959179 5.40947 0.956157 5.56495 0.990496 5.71379L2.00188 9.40077C2.03644 9.52898 2.1116 9.64139 2.21526 9.71989C2.31892 9.79839 2.44503 9.8384 2.57328 9.83348H9.43009C9.55834 9.8384 9.68445 9.79839 9.78811 9.71989C9.89177 9.64139 9.96693 9.52898 10.0015 9.40077L11.0186 5.71379C11.0514 5.56732 11.0482 5.41463 11.0091 5.26981C10.97 5.125 10.8964 4.99273 10.795 4.88522C10.6937 4.77771 10.5678 4.69843 10.4292 4.65469C10.2905 4.61095 10.1434 4.60416 10.0015 4.63496Z" fill="#EFA83C"/>
<path d="M0.714252 3.99948C1.10872 3.99948 1.4285 3.66775 1.4285 3.25853C1.4285 2.84931 1.10872 2.51758 0.714252 2.51758C0.319781 2.51758 0 2.84931 0 3.25853C0 3.66775 0.319781 3.99948 0.714252 3.99948Z" fill="#EFA83C"/>
<path d="M11.2865 3.99948C11.681 3.99948 12.0008 3.66775 12.0008 3.25853C12.0008 2.84931 11.681 2.51758 11.2865 2.51758C10.892 2.51758 10.5723 2.84931 10.5723 3.25853C10.5723 3.66775 10.892 3.99948 11.2865 3.99948Z" fill="#EFA83C"/>
<path d="M5.99941 1.4819C6.39388 1.4819 6.71366 1.15017 6.71366 0.740952C6.71366 0.331736 6.39388 0 5.99941 0C5.60494 0 5.28516 0.331736 5.28516 0.740952C5.28516 1.15017 5.60494 1.4819 5.99941 1.4819Z" fill="#EFA83C"/>
<path d="M9.42626 12H2.56945C2.4179 12 2.27257 11.9375 2.16541 11.8264C2.05825 11.7152 1.99805 11.5644 1.99805 11.4072C1.99805 11.25 2.05825 11.0992 2.16541 10.9881C2.27257 10.8769 2.4179 10.8145 2.56945 10.8145H9.42626C9.57781 10.8145 9.72315 10.8769 9.83031 10.9881C9.93746 11.0992 9.99766 11.25 9.99766 11.4072C9.99766 11.5644 9.93746 11.7152 9.83031 11.8264C9.72315 11.9375 9.57781 12 9.42626 12Z" fill="#EFA83C"/>
</svg>
