<svg width="18" height="18" viewBox="0 0 18 18" fill="none" xmlns="http://www.w3.org/2000/svg">
<path d="M14.8335 6.98262L12.6918 7.51595L10.0168 4.18262C9.89966 4.03663 9.75124 3.9188 9.58249 3.83784C9.41374 3.75688 9.22896 3.71484 9.04179 3.71484C8.85462 3.71484 8.66984 3.75688 8.50109 3.83784C8.33233 3.9188 8.18392 4.03663 8.06679 4.18262L5.39179 7.51595L3.20846 6.98262C2.99921 6.93254 2.78063 6.93695 2.57357 6.99542C2.36652 7.05389 2.17792 7.16448 2.02578 7.31661C1.87365 7.46875 1.76306 7.65735 1.70459 7.8644C1.64612 8.07146 1.64171 8.29004 1.69179 8.49929L3.16679 13.6826C3.2172 13.8629 3.32682 14.0209 3.47799 14.1313C3.62916 14.2416 3.81308 14.2979 4.00012 14.291H14.0001C14.1872 14.2979 14.3711 14.2416 14.5223 14.1313C14.6734 14.0209 14.783 13.8629 14.8335 13.6826L16.3168 8.49929C16.3647 8.29337 16.3599 8.07871 16.3029 7.87512C16.2459 7.67154 16.1386 7.48559 15.9908 7.33445C15.8429 7.18331 15.6594 7.07184 15.4572 7.01035C15.2549 6.94886 15.0404 6.93932 14.8335 6.98262Z" fill="#EFA83C"/>
<path d="M1.29167 6.08333C1.86696 6.08333 2.33333 5.61696 2.33333 5.04167C2.33333 4.46637 1.86696 4 1.29167 4C0.71637 4 0.25 4.46637 0.25 5.04167C0.25 5.61696 0.71637 6.08333 1.29167 6.08333Z" fill="#EFA83C"/>
<path d="M16.7082 6.08333C17.2835 6.08333 17.7498 5.61696 17.7498 5.04167C17.7498 4.46637 17.2835 4 16.7082 4C16.1329 4 15.6665 4.46637 15.6665 5.04167C15.6665 5.61696 16.1329 6.08333 16.7082 6.08333Z" fill="#EFA83C"/>
<path d="M9.00016 2.54036C9.57546 2.54036 10.0418 2.07399 10.0418 1.4987C10.0418 0.923401 9.57546 0.457031 9.00016 0.457031C8.42487 0.457031 7.9585 0.923401 7.9585 1.4987C7.9585 2.07399 8.42487 2.54036 9.00016 2.54036Z" fill="#EFA83C"/>
<path d="M13.9998 17.3307H3.99984C3.77882 17.3307 3.56686 17.2429 3.41058 17.0867C3.2543 16.9304 3.1665 16.7184 3.1665 16.4974C3.1665 16.2764 3.2543 16.0644 3.41058 15.9081C3.56686 15.7519 3.77882 15.6641 3.99984 15.6641H13.9998C14.2209 15.6641 14.4328 15.7519 14.5891 15.9081C14.7454 16.0644 14.8332 16.2764 14.8332 16.4974C14.8332 16.7184 14.7454 16.9304 14.5891 17.0867C14.4328 17.2429 14.2209 17.3307 13.9998 17.3307Z" fill="#EFA83C"/>
</svg>
