<svg width="24" height="24" viewBox="0 0 24 24" fill="none" xmlns="http://www.w3.org/2000/svg">
<path d="M20.6429 4.70573H11.2143C10.9928 4.48336 10.7216 4.30553 10.4183 4.1839C10.115 4.06228 9.78645 3.99961 9.45429 4H3.35714C2.73199 4 2.13244 4.22306 1.69039 4.62011C1.24834 5.01716 1 5.55568 1 6.1172V17.4089C1 17.9704 1.24834 18.5089 1.69039 18.906C2.13244 19.303 2.73199 19.5261 3.35714 19.5261H20.6429C21.268 19.5261 21.8676 19.303 22.3096 18.906C22.7517 18.5089 23 17.9704 23 17.4089V6.82293C23 6.26141 22.7517 5.7229 22.3096 5.32585C21.8676 4.92879 21.268 4.70573 20.6429 4.70573ZM21.4286 6.82293V6.94996C21.1766 6.8678 20.9109 6.82484 20.6429 6.82293H12.9743C12.8279 6.82384 12.6841 6.78799 12.5591 6.7194C12.4342 6.65082 12.333 6.55223 12.2671 6.43478L12.0943 6.1172H20.6429C20.8512 6.1172 21.0511 6.19155 21.1984 6.3239C21.3458 6.45625 21.4286 6.63576 21.4286 6.82293ZM21.4286 17.4089C21.4286 17.5961 21.3458 17.7756 21.1984 17.9079C21.0511 18.0403 20.8512 18.1146 20.6429 18.1146H3.35714C3.14876 18.1146 2.94891 18.0403 2.80156 17.9079C2.65421 17.7756 2.57143 17.5961 2.57143 17.4089V6.1172C2.57143 5.93002 2.65421 5.75052 2.80156 5.61817C2.94891 5.48582 3.14876 5.41146 3.35714 5.41146H9.45429C9.60071 5.41055 9.74452 5.44641 9.86946 5.51499C9.99441 5.58358 10.0955 5.68216 10.1614 5.79962L10.8607 7.06288C11.0567 7.41549 11.3584 7.71197 11.7318 7.91894C12.1052 8.12592 12.5355 8.23516 12.9743 8.23439H20.6429C20.8512 8.23439 21.0511 8.30874 21.1984 8.44109C21.3458 8.57344 21.4286 8.75295 21.4286 8.94012V17.4089Z" fill="#1C3048" stroke="#1C3048" stroke-width="0.1"/>
</svg>
