<svg width="20" height="16" viewBox="0 0 20 16" fill="none" xmlns="http://www.w3.org/2000/svg">
<path d="M16.4086 5.92C16.1486 2.61214 13.3736 0 10 0C7.11429 0 4.63714 1.87429 3.83714 4.60786C1.55786 5.39929 0 7.55929 0 10C0 13.1507 2.56357 15.7143 5.71429 15.7143H15C17.7564 15.7143 20 13.4714 20 10.7143C20 8.465 18.5214 6.53429 16.4086 5.92ZM15 14.2857H5.71429C3.35071 14.2857 1.42857 12.3636 1.42857 10C1.42857 8.06286 2.73786 6.36143 4.61214 5.86286C4.86929 5.79429 5.06786 5.58857 5.12571 5.32929C5.63357 3.06929 7.68286 1.42857 10 1.42857C12.6614 1.42857 14.9971 3.54929 14.9971 6.46929C14.985 6.82643 15.24 7.13786 15.5929 7.19714C17.3186 7.48571 18.5714 8.965 18.5714 10.7143C18.5714 12.6836 16.9693 14.2857 15 14.2857Z" fill="#1C3048"/>
<path d="M13.3625 6.63915C13.6417 6.91844 13.6417 7.36987 13.3625 7.64915L9.79103 11.2206C9.65175 11.3599 9.46889 11.4299 9.28603 11.4299C9.10318 11.4299 8.92032 11.3599 8.78103 11.2206L6.63818 9.07772C6.35889 8.79844 6.35889 8.34701 6.63818 8.06772C6.91746 7.78844 7.36889 7.78844 7.64817 8.06772L9.28603 9.70558L12.3525 6.63915C12.6317 6.35987 13.0832 6.35987 13.3625 6.63915Z" fill="#1C3048"/>
</svg>
