<svg width="20" height="21" viewBox="0 0 20 21" fill="none" xmlns="http://www.w3.org/2000/svg">
<path d="M20 20L20 0.689655C20 0.506747 19.9273 0.331331 19.798 0.201995C19.6687 0.0726599 19.4933 -2.21506e-08 19.3103 -3.01458e-08C19.1274 -3.81409e-08 18.952 0.0726598 18.8227 0.201995C18.6933 0.331331 18.6207 0.506747 18.6207 0.689655L18.6207 20C18.6207 20.1829 18.6933 20.3583 18.8227 20.4877C18.952 20.617 19.1274 20.6897 19.3103 20.6897C19.4933 20.6897 19.6687 20.617 19.798 20.4877C19.9273 20.3583 20 20.1829 20 20Z" fill="#1C3048"/>
<path d="M5.51707 17.2421C5.51707 17.7908 5.73505 18.317 6.12306 18.705C6.51106 19.093 7.03731 19.311 7.58604 19.311L15.1722 19.311C15.721 19.311 16.2472 19.093 16.6352 18.705C17.0232 18.317 17.2412 17.7908 17.2412 17.2421L17.2412 13.1041C17.2412 12.5554 17.0232 12.0291 16.6352 11.6411C16.2472 11.2531 15.721 11.0352 15.1722 11.0352L7.58604 11.0352C7.03731 11.0352 6.51106 11.2531 6.12306 11.6411C5.73505 12.0291 5.51707 12.5554 5.51707 13.1041L5.51707 17.2421ZM7.58604 12.4145L15.1722 12.4145C15.3552 12.4145 15.5306 12.4871 15.6599 12.6165C15.7892 12.7458 15.8619 12.9212 15.8619 13.1041L15.8619 17.2421C15.8619 17.425 15.7892 17.6004 15.6599 17.7297C15.5306 17.859 15.3552 17.9317 15.1722 17.9317L7.58604 17.9317C7.40313 17.9317 7.22771 17.859 7.09838 17.7297C6.96904 17.6004 6.89638 17.425 6.89638 17.2421L6.89638 13.1041C6.89638 12.9212 6.96904 12.7458 7.09838 12.6165C7.22771 12.4871 7.40313 12.4145 7.58604 12.4145Z" fill="#1C3048"/>
<path d="M17.2412 7.5858L17.2412 3.44787C17.2412 2.89915 17.0232 2.3729 16.6352 1.98489C16.2472 1.59689 15.721 1.37891 15.1722 1.37891L2.0688 1.37891C1.52007 1.37891 0.993824 1.59689 0.605818 1.98489C0.217812 2.3729 -0.000167913 2.89915 -0.000167937 3.44787L-0.000168118 7.5858C-0.000168142 8.13453 0.217811 8.66077 0.605817 9.04878C0.993824 9.43679 1.52007 9.65477 2.0688 9.65477L15.1722 9.65477C15.721 9.65477 16.2472 9.43679 16.6352 9.04878C17.0232 8.66078 17.2412 8.13453 17.2412 7.5858ZM2.0688 8.27546C1.88589 8.27546 1.71047 8.2028 1.58114 8.07346C1.4518 7.94413 1.37914 7.76871 1.37914 7.5858L1.37914 3.44787C1.37914 3.26496 1.4518 3.08955 1.58114 2.96021C1.71047 2.83088 1.88589 2.75822 2.0688 2.75822L15.1722 2.75822C15.3552 2.75822 15.5306 2.83088 15.6599 2.96021C15.7892 3.08955 15.8619 3.26496 15.8619 3.44787L15.8619 7.5858C15.8619 7.76871 15.7892 7.94413 15.6599 8.07346C15.5306 8.2028 15.3552 8.27546 15.1722 8.27546L2.0688 8.27546Z" fill="#1C3048"/>
</svg>
