<svg width="24" height="24" viewBox="0 0 24 24" fill="none" xmlns="http://www.w3.org/2000/svg">
<mask id="mask0_1_62348" style="mask-type:luminance" maskUnits="userSpaceOnUse" x="2" y="3" width="20" height="19">
<path d="M2 3H22V22H2V3Z" fill="white"/>
</mask>
<g mask="url(#mask0_1_62348)">
<path d="M3.84113 20.25C3.50824 20.25 3.18895 20.1244 2.95355 19.9007C2.71816 19.6771 2.58594 19.3738 2.58594 19.0576V5.9407C2.58594 5.28212 3.14789 4.74826 3.84113 4.74826H7.08683C7.41972 4.74826 7.73898 4.87388 7.97441 5.0975C8.30574 5.41234 8.79054 5.87283 9.12187 6.18766C9.3573 6.41128 9.67656 6.5369 10.0095 6.5369H20.1588C20.4917 6.5369 20.8109 6.66255 21.0463 6.88617C21.2817 7.10979 21.414 7.41309 21.414 7.72937V19.0576C21.414 19.3738 21.2817 19.6771 21.0463 19.9007C20.8109 20.1244 20.4917 20.25 20.1588 20.25H3.84113Z" stroke="#1C3048" stroke-width="1.8" stroke-miterlimit="10" stroke-linecap="round" stroke-linejoin="round"/>
<path d="M21.414 10.7105C21.414 10.3942 21.2817 10.0909 21.0463 9.86728C20.8109 9.64366 20.4917 9.51804 20.1588 9.51804H3.84113C3.50824 9.51804 3.18894 9.64366 2.95359 9.86728C2.71816 10.0909 2.58594 10.3942 2.58594 10.7105V19.0576C2.58594 19.3738 2.71816 19.6771 2.95359 19.9008C3.18894 20.1244 3.50824 20.25 3.84113 20.25H20.1588C20.4917 20.25 20.8109 20.1244 21.0463 19.9008C21.2817 19.6771 21.414 19.3738 21.414 19.0576V10.7105Z" stroke="#1C3048" stroke-width="1.8" stroke-miterlimit="10" stroke-linecap="round" stroke-linejoin="round"/>
</g>
</svg>
