<svg width="24" height="24" viewBox="0 0 24 24" fill="none" xmlns="http://www.w3.org/2000/svg">
<path d="M4.92857 20.4286H5.75V18.7857H4.92857C4.05715 18.7857 3.22141 18.4395 2.60522 17.8233C1.98903 17.2072 1.64286 16.3714 1.64286 15.5C1.64286 14.6286 1.98903 13.7928 2.60522 13.1766C3.22141 12.5605 4.05715 12.2143 4.92857 12.2143C5.17194 12.2127 5.41462 12.2403 5.65143 12.2964C5.78521 12.3268 5.92446 12.3231 6.05646 12.2858C6.18847 12.2485 6.30903 12.1787 6.40714 12.0829C6.50459 11.9872 6.57665 11.8688 6.61681 11.7382C6.65697 11.6077 6.66396 11.4693 6.63714 11.3354C6.59273 11.0832 6.57074 10.8275 6.57143 10.5714C6.57143 9.26429 7.09069 8.01069 8.01497 7.0864C8.93926 6.16212 10.1929 5.64286 11.5 5.64286C12.8071 5.64286 14.0607 6.16212 14.985 7.0864C15.9093 8.01069 16.4286 9.26429 16.4286 10.5714C16.4293 10.8275 16.4073 11.0832 16.3629 11.3354C16.336 11.4693 16.343 11.6077 16.3832 11.7382C16.4233 11.8688 16.4954 11.9872 16.5929 12.0829C16.691 12.1787 16.8115 12.2485 16.9435 12.2858C17.0755 12.3231 17.2148 12.3268 17.3486 12.2964C17.5854 12.2403 17.8281 12.2127 18.0714 12.2143C18.9429 12.2143 19.7786 12.5605 20.3948 13.1766C21.011 13.7928 21.3571 14.6286 21.3571 15.5C21.3571 16.3714 21.011 17.2072 20.3948 17.8233C19.7786 18.4395 18.9429 18.7857 18.0714 18.7857H6.57143V20.4286H18.0714C19.3786 20.4286 20.6322 19.9093 21.5565 18.985C22.4807 18.0607 23 16.8071 23 15.5C23 14.1929 22.4807 12.9393 21.5565 12.015C20.6322 11.0907 19.3786 10.5714 18.0714 10.5714C18.0714 8.82858 17.3791 7.15711 16.1467 5.92473C14.9143 4.69234 13.2429 4 11.5 4C9.75715 4 8.08568 4.69234 6.8533 5.92473C5.62092 7.15711 4.92857 8.82858 4.92857 10.5714C3.62143 10.5714 2.36783 11.0907 1.44355 12.015C0.519259 12.9393 0 14.1929 0 15.5C0 16.8071 0.519259 18.0607 1.44355 18.985C2.36783 19.9093 3.62143 20.4286 4.92857 20.4286Z" fill="#1C3048"/>
<path d="M11.2616 16.9025L15.3687 12.7953L14.2023 11.6289L10.6784 15.161L8.79729 13.2718L7.63086 14.4382L10.0951 16.9025C10.1715 16.9795 10.2624 17.0406 10.3625 17.0823C10.4626 17.124 10.5699 17.1455 10.6784 17.1455C10.7868 17.1455 10.8942 17.124 10.9943 17.0823C11.0944 17.0406 11.1852 16.9795 11.2616 16.9025Z" fill="#1C3048"/>
</svg>
