<svg width="24" height="24" viewBox="0 0 24 24" fill="none" xmlns="http://www.w3.org/2000/svg">
<mask id="mask0_1_62328" style="mask-type:luminance" maskUnits="userSpaceOnUse" x="1" y="3" width="20" height="20">
<path d="M1.99951 3.00391H20.9995V22.0039H1.99951V3.00391Z" fill="white"/>
</mask>
<g mask="url(#mask0_1_62328)">
<path d="M11.5 9.58072C9.88773 9.58072 8.5807 10.8877 8.5807 12.5C8.5807 14.1123 9.88773 15.4192 11.5 15.4192C13.1122 15.4192 14.4193 14.1123 14.4193 12.5C14.4193 10.8877 13.1122 9.58072 11.5 9.58072ZM19.6938 10.4168L18.9034 11.0675C18.0018 11.8097 18.0018 13.1903 18.9034 13.9325L19.6938 14.5832C19.9739 14.8138 20.0462 15.2131 19.8648 15.5273L18.3041 18.2305C18.1227 18.5447 17.7407 18.6817 17.401 18.5544L16.4423 18.1953C15.3487 17.7856 14.1531 18.4759 13.9611 19.6278L13.7928 20.6376C13.7332 20.9955 13.4235 21.2578 13.0607 21.2578H9.93923C9.57645 21.2578 9.26681 20.9955 9.20718 20.6376L9.03885 19.6278C8.84688 18.4759 7.65125 17.7856 6.55768 18.1953L5.59899 18.5544C5.25922 18.6817 4.87725 18.5447 4.69582 18.2305L3.13511 15.5273C2.95372 15.2131 3.02605 14.8138 3.30615 14.5832L4.09658 13.9325C4.99815 13.1903 4.99815 11.8097 4.09658 11.0675L3.30615 10.4168C3.02605 10.1862 2.95372 9.7869 3.13511 9.47269L4.69582 6.76946C4.87725 6.45526 5.25922 6.31825 5.59899 6.44553L6.55768 6.80468C7.65125 7.21436 8.84688 6.52409 9.03885 5.37218L9.20718 4.36232C9.26681 4.00448 9.57645 3.74219 9.93923 3.74219H13.0607C13.4235 3.74219 13.7332 4.00448 13.7928 4.36232L13.9611 5.37218C14.1531 6.52409 15.3487 7.21436 16.4423 6.80468L17.401 6.44553C17.7407 6.31825 18.1227 6.45526 18.3041 6.76946L19.8648 9.47269C20.0462 9.7869 19.9739 10.1862 19.6938 10.4168Z" stroke="#1C3048" stroke-width="1.5625" stroke-miterlimit="10" stroke-linecap="round" stroke-linejoin="round"/>
</g>
</svg>
