<svg width="20" height="20" viewBox="0 0 20 20" fill="none" xmlns="http://www.w3.org/2000/svg">
<path d="M7.1276 6.07347L9.06272 4.13835V14.375C9.06272 14.6237 9.16149 14.8621 9.33731 15.0379C9.51312 15.2138 9.75158 15.3125 10.0002 15.3125C10.2489 15.3125 10.4873 15.2138 10.6631 15.0379C10.8389 14.8621 10.9377 14.6237 10.9377 14.375V4.13835L12.8728 6.07347C12.9598 6.16091 13.0632 6.23034 13.177 6.27777C13.2909 6.3252 13.4129 6.3497 13.5363 6.34986C13.6596 6.35003 13.7818 6.32586 13.8957 6.27874C14.0097 6.23163 14.1133 6.16248 14.2005 6.07528C14.2877 5.98807 14.3568 5.88451 14.4039 5.77054C14.451 5.65657 14.4752 5.53442 14.475 5.41109C14.4749 5.28776 14.4504 5.16568 14.403 5.05183C14.3555 4.93799 14.2861 4.83462 14.1987 4.74765L10.6632 1.2121C10.5761 1.12504 10.4727 1.05598 10.359 1.00887C10.2453 0.961751 10.1233 0.9375 10.0002 0.9375C9.8771 0.9375 9.75519 0.961751 9.64144 1.00887C9.5277 1.05598 9.42435 1.12504 9.33729 1.2121L5.80178 4.74765C5.71434 4.83462 5.64492 4.93799 5.59749 5.05183C5.55006 5.16568 5.52556 5.28776 5.52539 5.41109C5.52522 5.53442 5.54939 5.65657 5.59651 5.77054C5.64363 5.88451 5.71277 5.98807 5.79998 6.07528C5.88718 6.16248 5.99074 6.23163 6.10471 6.27874C6.21869 6.32586 6.34084 6.35003 6.46417 6.34986C6.58749 6.3497 6.70958 6.3252 6.82342 6.27777C6.93727 6.23034 7.04063 6.16091 7.1276 6.07347Z" fill="white"/>
<path d="M18.125 9.0625C17.8764 9.0625 17.6379 9.16127 17.4621 9.33709C17.2863 9.5129 17.1875 9.75136 17.1875 10V17.1875H2.8125V10C2.8125 9.75136 2.71373 9.5129 2.53791 9.33709C2.3621 9.16127 2.12364 9.0625 1.875 9.0625C1.62636 9.0625 1.3879 9.16127 1.21209 9.33709C1.03627 9.5129 0.9375 9.75136 0.9375 10V17.5C0.9375 17.9144 1.10212 18.3118 1.39515 18.6049C1.68817 18.8979 2.0856 19.0625 2.5 19.0625H17.5C17.9144 19.0625 18.3118 18.8979 18.6049 18.6049C18.8979 18.3118 19.0625 17.9144 19.0625 17.5V10C19.0625 9.75136 18.9637 9.5129 18.7879 9.33709C18.6121 9.16127 18.3736 9.0625 18.125 9.0625Z" fill="white"/>
</svg>
