<svg width="24" height="24" viewBox="0 0 24 24" fill="none" xmlns="http://www.w3.org/2000/svg">
<path d="M10.1358 7.19069C10.1358 8.0235 9.38418 8.69864 8.45698 8.69864H2.67885C1.75166 8.69864 1 8.0235 1 7.19069V3.50795C1 2.67514 1.75166 2 2.67885 2H8.45694C9.38418 2 10.1358 2.67514 10.1358 3.50795V7.19069Z" stroke="#1C3048" stroke-width="1.5" stroke-miterlimit="10" stroke-linecap="round" stroke-linejoin="round"/>
<path d="M22.9995 11.8797C22.9995 12.7126 22.2479 13.3877 21.3207 13.3877H15.3561C14.4289 13.3877 13.6772 12.7126 13.6772 11.8797V3.50795C13.6772 2.67514 14.4289 2 15.3561 2H21.3206C22.2479 2 22.9995 2.67514 22.9995 3.50795V11.8797Z" stroke="#1C3048" stroke-width="1.5" stroke-miterlimit="10" stroke-linecap="round" stroke-linejoin="round"/>
<path d="M22.9995 20.2504C22.9995 21.0832 22.2479 21.7584 21.3207 21.7584H15.3561C14.4289 21.7584 13.6772 21.0832 13.6772 20.2504V18.2424C13.6772 17.4095 14.4289 16.7344 15.3561 16.7344H21.3206C22.2479 16.7344 22.9995 17.4095 22.9995 18.2423V20.2504Z" stroke="#1C3048" stroke-width="1.5" stroke-miterlimit="10" stroke-linecap="round" stroke-linejoin="round"/>
<path d="M10.1358 20.2554C10.1358 21.0882 9.38418 21.7633 8.45698 21.7633H2.67885C1.75166 21.7633 1 21.0882 1 20.2554V13.3908C1 12.558 1.75166 11.8828 2.67885 11.8828H8.45694C9.38418 11.8828 10.1358 12.558 10.1358 13.3908V20.2554Z" stroke="#1C3048" stroke-width="1.5" stroke-miterlimit="10" stroke-linecap="round" stroke-linejoin="round"/>
</svg>
