<svg width="20" height="20" viewBox="0 0 20 20" fill="none" xmlns="http://www.w3.org/2000/svg">
<path d="M19 2H1C0.734783 2 0.480429 1.89464 0.292892 1.70711C0.105356 1.51957 0 1.26522 0 1C0 0.734784 0.105356 0.48043 0.292892 0.292893C0.480429 0.105357 0.734783 0 1 0H19C19.2652 0 19.5196 0.105357 19.7071 0.292893C19.8946 0.48043 20 0.734784 20 1C20 1.26522 19.8946 1.51957 19.7071 1.70711C19.5196 1.89464 19.2652 2 19 2Z" fill="#1C3048"/>
<path d="M18.5714 8H1.42857C1.04969 8 0.686327 7.89464 0.418419 7.70711C0.150509 7.51957 0 7.26522 0 7C0 6.73478 0.150509 6.48043 0.418419 6.29289C0.686327 6.10536 1.04969 6 1.42857 6H18.5714C18.9503 6 19.3137 6.10536 19.5816 6.29289C19.8495 6.48043 20 6.73478 20 7C20 7.26522 19.8495 7.51957 19.5816 7.70711C19.3137 7.89464 18.9503 8 18.5714 8Z" fill="#1C3048"/>
<path d="M19 14H1C0.734783 14 0.480429 13.8946 0.292892 13.7071C0.105356 13.5196 0 13.2652 0 13C0 12.7348 0.105356 12.4804 0.292892 12.2929C0.480429 12.1054 0.734783 12 1 12H19C19.2652 12 19.5196 12.1054 19.7071 12.2929C19.8946 12.4804 20 12.7348 20 13C20 13.2652 19.8946 13.5196 19.7071 13.7071C19.5196 13.8946 19.2652 14 19 14Z" fill="#1C3048"/>
<path d="M18.5714 20H1.42857C1.04969 20 0.686327 19.8946 0.418419 19.7071C0.150509 19.5196 0 19.2652 0 19C0 18.7348 0.150509 18.4804 0.418419 18.2929C0.686327 18.1054 1.04969 18 1.42857 18H18.5714C18.9503 18 19.3137 18.1054 19.5816 18.2929C19.8495 18.4804 20 18.7348 20 19C20 19.2652 19.8495 19.5196 19.5816 19.7071C19.3137 19.8946 18.9503 20 18.5714 20Z" fill="#1C3048"/>
</svg>
