<svg width="24" height="24" viewBox="0 0 24 24" fill="none" xmlns="http://www.w3.org/2000/svg">
<path d="M20.4607 11.5779C20.4607 11.3442 20.2713 11.1548 20.0376 11.1548H19.1915C18.9578 11.1548 18.7684 11.3442 18.7684 11.5779C18.7684 11.8115 18.9578 12.001 19.1915 12.001H20.0376C20.2713 12.001 20.4607 11.8115 20.4607 11.5779ZM20.4607 22.5774C20.4607 22.8111 20.2713 23.0005 20.0376 23.0005H19.1915C18.9578 23.0005 18.7684 22.8111 18.7684 22.5774C18.7684 22.3438 18.9578 22.1544 19.1915 22.1544H20.0376C20.2713 22.1544 20.4607 22.3438 20.4607 22.5774ZM17.9223 22.5774C17.9223 22.8111 17.7329 23.0005 17.4993 23.0005H16.6531C16.4195 23.0005 16.2301 22.8111 16.2301 22.5774C16.2301 22.3438 16.4195 22.1544 16.6531 22.1544H17.4993C17.7329 22.1544 17.9223 22.3438 17.9223 22.5774ZM15.384 22.5774C15.384 22.8111 15.1946 23.0005 14.9609 23.0005H14.1148C13.8811 23.0005 13.6917 22.8111 13.6917 22.5774C13.6917 22.3438 13.8811 22.1544 14.1148 22.1544H14.9609C15.1946 22.1544 15.384 22.3438 15.384 22.5774ZM22.999 12.424C22.999 12.6577 22.8096 12.8471 22.576 12.8471C22.3423 12.8471 22.1529 12.6577 22.1529 12.424C22.1529 12.1904 21.9635 12.001 21.7298 12.001C21.4962 12.001 21.3068 11.8115 21.3068 11.5779C21.3068 11.3442 21.4962 11.1548 21.7298 11.1548H22.1529C22.6202 11.1548 22.999 11.5337 22.999 12.001V12.424ZM22.1529 14.1162C22.1529 13.8826 22.3423 13.6932 22.576 13.6932C22.8096 13.6932 22.999 13.8826 22.999 14.1162V14.9624C22.999 15.196 22.8096 15.3854 22.576 15.3854C22.3423 15.3854 22.1529 15.196 22.1529 14.9624V14.1162ZM22.1529 16.6546C22.1529 16.421 22.3423 16.2315 22.576 16.2315C22.8096 16.2315 22.999 16.421 22.999 16.6546V17.5007C22.999 17.7344 22.8096 17.9238 22.576 17.9238C22.3423 17.9238 22.1529 17.7344 22.1529 17.5007V16.6546ZM22.1529 19.193C22.1529 18.9593 22.3423 18.7699 22.576 18.7699C22.8096 18.7699 22.999 18.9593 22.999 19.193V20.0391C22.999 20.2727 22.8096 20.4621 22.576 20.4621C22.3423 20.4621 22.1529 20.2727 22.1529 20.0391V19.193ZM22.1529 21.7313C22.1529 21.4977 22.3423 21.3083 22.576 21.3083C22.8096 21.3083 22.999 21.4977 22.999 21.7313V22.1544C22.999 22.6217 22.6202 23.0005 22.1529 23.0005H21.7298C21.4962 23.0005 21.3068 22.8111 21.3068 22.5774C21.3068 22.3438 21.4962 22.1544 21.7298 22.1544C21.9635 22.1544 22.1529 21.965 22.1529 21.7313ZM11.9995 20.0391C11.9995 20.2727 11.8101 20.4621 11.5764 20.4621C11.3428 20.4621 11.1534 20.2727 11.1534 20.0391V19.193C11.1534 18.9593 11.3428 18.7699 11.5764 18.7699C11.8101 18.7699 11.9995 18.9593 11.9995 19.193V20.0391ZM11.9995 21.7313C11.9995 21.965 12.1889 22.1544 12.4225 22.1544C12.6562 22.1544 12.8456 22.3438 12.8456 22.5774C12.8456 22.8111 12.6562 23.0005 12.4225 23.0005H11.9995C11.5322 23.0005 11.1534 22.6217 11.1534 22.1544V21.7313C11.1534 21.4977 11.3428 21.3083 11.5764 21.3083C11.8101 21.3083 11.9995 21.4977 11.9995 21.7313ZM7.07666 6.07812C6.52438 6.07812 6.07666 6.52584 6.07666 7.07813V16.9238C6.07666 17.4761 6.52438 17.9238 7.07666 17.9238H16.9223C17.4746 17.9238 17.9223 17.4761 17.9223 16.9238V7.07813C17.9223 6.52584 17.4746 6.07812 16.9223 6.07812H7.07666ZM6.92278 7.92424C6.92278 7.37196 7.3705 6.92424 7.92278 6.92424H16.0762C16.6285 6.92424 17.0762 7.37196 17.0762 7.92424V16.0777C17.0762 16.6299 16.6285 17.0777 16.0762 17.0777H7.92278C7.3705 17.0777 6.92278 16.6299 6.92278 16.0777V7.92424Z" fill="#1C3048" stroke="#1C3048" stroke-width="0.5"/>
<path d="M3.53835 12.4221C3.53835 12.6558 3.72776 12.8452 3.96141 12.8452H4.80753C5.04118 12.8452 5.23059 12.6558 5.23059 12.4221C5.23059 12.1885 5.04118 11.999 4.80753 11.999H3.96141C3.72776 11.999 3.53835 12.1885 3.53835 12.4221ZM3.53835 1.42257C3.53835 1.18892 3.72776 0.999514 3.96141 0.999514H4.80753C5.04118 0.999514 5.23059 1.18892 5.23059 1.42257C5.23059 1.65622 5.04118 1.84563 4.80753 1.84563H3.96141C3.72776 1.84563 3.53835 1.65622 3.53835 1.42257ZM6.07671 1.42257C6.07671 1.18892 6.26612 0.999514 6.49977 0.999514H7.34589C7.57954 0.999514 7.76894 1.18892 7.76894 1.42257C7.76894 1.65622 7.57953 1.84563 7.34589 1.84563H6.49977C6.26612 1.84563 6.07671 1.65622 6.07671 1.42257ZM8.61506 1.42257C8.61506 1.18892 8.80447 0.999514 9.03812 0.999514H9.88424C10.1179 0.999514 10.3073 1.18892 10.3073 1.42257C10.3073 1.65622 10.1179 1.84563 9.88424 1.84563H9.03812C8.80447 1.84563 8.61506 1.65622 8.61506 1.42257ZM1 11.576C1 11.3423 1.18941 11.1529 1.42306 11.1529C1.65671 11.1529 1.84612 11.3423 1.84612 11.576C1.84612 11.8096 2.03553 11.999 2.26918 11.999C2.50283 11.999 2.69224 12.1885 2.69224 12.4221C2.69224 12.6558 2.50283 12.8452 2.26918 12.8452H1.84612C1.37882 12.8452 1 12.4663 1 11.999V11.576ZM1.84612 9.88375C1.84612 10.1174 1.65671 10.3068 1.42306 10.3068C1.18941 10.3068 1 10.1174 1 9.88375V9.03763C1 8.80399 1.18941 8.61458 1.42306 8.61458C1.65671 8.61458 1.84612 8.80399 1.84612 9.03764V9.88375ZM1.84612 7.3454C1.84612 7.57905 1.65671 7.76846 1.42306 7.76846C1.18941 7.76846 1 7.57905 1 7.3454V6.49928C1 6.26563 1.18941 6.07622 1.42306 6.07622C1.65671 6.07622 1.84612 6.26563 1.84612 6.49928V7.3454ZM1.84612 4.80704C1.84612 5.04069 1.65671 5.2301 1.42306 5.2301C1.18941 5.2301 1 5.04069 1 4.80704V3.96093C1 3.72728 1.18941 3.53787 1.42306 3.53787C1.65671 3.53787 1.84612 3.72728 1.84612 3.96093V4.80704ZM1.84612 2.26869C1.84612 2.50234 1.65671 2.69175 1.42306 2.69175C1.18941 2.69175 1 2.50234 1 2.26869V1.84563C1 1.37833 1.37882 0.999514 1.84612 0.999514H2.26918C2.50283 0.999514 2.69224 1.18892 2.69224 1.42257C2.69224 1.65622 2.50283 1.84563 2.26918 1.84563C2.03553 1.84563 1.84612 2.03504 1.84612 2.26869ZM11.9995 3.96093C11.9995 3.72728 12.1889 3.53787 12.4226 3.53787C12.6562 3.53787 12.8457 3.72728 12.8457 3.96093V4.80704C12.8457 5.04069 12.6562 5.2301 12.4226 5.2301C12.1889 5.2301 11.9995 5.04069 11.9995 4.80704V3.96093ZM11.9995 2.26869C11.9995 2.03504 11.8101 1.84563 11.5765 1.84563C11.3428 1.84563 11.1534 1.65622 11.1534 1.42257C11.1534 1.18892 11.3428 0.999514 11.5765 0.999514H11.9995C12.4668 0.999514 12.8457 1.37833 12.8457 1.84563V2.26869C12.8457 2.50234 12.6562 2.69175 12.4226 2.69175C12.1889 2.69175 11.9995 2.50234 11.9995 2.26869ZM16.9224 17.9219C17.4746 17.9219 17.9224 17.4742 17.9224 16.9219V7.07622C17.9224 6.52394 17.4746 6.07622 16.9224 6.07622H7.07671C6.52443 6.07622 6.07671 6.52394 6.07671 7.07622V16.9219C6.07671 17.4742 6.52442 17.9219 7.07671 17.9219H16.9224ZM17.0762 16.0758C17.0762 16.628 16.6285 17.0758 16.0762 17.0758H7.92283C7.37054 17.0758 6.92283 16.628 6.92283 16.0758V7.92234C6.92283 7.37006 7.37054 6.92234 7.92283 6.92234H16.0762C16.6285 6.92234 17.0762 7.37006 17.0762 7.92234V16.0758Z" fill="#1C3048" stroke="#1C3048" stroke-width="0.5"/>
<path d="M10.9372 11.2473L10.9372 14.3011C10.9386 14.3819 10.9717 14.459 11.0294 14.5157C11.0871 14.5724 11.1647 14.6042 11.2456 14.6042C11.3265 14.6042 11.4042 14.5724 11.4619 14.5157C11.5195 14.459 11.5527 14.3819 11.5541 14.3011V11.992L15.3901 15.828C15.4479 15.8858 15.5264 15.9183 15.6082 15.9183C15.69 15.9183 15.7685 15.8858 15.8263 15.828C15.8842 15.7701 15.9167 15.6916 15.9167 15.6098C15.9167 15.528 15.8842 15.4496 15.8263 15.3917L11.9903 11.5557H14.2994C14.3404 11.5564 14.3811 11.549 14.4191 11.5338C14.4572 11.5186 14.4918 11.496 14.521 11.4673C14.5502 11.4386 14.5734 11.4043 14.5893 11.3665C14.6051 11.3288 14.6133 11.2882 14.6133 11.2473C14.6133 11.2063 14.6051 11.1657 14.5893 11.128C14.5734 11.0902 14.5502 11.056 14.521 11.0272C14.4918 10.9985 14.4572 10.9759 14.4191 10.9607C14.3811 10.9456 14.3404 10.9381 14.2994 10.9388L11.2456 10.9388C11.1638 10.9388 11.0854 10.9713 11.0275 11.0292C10.9697 11.087 10.9372 11.1655 10.9372 11.2473Z" fill="#1C3048" stroke="#1C3048" stroke-width="0.5"/>
</svg>
