<svg width="21" height="20" viewBox="0 0 21 20" fill="none" xmlns="http://www.w3.org/2000/svg">
<path d="M20 0H0.689655C0.506747 0 0.331331 0.0726599 0.201995 0.201995C0.0726599 0.331331 0 0.506747 0 0.689655C0 0.872563 0.0726599 1.04798 0.201995 1.17732C0.331331 1.30665 0.506747 1.37931 0.689655 1.37931H20C20.1829 1.37931 20.3583 1.30665 20.4877 1.17732C20.617 1.04798 20.6897 0.872563 20.6897 0.689655C20.6897 0.506747 20.617 0.331331 20.4877 0.201995C20.3583 0.0726599 20.1829 0 20 0Z" fill="#1C3048"/>
<path d="M17.2416 14.482C17.7903 14.482 18.3165 14.264 18.7045 13.876C19.0926 13.488 19.3105 12.9617 19.3105 12.413V4.82678C19.3105 4.27805 19.0926 3.7518 18.7045 3.3638C18.3165 2.97579 17.7903 2.75781 17.2416 2.75781H13.1036C12.5549 2.75781 12.0287 2.97579 11.6407 3.3638C11.2526 3.7518 11.0347 4.27805 11.0347 4.82678V12.413C11.0347 12.9617 11.2526 13.488 11.6407 13.876C12.0287 14.264 12.5549 14.482 13.1036 14.482H17.2416ZM12.414 12.413V4.82678C12.414 4.64387 12.4866 4.46845 12.616 4.33912C12.7453 4.20978 12.9207 4.13712 13.1036 4.13712H17.2416C17.4245 4.13712 17.5999 4.20978 17.7292 4.33912C17.8586 4.46845 17.9312 4.64387 17.9312 4.82678V12.413C17.9312 12.5959 17.8586 12.7713 17.7292 12.9006C17.5999 13.03 17.4245 13.1026 17.2416 13.1026H13.1036C12.9207 13.1026 12.7453 13.03 12.616 12.9006C12.4866 12.7713 12.414 12.5959 12.414 12.413Z" fill="#1C3048"/>
<path d="M7.58629 2.75781H3.44836C2.89964 2.75781 2.37339 2.97579 1.98538 3.3638C1.59737 3.7518 1.37939 4.27805 1.37939 4.82678V17.9302C1.37939 18.4789 1.59737 19.0052 1.98538 19.3932C2.37339 19.7812 2.89964 19.9992 3.44836 19.9992H7.58629C8.13501 19.9992 8.66126 19.7812 9.04927 19.3932C9.43728 19.0052 9.65526 18.4789 9.65526 17.9302V4.82678C9.65526 4.27805 9.43728 3.7518 9.04927 3.3638C8.66126 2.97579 8.13501 2.75781 7.58629 2.75781ZM8.27595 17.9302C8.27595 18.1131 8.20329 18.2886 8.07395 18.4179C7.94461 18.5472 7.7692 18.6199 7.58629 18.6199H3.44836C3.26545 18.6199 3.09004 18.5472 2.9607 18.4179C2.83136 18.2886 2.7587 18.1131 2.7587 17.9302V4.82678C2.7587 4.64387 2.83136 4.46845 2.9607 4.33912C3.09004 4.20978 3.26545 4.13712 3.44836 4.13712H7.58629C7.7692 4.13712 7.94461 4.20978 8.07395 4.33912C8.20329 4.46845 8.27595 4.64387 8.27595 4.82678V17.9302Z" fill="#1C3048"/>
</svg>
