<svg width="21" height="21" viewBox="0 0 21 21" fill="none" xmlns="http://www.w3.org/2000/svg">
<path d="M11.2979 4.28449C11.2979 4.95059 10.7556 5.4924 10.0895 5.4924C9.42345 5.4924 8.88123 4.95059 8.88123 4.28449C8.88123 3.61799 9.42345 3.07617 10.0895 3.07617C10.7556 3.07617 11.2979 3.61799 11.2979 4.28449Z" fill="#1C3048"/>
<path d="M17.4483 0H3.55142C1.88988 0 0.939544 1.13531 1.03593 1.04426C0.803372 1.28174 0.79845 1.66852 1.04044 1.91092L9.96012 10.8306L15.1531 5.63719C15.3922 5.39807 15.7819 5.39602 16.0231 5.63719L20.9999 10.6136V3.55154C20.9999 1.59305 19.4068 0 17.4483 0ZM10.0897 6.72287C8.74524 6.72287 7.65094 5.62898 7.65094 4.28449C7.65094 2.93959 8.74524 1.8457 10.0897 1.8457C11.4342 1.8457 12.5285 2.93959 12.5285 4.28449C12.5285 5.62898 11.4342 6.72287 10.0897 6.72287Z" fill="#1C3048"/>
<path d="M15.5882 6.94336L20.9998 12.3554V17.4495C20.9998 18.3986 20.6302 19.2903 19.9592 19.9609C19.7209 20.1988 19.3321 20.2033 19.0893 19.9609L10.83 11.7016L15.5882 6.94336Z" fill="#1C3048"/>
<path d="M16.3404 20.8198L0.180202 4.65964C-0.0600674 4.41937 -0.0600674 4.02985 0.180202 3.78958C0.420431 3.54931 0.809998 3.54931 1.05027 3.78958L17.2104 19.9497C17.4507 20.19 17.4507 20.5795 17.2104 20.8198C16.9702 21.06 16.5806 21.0601 16.3404 20.8198Z" fill="#1C3048"/>
<path d="M12.731 20.8198L0.180202 8.26902C-0.0600674 8.02875 -0.0600674 7.63922 0.180202 7.39895C0.420431 7.15868 0.809998 7.15868 1.05027 7.39895L13.6011 19.9497C13.8413 20.19 13.8413 20.5795 13.6011 20.8198C13.3608 21.06 12.9712 21.0601 12.731 20.8198Z" fill="#1C3048"/>
<path d="M9.12162 20.8198L0.180202 11.8784C-0.0600674 11.6381 -0.0600674 11.2486 0.180202 11.0083C0.420431 10.7681 0.809998 10.7681 1.05027 11.0083L9.99168 19.9497C10.232 20.19 10.232 20.5795 9.99168 20.8198C9.75145 21.06 9.36185 21.0601 9.12162 20.8198Z" fill="#1C3048"/>
<path d="M5.51224 20.8198L0.180202 15.4878C-0.0600674 15.2475 -0.0600674 14.858 0.180202 14.6177C0.420431 14.3774 0.809998 14.3774 1.05027 14.6177L6.3823 19.9497C6.62257 20.19 6.62257 20.5795 6.3823 20.8198C6.14208 21.06 5.75247 21.0601 5.51224 20.8198Z" fill="#1C3048"/>
<path d="M1.90286 20.8198L0.180202 19.0971C-0.0600674 18.8569 -0.0600674 18.4673 0.180202 18.2271C0.420431 17.9868 0.809998 17.9868 1.05027 18.2271L2.77293 19.9497C3.0132 20.19 3.0132 20.5795 2.77293 20.8198C2.5327 21.06 2.14309 21.0601 1.90286 20.8198Z" fill="#1C3048"/>
</svg>
