<svg width="19" height="17" viewBox="0 0 19 17" fill="none" xmlns="http://www.w3.org/2000/svg">
<path id="Vector" d="M9.43001 16C9.18998 16 8.95857 15.913 8.77823 15.7551C8.09713 15.1595 7.44046 14.5998 6.8611 14.1062L6.85814 14.1036C5.15956 12.6561 3.69278 11.406 2.67221 10.1747C1.53138 8.79804 1 7.49281 1 6.06693C1 4.68157 1.47504 3.40348 2.33751 2.46794C3.21028 1.52134 4.40784 1 5.70998 1C6.68321 1 7.57449 1.30769 8.35902 1.91444C8.75495 2.22071 9.11383 2.59555 9.43001 3.03277C9.74631 2.59555 10.1051 2.22071 10.5011 1.91444C11.2856 1.30769 12.1769 1 13.1502 1C14.4522 1 15.6499 1.52134 16.5226 2.46794C17.3851 3.40348 17.86 4.68157 17.86 6.06693C17.86 7.49281 17.3288 8.79804 16.1879 10.1745C15.1674 11.406 13.7007 12.656 12.0024 14.1033C11.422 14.5978 10.7643 15.1584 10.0817 15.7553C9.90144 15.913 9.66991 16 9.43001 16ZM5.70998 1.98763C4.68697 1.98763 3.74719 2.39591 3.06351 3.13734C2.36967 3.88997 1.98751 4.93034 1.98751 6.06693C1.98751 7.26616 2.43321 8.3387 3.43255 9.54449C4.39845 10.71 5.83514 11.9343 7.4986 13.352L7.50169 13.3546C8.08323 13.8502 8.74247 14.412 9.42859 15.012C10.1188 14.4109 10.7791 13.8481 11.3618 13.3517C13.0251 11.9341 14.4617 10.71 15.4276 9.54449C16.4268 8.3387 16.8725 7.26616 16.8725 6.06693C16.8725 4.93034 16.4903 3.88997 15.7965 3.13734C15.113 2.39591 14.173 1.98763 13.1502 1.98763C12.4008 1.98763 11.7127 2.22586 11.1052 2.69562C10.5638 3.11445 10.1866 3.6439 9.9655 4.01436C9.85179 4.20486 9.65164 4.31857 9.43001 4.31857C9.20837 4.31857 9.00822 4.20486 8.89451 4.01436C8.67352 3.6439 8.29638 3.11445 7.75484 2.69562C7.14731 2.22586 6.45926 1.98763 5.70998 1.98763Z" fill="#1C3048" stroke="#1C3048" stroke-width="0.5"/>
</svg>
