<svg width="24" height="24" viewBox="0 0 24 24" fill="none" xmlns="http://www.w3.org/2000/svg">
<path d="M17.684 5.90091C17.3688 4.76929 16.6418 3.76468 15.6183 3.04661C14.5948 2.32855 13.3336 1.93818 12.0349 1.9375C10.7362 1.93682 9.47446 2.32587 8.45006 3.04288C7.42566 3.75988 6.6973 4.76373 6.38066 5.89502C4.88704 6.02092 3.50482 6.6588 2.52111 7.67614C1.53741 8.69349 1.02783 10.0121 1.09823 11.3581C1.16863 12.7041 1.81359 13.974 2.89915 14.904C3.9847 15.834 5.42741 16.3527 6.9276 16.3523H9.11534C9.30874 16.3523 9.49423 16.2833 9.63099 16.1604C9.76775 16.0376 9.84458 15.871 9.84458 15.6973C9.84458 15.5236 9.76775 15.357 9.63099 15.2341C9.49423 15.1113 9.30874 15.0423 9.11534 15.0423H6.9276C6.353 15.0438 5.7837 14.9436 5.2522 14.7475C4.7207 14.5514 4.23741 14.2632 3.82992 13.8993C3.00697 13.1644 2.54274 12.166 2.53935 11.1237C2.53597 10.0813 2.99371 9.0805 3.81188 8.34131C4.63005 7.60213 5.74162 7.18516 6.90207 7.18212C7.08919 7.19477 7.27487 7.14454 7.42309 7.04118C7.57131 6.93782 7.67151 6.7887 7.70424 6.62274C7.85274 5.68742 8.37193 4.83162 9.16647 4.21251C9.96101 3.5934 10.9776 3.25255 12.0294 3.25255C13.0813 3.25255 14.0978 3.5934 14.8923 4.21251C15.6869 4.83162 16.2061 5.68742 16.3546 6.62274C16.3927 6.78294 16.4916 6.92628 16.6343 7.02829C16.777 7.13031 16.9547 7.18468 17.1371 7.18212C18.2975 7.18212 19.4104 7.59618 20.231 8.33321C21.0515 9.07024 21.5125 10.0699 21.5125 11.1122C21.5125 12.1545 21.0515 13.1541 20.231 13.8912C19.4104 14.6282 18.2975 15.0423 17.1371 15.0423H14.9493C14.7559 15.0423 14.5704 15.1113 14.4337 15.2341C14.2969 15.357 14.2201 15.5236 14.2201 15.6973C14.2201 15.871 14.2969 16.0376 14.4337 16.1604C14.5704 16.2833 14.7559 16.3523 14.9493 16.3523H17.1371C18.6263 16.3383 20.0531 15.8133 21.1253 14.8848C22.1974 13.9563 22.8336 12.6947 22.9035 11.3585C22.9735 10.0223 22.4718 8.71266 21.5014 7.69795C20.5309 6.68325 19.1652 6.04032 17.684 5.90091Z" fill="#1C3048" stroke="#1C3048" stroke-width="0.2"/>
<path d="M15.1627 12.5766C15.3002 12.6959 15.4845 12.762 15.6757 12.7605C15.8669 12.759 16.0498 12.6901 16.185 12.5686C16.3202 12.4472 16.3969 12.2829 16.3985 12.1112C16.4002 11.9394 16.3267 11.774 16.1939 11.6504L12.5476 8.37537C12.4109 8.25258 12.2254 8.18359 12.032 8.18359C11.8387 8.18359 11.6532 8.25258 11.5165 8.37537L7.87024 11.6504C7.7374 11.774 7.66389 11.9394 7.66555 12.1112C7.66722 12.2829 7.74391 12.4472 7.87912 12.5686C8.01433 12.6901 8.19723 12.759 8.38844 12.7605C8.57964 12.762 8.76385 12.6959 8.90139 12.5766L11.3028 10.4197V18.6636C11.3028 18.8374 11.3796 19.004 11.5164 19.1268C11.6532 19.2497 11.8386 19.3187 12.032 19.3187C12.2255 19.3187 12.4109 19.2497 12.5477 19.1268C12.6845 19.004 12.7613 18.8374 12.7613 18.6636V10.4197L15.1627 12.5766Z" fill="#1C3048"/>
</svg>
