<svg width="20" height="20" viewBox="0 0 20 20" fill="none" xmlns="http://www.w3.org/2000/svg">
<path d="M15.8325 7.9836L13.6908 8.51693L11.0158 5.1836C10.8987 5.0376 10.7503 4.91978 10.5815 4.83882C10.4128 4.75785 10.228 4.71582 10.0408 4.71582C9.85364 4.71582 9.66886 4.75785 9.50011 4.83882C9.33136 4.91978 9.18294 5.0376 9.06581 5.1836L6.39081 8.51693L4.20748 7.9836C3.99824 7.93352 3.77965 7.93792 3.5726 7.9964C3.36554 8.05487 3.17694 8.16546 3.02481 8.31759C2.87267 8.46973 2.76209 8.65833 2.70361 8.86538C2.64514 9.07243 2.64073 9.29102 2.69081 9.50026L4.16581 14.6836C4.21622 14.8638 4.32584 15.0219 4.47701 15.1322C4.62819 15.2426 4.81211 15.2988 4.99915 15.2919H14.9991C15.1862 15.2988 15.3701 15.2426 15.5213 15.1322C15.6725 15.0219 15.7821 14.8638 15.8325 14.6836L17.3158 9.50026C17.3637 9.29435 17.3589 9.07969 17.3019 8.8761C17.245 8.67251 17.1376 8.48656 16.9898 8.33542C16.842 8.18428 16.6585 8.07282 16.4562 8.01133C16.2539 7.94984 16.0394 7.9403 15.8325 7.9836Z" fill="white"/>
<path d="M2.29167 7.08333C2.86696 7.08333 3.33333 6.61696 3.33333 6.04167C3.33333 5.46637 2.86696 5 2.29167 5C1.71637 5 1.25 5.46637 1.25 6.04167C1.25 6.61696 1.71637 7.08333 2.29167 7.08333Z" fill="white"/>
<path d="M17.7077 7.08333C18.283 7.08333 18.7493 6.61696 18.7493 6.04167C18.7493 5.46637 18.283 5 17.7077 5C17.1324 5 16.666 5.46637 16.666 6.04167C16.666 6.61696 17.1324 7.08333 17.7077 7.08333Z" fill="white"/>
<path d="M10.0007 3.54183C10.5759 3.54183 11.0423 3.07546 11.0423 2.50016C11.0423 1.92487 10.5759 1.4585 10.0007 1.4585C9.42535 1.4585 8.95898 1.92487 8.95898 2.50016C8.95898 3.07546 9.42535 3.54183 10.0007 3.54183Z" fill="white"/>
<path d="M14.9994 18.3337H4.99935C4.77834 18.3337 4.56637 18.2459 4.41009 18.0896C4.25381 17.9333 4.16602 17.7213 4.16602 17.5003C4.16602 17.2793 4.25381 17.0673 4.41009 16.9111C4.56637 16.7548 4.77834 16.667 4.99935 16.667H14.9994C15.2204 16.667 15.4323 16.7548 15.5886 16.9111C15.7449 17.0673 15.8327 17.2793 15.8327 17.5003C15.8327 17.7213 15.7449 17.9333 15.5886 18.0896C15.4323 18.2459 15.2204 18.3337 14.9994 18.3337Z" fill="white"/>
</svg>
