<svg width="24" height="24" viewBox="0 0 24 24" fill="none" xmlns="http://www.w3.org/2000/svg">
<path d="M10.2824 8.54581C9.86824 8.29831 9.3374 8.59748 9.3374 9.08248V14.9158C9.3374 15.4033 9.86907 15.6983 10.2824 15.4533L15.1732 12.5408C15.5799 12.2983 15.5791 11.71 15.1741 11.4666L10.2824 8.54581ZM10.5874 13.8166V10.1833L13.6332 12.0025L10.5874 13.8166Z" fill="#1C3048" stroke="#1C3048" stroke-width="0.2"/>
<path d="M18.5867 4.7268C14.7092 4.15096 9.2925 4.15096 5.41333 4.7268C3.86167 4.9568 2.63917 6.17513 2.3725 7.7568C1.87583 10.6926 1.87583 13.3101 2.3725 16.2451C2.63917 17.8276 3.86167 19.0451 5.41333 19.2751C7.35667 19.5635 9.68333 19.7076 12.0092 19.7076C14.3308 19.7076 16.6517 19.5643 18.5875 19.276C20.1375 19.046 21.3592 17.8285 21.6275 16.246C22.1242 13.3101 22.1242 10.6918 21.6275 7.75596C21.3608 6.17513 20.1383 4.9568 18.5867 4.7268ZM20.395 16.0376C20.2175 17.0843 19.4175 17.8893 18.4033 18.0393C14.6383 18.5985 9.37167 18.5985 5.59667 18.0385C4.58167 17.8876 3.78083 17.0835 3.60417 16.0368C3.12583 13.2085 3.12583 10.7943 3.60417 7.9643C3.78167 6.91763 4.58167 6.1143 5.5975 5.96263C7.4825 5.68346 9.74167 5.54346 11.9992 5.54346C14.2583 5.54346 16.5175 5.68346 18.4025 5.96263C19.4175 6.11346 20.2183 6.91763 20.395 7.9643C20.8733 10.7943 20.8733 13.2085 20.395 16.0376Z" fill="#1C3048" stroke="#1C3048" stroke-width="0.2"/>
</svg>
