<svg width="18" height="18" viewBox="0 0 18 18" fill="none" xmlns="http://www.w3.org/2000/svg">
<path id="Vector" d="M9 0C8.34594 0 7.81579 0.530146 7.81579 1.18421V7.81579H1.18421C0.530146 7.81579 0 8.34593 0 9C0 9.65406 0.530146 10.1842 1.18421 10.1842H7.81579V16.8158C7.81579 17.4699 8.34594 18 9 18C9.65407 18 10.1842 17.4699 10.1842 16.8158V10.1842H16.8158C17.4699 10.1842 18 9.65406 18 9C18 8.34593 17.4699 7.81579 16.8158 7.81579H10.1842V1.18421C10.1842 0.530146 9.65407 0 9 0Z" fill="#1C3048"/>
</svg>
