<svg width="27" height="19" viewBox="0 0 27 19" fill="none" xmlns="http://www.w3.org/2000/svg">
<path id="Vector" d="M23.3214 1.80197H12.6071C12.3555 1.54927 12.0472 1.34719 11.7026 1.20898C11.3579 1.07077 10.9846 0.999558 10.6071 1H3.67857C2.96817 1 2.28687 1.25348 1.78454 1.70467C1.28221 2.15587 1 2.76782 1 3.4059V16.2374C1 16.8755 1.28221 17.4874 1.78454 17.9386C2.28687 18.3898 2.96817 18.6433 3.67857 18.6433H23.3214C24.0318 18.6433 24.7131 18.3898 25.2155 17.9386C25.7178 17.4874 26 16.8755 26 16.2374V4.20787C26 3.56979 25.7178 2.95784 25.2155 2.50664C24.7131 2.05545 24.0318 1.80197 23.3214 1.80197ZM24.2143 4.20787V4.35223C23.928 4.25886 23.626 4.21004 23.3214 4.20787H14.6071C14.4407 4.20891 14.2773 4.16816 14.1353 4.09023C13.9934 4.01229 13.8784 3.90027 13.8036 3.76679L13.6071 3.4059H23.3214C23.5582 3.4059 23.7853 3.4904 23.9528 3.6408C24.1202 3.79119 24.2143 3.99518 24.2143 4.20787ZM24.2143 16.2374C24.2143 16.4501 24.1202 16.6541 23.9528 16.8045C23.7853 16.9549 23.5582 17.0394 23.3214 17.0394H3.67857C3.44177 17.0394 3.21467 16.9549 3.04723 16.8045C2.87978 16.6541 2.78571 16.4501 2.78571 16.2374V3.4059C2.78571 3.19321 2.87978 2.98923 3.04723 2.83883C3.21467 2.68843 3.44177 2.60394 3.67857 2.60394H10.6071C10.7735 2.6029 10.9369 2.64364 11.0789 2.72158C11.2209 2.79952 11.3358 2.91154 11.4107 3.04502L12.2054 4.48054C12.4281 4.88124 12.7709 5.21815 13.1952 5.45335C13.6195 5.68854 14.1085 5.81269 14.6071 5.81181H23.3214C23.5582 5.81181 23.7853 5.8963 23.9528 6.0467C24.1202 6.1971 24.2143 6.40108 24.2143 6.61377V16.2374Z" fill="#1C3048" stroke="#1C3048" stroke-width="0.3"/>
</svg>
