<svg width="24" height="22" viewBox="0 0 24 22" fill="none" xmlns="http://www.w3.org/2000/svg">
<path id="Vector" d="M12.24 21C11.92 21 11.6114 20.8841 11.371 20.6734C10.4628 19.8794 9.58728 19.1331 8.8148 18.4749L8.81086 18.4714C6.54608 16.5415 4.59037 14.8747 3.22962 13.2329C1.7085 11.3974 1 9.65708 1 7.75591C1 5.90876 1.63338 4.20464 2.78335 2.95726C3.94704 1.69513 5.54379 1 7.27997 1C8.57761 1 9.76599 1.41025 10.812 2.21926C11.3399 2.62762 11.8184 3.1274 12.24 3.71036C12.6617 3.1274 13.1401 2.62762 13.6682 2.21926C14.7142 1.41025 15.9026 1 17.2002 1C18.9362 1 20.5332 1.69513 21.6968 2.95726C22.8468 4.20464 23.48 5.90876 23.48 7.75591C23.48 9.65708 22.7717 11.3974 21.2506 13.2327C19.8898 14.8747 17.9343 16.5413 15.6698 18.4711C14.896 19.1304 14.0191 19.8778 13.1089 20.6738C12.8686 20.8841 12.5599 21 12.24 21ZM7.27997 2.31685C5.91596 2.31685 4.66292 2.86121 3.75135 3.84979C2.82623 4.85329 2.31667 6.24046 2.31667 7.75591C2.31667 9.35489 2.91095 10.7849 4.24341 12.3927C5.53127 13.9467 7.44685 15.5791 9.6648 17.4693L9.66892 17.4727C10.4443 18.1336 11.3233 18.8827 12.2381 19.6826C13.1584 18.8812 14.0388 18.1308 14.8157 17.469C17.0335 15.5788 18.9489 13.9467 20.2368 12.3927C21.5691 10.7849 22.1633 9.35489 22.1633 7.75591C22.1633 6.24046 21.6538 4.85329 20.7287 3.84979C19.8173 2.86121 18.5641 2.31685 17.2002 2.31685C16.201 2.31685 15.2836 2.63448 14.4736 3.26083C13.7517 3.81926 13.2488 4.52519 12.954 5.01914C12.8024 5.27315 12.5355 5.42476 12.24 5.42476C11.9445 5.42476 11.6776 5.27315 11.526 5.01914C11.2314 4.52519 10.7285 3.81926 10.0064 3.26083C9.19641 2.63448 8.27901 2.31685 7.27997 2.31685Z" fill="#1C3048" stroke="#1C3048" stroke-width="0.8"/>
</svg>
