<svg width="24" height="24" viewBox="0 0 24 24" fill="none" xmlns="http://www.w3.org/2000/svg">
<g id="Edit">
<g id="Edit_2">
<g id="Group">
<g id="Clip path group">
<mask id="mask0_687_2731" style="mask-type:luminance" maskUnits="userSpaceOnUse" x="1" y="1" width="22" height="22">
<g id="w">
<g id="Vector">
<path d="M2.79096 19.0217L2.47945 20.8012C2.39051 21.2906 2.72422 21.602 3.19159 21.5131L4.97178 21.2017M14.4289 7.45528C14.6514 7.23279 15.0074 7.23279 15.2299 7.45528C15.4525 7.67778 15.4525 8.03357 15.2299 8.25605L7.99804 15.5074C7.77546 15.7299 7.41953 15.7299 7.19697 15.5074C6.97439 15.2849 6.97439 14.9291 7.19697 14.7066L14.4289 7.45528ZM7.75327 20.2897L7.93131 19.5557L2.92462 21.0905C2.88008 21.1129 2.83568 21.1129 2.81333 21.1129C2.81333 21.1129 2.83553 21.1129 2.85788 21.1351C2.88008 21.1572 2.88008 21.1796 2.88008 21.1796C2.88008 21.1574 2.88008 21.1129 2.90227 21.0683L4.43785 16.0636L3.70354 16.2415L7.75327 20.2897ZM3.59216 15.7966L2.05674 20.8013C1.81196 21.6021 2.39045 22.2027 3.19155 21.9357L8.19823 20.4009L8.37627 19.6668L4.32642 15.6185L3.59216 15.7966ZM19.213 8.83437V8.21156L7.95354 19.4667H8.57659L4.52674 15.4184V16.0412L15.7862 4.78608H15.1632L19.213 8.83437ZM15.4746 3.85185L3.59208 15.7298L8.26499 20.4009L20.1475 8.52297L15.4746 3.85185ZM19.836 8.21156L15.7861 4.16326V4.78608L17.5663 3.00656C17.7444 2.8286 18.0113 2.8286 18.1894 3.00656L20.9709 5.78699C21.1489 5.96496 21.1489 6.25418 20.9709 6.4098L19.1907 8.18932H19.8361L19.836 8.21156ZM21.6162 7.05486C22.1279 6.5433 22.1279 5.67581 21.6162 5.16409L18.8347 2.38367C18.3229 1.87211 17.4551 1.87211 16.9432 2.38367L14.8515 4.47459L19.5244 9.1457L21.6162 7.05486Z" fill="white"/>
<path d="M2.79096 19.0217L2.47945 20.8012C2.39051 21.2906 2.72422 21.602 3.19159 21.5131L4.97178 21.2017M14.4289 7.45528C14.6514 7.23279 15.0074 7.23279 15.2299 7.45528C15.4525 7.67778 15.4525 8.03357 15.2299 8.25605L7.99804 15.5074C7.77546 15.7299 7.41953 15.7299 7.19697 15.5074C6.97439 15.2849 6.97439 14.9291 7.19697 14.7066L14.4289 7.45528ZM7.75327 20.2897L7.93131 19.5557L2.92462 21.0905C2.88008 21.1129 2.83568 21.1129 2.81333 21.1129C2.81333 21.1129 2.83553 21.1129 2.85788 21.1351C2.88008 21.1572 2.88008 21.1796 2.88008 21.1796C2.88008 21.1574 2.88008 21.1129 2.90227 21.0683L4.43785 16.0636L3.70354 16.2415L7.75327 20.2897ZM3.59216 15.7966L2.05674 20.8013C1.81196 21.6021 2.39045 22.2027 3.19155 21.9357L8.19823 20.4009L8.37627 19.6668L4.32642 15.6185L3.59216 15.7966ZM19.213 8.83437V8.21156L7.95354 19.4667H8.57659L4.52674 15.4184V16.0412L15.7862 4.78608H15.1632L19.213 8.83437ZM15.4746 3.85185L3.59208 15.7298L8.26499 20.4009L20.1475 8.52297L15.4746 3.85185ZM19.836 8.21156L15.7861 4.16326V4.78608L17.5663 3.00656C17.7444 2.8286 18.0113 2.8286 18.1894 3.00656L20.9709 5.78699C21.1489 5.96496 21.1489 6.25418 20.9709 6.4098L19.1907 8.18932H19.8361L19.836 8.21156ZM21.6162 7.05486C22.1279 6.5433 22.1279 5.67581 21.6162 5.16409L18.8347 2.38367C18.3229 1.87211 17.4551 1.87211 16.9432 2.38367L14.8515 4.47459L19.5244 9.1457L21.6162 7.05486Z" stroke="white" stroke-width="0.2"/>
</g>
</g>
</mask>
<g mask="url(#mask0_687_2731)">
<g id="Group_2">
<path id="Vector_2" d="M0.875 0.871094H23.1269V23.1145H0.875V0.871094Z" fill="#1C3048" stroke="#1C3048" stroke-width="0.2"/>
</g>
</g>
</g>
</g>
</g>
</g>
</svg>
