<svg width="24" height="24" viewBox="0 0 24 24" fill="none" xmlns="http://www.w3.org/2000/svg">
<g id="Align">
<g id="Group 35944">
<path id="Vector" d="M2.1 5.7H21.9C22.1917 5.7 22.4715 5.61045 22.6778 5.45104C22.8841 5.29163 23 5.07543 23 4.85C23 4.62457 22.8841 4.40837 22.6778 4.24896C22.4715 4.08955 22.1917 4 21.9 4H2.1C1.80826 4 1.52847 4.08955 1.32218 4.24896C1.11589 4.40837 1 4.62457 1 4.85C1 5.07543 1.11589 5.29163 1.32218 5.45104C1.52847 5.61045 1.80826 5.7 2.1 5.7Z" fill="#1C3048"/>
<path id="Vector_2" d="M2.1 10.7H15.3C15.5917 10.7 15.8715 10.6104 16.0778 10.451C16.2841 10.2916 16.4 10.0754 16.4 9.85C16.4 9.62457 16.2841 9.40837 16.0778 9.24896C15.8715 9.08955 15.5917 9 15.3 9H2.1C1.80826 9 1.52847 9.08955 1.32218 9.24896C1.11589 9.40837 1 9.62457 1 9.85C1 10.0754 1.11589 10.2916 1.32218 10.451C1.52847 10.6104 1.80826 10.7 2.1 10.7Z" fill="#1C3048"/>
<path id="Vector_3" d="M2.1 15.7H21.9C22.1917 15.7 22.4715 15.6104 22.6778 15.451C22.8841 15.2916 23 15.0754 23 14.85C23 14.6246 22.8841 14.4084 22.6778 14.249C22.4715 14.0896 22.1917 14 21.9 14H2.1C1.80826 14 1.52847 14.0896 1.32218 14.249C1.11589 14.4084 1 14.6246 1 14.85C1 15.0754 1.11589 15.2916 1.32218 15.451C1.52847 15.6104 1.80826 15.7 2.1 15.7Z" fill="#1C3048"/>
<path id="Vector_4" d="M2.1 20.7H15.3C15.5917 20.7 15.8715 20.6104 16.0778 20.451C16.2841 20.2916 16.4 20.0754 16.4 19.85C16.4 19.6246 16.2841 19.4084 16.0778 19.249C15.8715 19.0896 15.5917 19 15.3 19H2.1C1.80826 19 1.52847 19.0896 1.32218 19.249C1.11589 19.4084 1 19.6246 1 19.85C1 20.0754 1.11589 20.2916 1.32218 20.451C1.52847 20.6104 1.80826 20.7 2.1 20.7Z" fill="#1C3048"/>
</g>
</g>
</svg>
