<svg width="24" height="22" viewBox="0 0 24 22" fill="none" xmlns="http://www.w3.org/2000/svg">
<g id="collage 1">
<g id="Group 35854">
<path id="Vector" d="M17.682 5.90287C17.3669 4.77124 16.6398 3.76664 15.6163 3.04857C14.5929 2.3305 13.3316 1.94013 12.0329 1.93945C10.7342 1.93878 9.47251 2.32783 8.4481 3.04483C7.4237 3.76183 6.69535 4.76568 6.37871 5.89697C4.88508 6.02288 3.50287 6.66075 2.51916 7.67809C1.53546 8.69544 1.02588 10.0141 1.09628 11.36C1.16667 12.706 1.81164 13.9759 2.89719 14.906C3.98275 15.836 5.42546 16.3547 6.92564 16.3542H9.11338C9.30679 16.3542 9.49228 16.2852 9.62904 16.1624C9.7658 16.0396 9.84263 15.8729 9.84263 15.6992C9.84263 15.5255 9.7658 15.3589 9.62904 15.2361C9.49228 15.1132 9.30679 15.0442 9.11338 15.0442H6.92564C6.35105 15.0457 5.78175 14.9456 5.25025 14.7494C4.71875 14.5533 4.23546 14.2651 3.82797 13.9012C3.00502 13.1663 2.54078 12.1679 2.5374 11.1256C2.53401 10.0833 2.99175 9.08245 3.80992 8.34327C4.62809 7.60409 5.73967 7.18711 6.90012 7.18407C7.08724 7.19672 7.27292 7.1465 7.42114 7.04314C7.56936 6.93978 7.66956 6.79065 7.70229 6.62469C7.85078 5.68937 8.36998 4.83357 9.16452 4.21446C9.95906 3.59535 10.9756 3.2545 12.0275 3.2545C13.0793 3.2545 14.0958 3.59535 14.8904 4.21446C15.6849 4.83357 16.2041 5.68937 16.3526 6.62469C16.3908 6.78489 16.4896 6.92823 16.6323 7.03025C16.775 7.13226 16.9527 7.18663 17.1351 7.18407C18.2955 7.18407 19.4085 7.59813 20.229 8.33516C21.0496 9.07219 21.5106 10.0718 21.5106 11.1141C21.5106 12.1565 21.0496 13.1561 20.229 13.8931C19.4085 14.6302 18.2955 15.0442 17.1351 15.0442H14.9474C14.7539 15.0442 14.5685 15.1132 14.4317 15.2361C14.2949 15.3589 14.2181 15.5255 14.2181 15.6992C14.2181 15.8729 14.2949 16.0396 14.4317 16.1624C14.5685 16.2852 14.7539 16.3542 14.9474 16.3542H17.1351C18.6243 16.3402 20.0512 15.8152 21.1233 14.8867C22.1954 13.9583 22.8317 12.6967 22.9016 11.3605C22.9715 10.0243 22.4699 8.71461 21.4994 7.69991C20.529 6.6852 19.1632 6.04227 17.682 5.90287Z" fill="#ABB2C7" stroke="#ABB2C7" stroke-width="0.5"/>
<path id="Vector_2" d="M15.1612 12.5786C15.2988 12.6979 15.483 12.7639 15.6742 12.7624C15.8654 12.7609 16.0483 12.692 16.1835 12.5706C16.3187 12.4492 16.3954 12.2849 16.3971 12.1131C16.3987 11.9414 16.3252 11.7759 16.1924 11.6524L12.5462 8.37733C12.4094 8.25453 12.224 8.18555 12.0306 8.18555C11.8372 8.18555 11.6518 8.25453 11.515 8.37733L7.86877 11.6524C7.73593 11.7759 7.66243 11.9414 7.66409 12.1131C7.66575 12.2849 7.74245 12.4492 7.87765 12.5706C8.01286 12.692 8.19577 12.7609 8.38697 12.7624C8.57818 12.7639 8.76239 12.6979 8.89993 12.5786L11.3013 10.4216V18.6656C11.3013 18.8393 11.3782 19.0059 11.5149 19.1288C11.6517 19.2516 11.8372 19.3206 12.0306 19.3206C12.224 19.3206 12.4095 19.2516 12.5462 19.1288C12.683 19.0059 12.7598 18.8393 12.7598 18.6656V10.4216L15.1612 12.5786Z" fill="#ABB2C7" stroke="#ABB2C7" stroke-width="0.5"/>
</g>
</g>
</svg>
