<svg width="16" height="20" viewBox="0 0 16 20" fill="none" xmlns="http://www.w3.org/2000/svg">
<path d="M7.717 18.7299L1.25898 12.2719C1.09092 12.0979 0.997933 11.8648 1.00003 11.6229C1.00214 11.381 1.09916 11.1496 1.27022 10.9786C1.44127 10.8075 1.67266 10.7105 1.91456 10.7084C2.15645 10.7063 2.3895 10.7993 2.5635 10.9673L7.44668 15.8505V1.92257C7.44668 1.67789 7.54388 1.44323 7.7169 1.27022C7.88991 1.0972 8.12457 1 8.36926 1C8.61394 1 8.8486 1.0972 9.02161 1.27022C9.19463 1.44323 9.29183 1.67789 9.29183 1.92257V15.8505L14.175 10.9673C14.2601 10.8792 14.3619 10.8089 14.4745 10.7606C14.587 10.7122 14.7081 10.6868 14.8306 10.6857C14.9531 10.6847 15.0746 10.708 15.188 10.7544C15.3013 10.8008 15.4043 10.8693 15.491 10.9559C15.5776 11.0425 15.6461 11.1455 15.6925 11.2589C15.7389 11.3723 15.7622 11.4938 15.7611 11.6163C15.7601 11.7388 15.7346 11.8598 15.6863 11.9724C15.6379 12.085 15.5676 12.1868 15.4795 12.2719L9.02151 18.7299C8.84851 18.9028 8.61389 19 8.36926 19C8.12462 19 7.89 18.9028 7.717 18.7299Z" fill="#1C3048" stroke="#1C3048" stroke-width="0.1"/>
</svg>
