<svg width="19" height="16" viewBox="0 0 19 16" fill="none" xmlns="http://www.w3.org/2000/svg">
<path d="M0.650976 7.33614L7.10899 0.878118C7.28299 0.710064 7.51604 0.617073 7.75793 0.619176C7.99983 0.621278 8.23122 0.718304 8.40228 0.889357C8.57333 1.06041 8.67035 1.2918 8.67246 1.5337C8.67456 1.77559 8.58157 2.00864 8.41351 2.18264L3.53033 7.06582L17.4583 7.06582C17.703 7.06582 17.9376 7.16302 18.1106 7.33604C18.2837 7.50905 18.3809 7.74371 18.3809 7.9884C18.3809 8.23308 18.2837 8.46774 18.1106 8.64075C17.9376 8.81377 17.703 8.91097 17.4583 8.91097H3.53033L8.41351 13.7942C8.50163 13.8793 8.57191 13.9811 8.62027 14.0936C8.66862 14.2062 8.69407 14.3272 8.69513 14.4497C8.6962 14.5722 8.67285 14.6937 8.62646 14.8071C8.58008 14.9205 8.51157 15.0235 8.42495 15.1101C8.33833 15.1967 8.23532 15.2652 8.12194 15.3116C8.00856 15.358 7.88707 15.3814 7.76458 15.3803C7.64208 15.3792 7.52102 15.3538 7.40846 15.3054C7.2959 15.2571 7.1941 15.1868 7.10899 15.0987L0.650976 8.64066C0.478022 8.46765 0.380859 8.23303 0.380859 7.9884C0.380859 7.74376 0.478022 7.50914 0.650976 7.33614Z" fill="#1C3048" stroke="#1C3048" stroke-width="0.1"/>
</svg>
