<svg width="19" height="16" viewBox="0 0 19 16" fill="none" xmlns="http://www.w3.org/2000/svg">
<path d="M18.1107 8.66386L11.6527 15.1219C11.4787 15.2899 11.2457 15.3829 11.0038 15.3808C10.7619 15.3787 10.5305 15.2817 10.3594 15.1106C10.1884 14.9396 10.0914 14.7082 10.0893 14.4663C10.0872 14.2244 10.1802 13.9914 10.3482 13.8174L15.2314 8.93418H1.30343C1.05875 8.93418 0.824091 8.83698 0.651075 8.66396C0.478059 8.49095 0.380859 8.25629 0.380859 8.0116C0.380859 7.76692 0.478059 7.53226 0.651075 7.35925C0.824091 7.18623 1.05875 7.08903 1.30343 7.08903H15.2314L10.3482 2.20585C10.2601 2.12074 10.1898 2.01894 10.1415 1.90638C10.0931 1.79383 10.0677 1.67276 10.0666 1.55027C10.0655 1.42777 10.0889 1.30628 10.1353 1.1929C10.1816 1.07952 10.2501 0.976515 10.3368 0.889892C10.4234 0.803268 10.5264 0.734763 10.6398 0.688375C10.7532 0.641988 10.8746 0.618645 10.9971 0.61971C11.1196 0.620774 11.2407 0.646226 11.3533 0.694577C11.4658 0.742929 11.5676 0.813211 11.6527 0.901326L18.1107 7.35934C18.2837 7.53235 18.3809 7.76697 18.3809 8.0116C18.3809 8.25624 18.2837 8.49086 18.1107 8.66386Z" fill="#1C3048" stroke="#1C3048" stroke-width="0.1"/>
</svg>
