<svg width="16" height="20" viewBox="0 0 16 20" fill="none" xmlns="http://www.w3.org/2000/svg">
<path d="M7.717 1.27012L1.25898 7.72814C1.09092 7.90213 0.997933 8.13518 1.00003 8.37707C1.00214 8.61897 1.09916 8.85036 1.27022 9.02142C1.44127 9.19247 1.67266 9.2895 1.91456 9.2916C2.15645 9.2937 2.3895 9.20071 2.5635 9.03265L7.44668 4.14947V18.0774C7.44668 18.3221 7.54388 18.5568 7.7169 18.7298C7.88991 18.9028 8.12457 19 8.36926 19C8.61394 19 8.8486 18.9028 9.02161 18.7298C9.19463 18.5568 9.29183 18.3221 9.29183 18.0774V4.14947L14.175 9.03265C14.2601 9.12077 14.3619 9.19105 14.4745 9.23941C14.587 9.28776 14.7081 9.31321 14.8306 9.31427C14.9531 9.31534 15.0746 9.29199 15.188 9.2456C15.3013 9.19922 15.4043 9.13071 15.491 9.04409C15.5776 8.95747 15.6461 8.85446 15.6925 8.74108C15.7389 8.6277 15.7622 8.50621 15.7611 8.38372C15.7601 8.26122 15.7346 8.14016 15.6863 8.0276C15.6379 7.91504 15.5676 7.81324 15.4795 7.72814L9.02151 1.27012C8.84851 1.09716 8.61389 1 8.36926 1C8.12462 1 7.89 1.09716 7.717 1.27012Z" fill="#1C3048" stroke="#1C3048" stroke-width="0.1"/>
</svg>
